<svg xmlns="http://www.w3.org/2000/svg" width="557" height="557" viewBox="0 0 557 557">
    <g fill="none" fill-rule="nonzero">
        <circle cx="278.5" cy="278.5" r="278.5" fill="#E3DEA8" fill-opacity=".9" style="mix-blend-mode:overlay"/>
        <path fill="#DF1F1D" d="M416.396 152.921c.179 1.542 2.092.364 2.27 1.2.114.525-1.856 1.828-2.28 2.187 1.372.827 3.123-1.079 4.151-1.877.53.575.71.877.223 1.535-.859 1.162-.82-.377-1.84.431.424.715.798.305 1.338.113-.235 1.376.292.505.704 1.376.335.709.294 1.232.394 2.023l-1.454 3.344c-.583 1.34-.41 1.771-1.835 1.323.16-.278 1.227-1.638 1.14-1.972-.098-.382-1.557-.91-1.943-1.232-.678-.564-.67-1.048-1.103-1.655.172-.564.038-.828-.402-.79-.161.436-.324.872-.486 1.307.04.928.824.84 1.286 1.727.707 1.356.311.555-.267 1.647-.568 1.071-.631 2.44-1.565 2.978l1.505.661c-1.171 1.286 1.264.66 1.667.535l-1.236 2.625c-1.234-.691-1.843-2.001-2.665-3.084l-1.878 3.492 1.868-.173c-.087.165-.884 1.29-.816 1.541.278 1.021 2.397.445 2.163 1.78-.03.172-1.93 2.088-2.255 2.273.954.429 1.386.251 1.044 1.378l-1.33-.805c-.377.678-.814 1.34-1.055 2.083.046.486-.04.946-.26 1.38a7.758 7.758 0 0 1-.882 1.088c-.26.683-.343 4.41-.03 5.018.696-.9 2.254.69-.375.69-1.151 0-1.074-.24-1.514.772-.346.796-.533 1.49.448 1.567-.738 1.454-.58 2.574-.647 4.124-.054 1.255-.406 2.503-.666 3.734l.7-1.007c.63 1.343.15 2.474-.149 3.911-.653-.863-.733.677-1.292.518-1.14-.325-.286-.565-.75-1.313-.401-.648-.36-.833-1.101-1.23-.985-.524-2.71-.544-3.825-.73-1.872-.312-3.747-.39-5.642-.473-7.091-.307-14.158-.386-21.249.004-6.523.359-13.204 1.274-19.6 2.513-6.811 1.32-13.472 2.536-20.067 4.768-1.275.431-2.55 1.331-3.825 1.647-1.208.3-2.42.296-3.68.734-3.017 1.048-6.14 1.843-9.18 2.843-3.277 1.079-6.823 1.978-9.941 3.47-1.354.649-2.584 1.528-3.938 2.184-1.276.62-3.42 1.184-4.094 2.612-.263.557-.218.961-.055 1.539.328 1.158.586 1.033 1.475.954 1.237-.109 2.837-1.072 4.038-1.45 3.288-1.037 6.616-1.867 9.96-2.697 6.004-1.491 12.033-4.132 17.958-5.165 3.514-.612 6.844-2.277 10.377-2.906.775-.138 3.02-1.245 3.656-.862.168.1.581 1.316.727 1.606a19.493 19.493 0 0 0 1.82 2.985c2.113 2.817 4.946 5.086 7.475 7.513 2.888 2.774 5.398 5.833 8.063 8.81l.694-.806c-.244 1.88 1.164 3.236 2.314 4.512 1.366 1.516 2.464 2.942 3.541 4.67.884 1.419 2.014 2.66 3.013 3.952.981 1.27 1.635 2.805 2.538 4.174 2.074 3.146 4.115 6.353 6.206 9.456.985 1.461 1.762 3.105 2.542 4.768.618 1.32 2.479 4.018 2.479 5.299-.134.627 1.225 4.4-.227 2.621l-.697 1.077 1.192-.5c-1.206 1.093 1.047 1.234 1.097 1.845l-.602.58c-.343.708-.79.8-1.338.276-.605.037-.726-.301-1.4-.076.644 1.005 1.473.37 1.8 1.76.29 1.24-.647 1.493-1.621 2.238l-.022.017-.012.042c-.2.665-.802.392-1.474.253-1.582-.325-3.33-.95-4.87-1.43a105.477 105.477 0 0 0-10.128-2.626c-7.856-1.621-15.648-1.545-23.575-2.057.209-.87.21-.793-.037-1.331.317.69-1.597-.211-.155 1.314-3.683.602-7.661.15-11.397.35.174-.388.574-.833.2-1.114-1.768 2.558-7.678 1.461-10.6 1.828-1.714.215-3.409.628-5.119.9-.837.133-1.685.249-2.506.471-.755.204-2.014 1.04-2.73.846 1.048-2.114-.16-.284-.325-.26-.498.074-1.355.242-2.07.242.815-3.275 2.213-6.291 2.776-9.664.352-2.102 1.317-5.488-.761-6.978-1.138-.816-3.004-.993-4.322-1.27-1.445-.305-3.97-.292-5.227-1.11-.982-.638-1.19-1.225-2.475-1.713-1.483-.563-2.167-1.122-3.666-.667.61-.763 1.464-1.32.267-2.1-.49-.32-1.451.11-1.623-.589-.888.628-.678 1.135-.915 1.995.021.364.117.711.287 1.04l-1.41.568c.3-.803-.578-.324-.752-.719-.261-.59-.106-1.49-.106-2.131-.97.306-1.983.685-2.406 1.693-1.187-.707-.715-.756-.107-1.817-.996-.236-1.207.277-1.358 1.102l-1.577-.487c1.184-.008 1.469-.934 1.497-1.94l-1.383.45-.284 1.46c-.726.616-2.614-.496-3.227-.814-2.136-1.108-2.917-1.428-2.616-3.945.252-2.11.81-4.23.933-6.352.137-2.356-.138-4.876-.344-7.224-.4-4.546-1.044-9.025-1.27-13.588-.122-2.471-.258-4.943-.355-7.415-.077-1.966-.755-4.128 1.696-4.302-.3-.952.598-2.052 1.523-2.573.324-.738.678-.805 1.063-.198.334.105.645.056.932-.149 1.35-.306 2.968-2.221 4.179-2.912 1.188-.677 3.777-1.66 4.625-2.8.82-1.103-.42-.98-.17-1.99.343-1.381 1.59.603 1.78.879.417-.419 2.008-1.204 1.989-1.812l-1.17-.209c.427-.246 1.371-.98 1.867-1.077.841-.166.525-.38 1.2.55.235-.365.805-1.56 1.163-1.802.17-.116 1.183-.193 1.396-.268 1.103-.39.991-1.248 1.802-1.656.393-.198.877.106 1.207-.038.528-.231.53-1.018 1.008-1.304.414-.247 1.463-.042 1.958-.222.819-.299.783-.578 1.394-1.124.857-.766 1.646-.655 2.6-1.235.99-.601.838-1.956 1.736-2.214 1.199-.345 1.506.791 2.158-.33.147-.253-.519-.63-.101-1.034.514-.498.727.096.963.483l.814-1.536c1.305.715.757-.207 1.753-.698.442-.218.807.212 1.291-.051.356-.193.418-.614.674-.875.491-.502.763-1.19 1.525-1.428-.275.085 1.982.02 1.78-.076l-.659-.968c1.182 0 2.213.118 3.356-.237.405-.126 1.037-.319 1.373-.576.925-.708.717-.535.717-1.835 1.276.813 2.9.529 4.16-.413.657-.492 1.078-1.081 1.799-1.526.31-.16.624-.31.944-.449.4-.414.8-.418 1.202-.011.568-.153.561-.258 1.002-.533.126-.25.26-.495.404-.735.472-.049.937-.134 1.396-.256 1.783-.48 2.859-1.67 4.513-.615l.635-1.295c.704 1.1 1.185.05 2.12-.396.391-.187.9-.234 1.254-.404l.598.141c.17-.522.338-1.045.506-1.567.34.132 1.69.857 2.096.819.582-.055 1.276-1.04 1.84-1.225.86-.284.551.091 1.395.097.65.004.955.097 1.516-.449-1.895-.492.496-.724 1.295-.891 1.244-.26 1.885.018 2.75-.966h-.898c.886-.806.588-.522 1.52-.443.294.025 1.571.726 1.574-.21 1.205.71 1.218.712 2.46.392.55-.142 1.018-.604 1.623-.615.59-.01 1.013.256 1.54.2.314-.034 1.416-.448 1.789-.584.59-.215.98-.675 1.545-.853.622-.197 1.414.037 2.067-.106 1.943-.428 3.084-1.592 5.187-.962.225-1.884 2.572-1.465 3.835-1.27.88.135 1.327.491 2.237.06.742-.35 1.164-.906 1.989-1.186.633-.215 1.485-.372 2.146-.509.409-.129.826-.17 1.252-.123.444.062.814.26 1.108.593l.023.026.005-.01c.095-.168 1.007-.847.948-.797l.038-.03c.713-.55 1.056-.356 1.504-1.49l-1.593-.337c.82-.055 1.436-.15 2.165.17.505.22 1.352 1.387 1.857 1.388.913.001 1.232-1.286 1.142-1.956.766 1.785 1.42 2.083 3.14 1.17l.607-.322c.41-.43.817-.421 1.222.024l.722.393.867-1.444c.614.846 1.198.887 2.2.69.69-.137 2.107-1.389 2.616-1.388.295 0 .672.72 1.165.86.814.234 2.08-.354 2.37-1.134l.463.977c.385-.36.771-.719 1.153-1.081zm-29.239 120.98l-.002.027.028-.022-.026-.006zm-1-1.7v1.517l.513.093.487.09.003-.038c.039-.752-.337-1.308-1.003-1.661zm-45.348-6.03l-.48 1.473 1.617.132c-.38-.535-.758-1.07-1.137-1.606zm-63.29-38.847c1.178.344 1.162.302 1.399 1.392 1.346 6.208-2.819 13.327.239 19.227-8.938-.072-17.894.106-26.779 1.154 0-3.38.111-6.753-.144-10.128-.116-1.532-.289-3.058-.445-4.586-.198-1.939-.135-1.825 1.451-2.16.833-.175 1.132-.703 1.928-1.025.598-.242.866.056 1.455.138 1.054.15 1.067-.028 2.033-.234 2.073-.442 3.834-.284 5.472-1.833.85-.073.574.714 1.166.637.43-.057.704-.86 1.143-1.052 1.366-.598 3.64-.452 5.133-.639 1.527-.19 2.877-.879 4.339-1.083.601-.084 1.04.025 1.61.192zm21.127 19.43c.509.28.665-.436.928-.873-.568-.284-.652.376-.928.873zm-1.576-4.669c.199.697.184 1.232.184 1.951 1.178-.166 1.548-.252 1.57-1.505l-.63.396c-.33-.654-.403-.705-1.124-.842zm-9.11 1.167l.8-.516c-.394-.566-1.093.107-.8.516zm2.977-10.415l1.021-.536c-.883-1.126-.948-.748-1.021.536zm-1.23-8.936h-1.339c.262.861 1.338 1.046 1.338 0zm131.136-50.081l.917.535c-.794.724-1.77 1.454-.997 2.303.614.674 3.484.995 4.343 1.241-.298.343-.913 1.28-1.32 1.517-.322.187-.616-.553-1.265.184 1.077.559.788.135.508 1.321-.165.7-.756 1.451-1.088 2.079-.811 1.527-1.64 3.044-2.49 4.549a174.218 174.218 0 0 1-5.51 9.097c-.325-1.68.605-3.563 1.088-5.184.607-2.04 1.215-4.08 1.826-6.118 1.18-3.928 2.238-7.816 3.988-11.524zm-46.81 5.126l-2.344.597c1.31.417 1.31.417 2.344-.597zm38.6-7.573c-1.112.521-1.231.9-.332 1.536l.331-1.536zm-.136-12.32c-.15.662-1.085.026-1.292.509-.474 1.105 1.033.955 1.576.889l-.284-1.397zm6.3-.839c-.297 1.414-.297 1.414 1.08 1.626l-1.08-1.626zm-24.992-.976c-.006.016-.002.026.013.027h.01l-.023-.027zm-100.617 88.59v-.007c.031-.2 1.35 1.544 1.273 1.487.687.518 1.088.469 1.867-.126-1.394-.052-1.24-.913-1.568-1.944-.292 1.086-1.585-.359-1.574.55l.002.04z"/>
        <g fill="#000">
            <path d="M219.57 305.287c-.21 1.076-.732 1.583-.185 2.572.465.84 1.798 1.389 2.692 1.176l-2.508-3.748zm-24.234-38.28l-4.412 1.512c1.206 1.184 2.355 2.429 3.685 3.48l.727-4.993zm72.777 3.874c-2.104-1.06-4.461-1.18-6.768-1.316l1.053 5.684 5.715-4.368zm-50.529 146.67c-.42-.744-3.284-6.492-3.88-6.197-.315.156-.34 3.356-.386 3.811l-.493 4.857c1.694-.598 3.504-1.095 4.76-2.471zm-20.012-46.469l1.3 3.811c.206.604.327 1.495.692 2.028.473.691.116 1.098.748.341.68-.813.882-2.981 1.177-3.977l1.343-4.538c-2.11-.018-3.389 1.72-5.26 2.335zm-44.334-74.81c-2.594 1.774-5.22 3.534-7.477 5.738 1.986-.123 4.75 1.243 6.62.601.864.185 1.15-.143.857-.984v-5.355zm38.465 12.548v10.357c2.422-2.065 4.971-3.982 7.302-6.154l-7.302-4.203zm86.586 26.836c-.764 4.61-.806 9.355-1.016 14.021-.037.828-.356 2.075.196 2.8.553.727 2.13 1.13 2.931 1.519 2.255 1.093 4.494 2.218 6.742 3.325-2.95-7.222-5.902-14.444-8.853-21.665zm57.24-28.355l16.687-8.206-16.36-6.93-.327 15.136zm-57.251 12.878c1.016.073 1.177-3.8 1.345-4.825a640.704 640.704 0 0 1 3.112-17.456 549.622 549.622 0 0 1 4.955-23.109c-1.958-.353-3.756-.607-5.668-1.177-1.544-.46-3.382-.21-4.76-1.167-.18 3.591.717 7.41 1.049 11.001.384 4.156.59 8.29.556 12.464-.067 8.09-.374 16.182-.59 24.269zM150.256 429.785c.963-.257-.349-13.476-.408-15.382-.167-5.52-.2-11.043-.101-16.563-5.193 3.257-10.507 6.258-15.993 8.964 1.41 1.83 2.731 3.803 4.291 5.505 1.608 1.754 3.452 3.191 4.942 5.08 2.999 3.804 5.053 8.121 7.269 12.396zm124.969-78.2c.241-3.977.465-7.945.866-11.909.171-1.687 1.8-10.651-.809-10.44-1.484.119-4.088 2.292-5.449 3.054a720.84 720.84 0 0 1-5.404 2.999c-3.565 1.954-7.154 3.865-10.732 5.796l21.528 10.5zm-15.493-82.679c-2.972-.221-5.845-.442-8.777-.996-1.581-.299-3.162-.257-4.751-.459-1.139-.144-3.364-1.08-4.424-.773-1.333.384-1.817 7.065-2 8.742-.295 2.7-.494 5.977.712 8.514 2.324 4.89 8.586 1.073 11.632-.978 2.612-1.76 5.57-3.54 7.886-5.676 2.052-1.891.21-5.93-.278-8.374zm15.413 53.184c2.24-.906 2.204-2.044 2.302-4.387.118-2.848.187-5.7.268-8.548.145-5.077.282-10.157.237-15.237-.044-4.962-.287-9.916-.855-14.848-.2-1.744 0-4.722-.92-6.21-.838-1.356-3.44-1.37-4.86-1.287-1.6.094-2.897 1.615-4.078 2.577-1.308 1.065-3.996 2.565-4.21 4.153-.241 1.774.733 4.305 1.11 6.026 1.38 6.28 3.06 12.497 4.83 18.677 1.835 6.41 3.695 12.887 6.176 19.084zm-56.893-15.03c.144-1.412.67-2.59-.04-3.934-.61-1.156-1.603-2.317-2.348-3.41-2.134-3.134-4.527-6.136-6.852-9.13a274.748 274.748 0 0 0-6.541-8.112c-1.243-1.48-2.524-2.93-3.798-4.384-.933-1.064-1.817-2.56-3.136-3.117a329.756 329.756 0 0 0-2.402 18.408 321.145 321.145 0 0 0-.784 8.94c-.062.843-.715 3.687-.297 4.471.439.824 3.122 1.926 3.944 2.431 2.296 1.412 4.08 3.54 6.265 1.218 1.503-1.598 2.714-3.851 4.395-5.246.875-.726 1.7-.692 2.682-1.124 1.142-.5 1.178-.983 2.542-.302 2.3 1.149 3.696 2.846 6.37 3.29zm-115.094 31.446c0 4.232-.29 7.71 2.577 11.136 2.506 2.994 5.11 3.686 8.633 4.867 2.076.696 2.22.055 3.902-1.12 1.598-1.115 3.338-2.01 4.914-3.16a333.42 333.42 0 0 0 10.093-7.647c1.11-.877.946-.577.778-1.63-.155-.959-.843-2.18-1.219-3.092-.68-1.65-1.481-3.247-2.283-4.84-.91-1.809-1.703-3.773-2.833-5.46-.47-.699-1.026-1.332-1.574-1.97-1.153-1.343-1.112-1.293-2.49-.195-2.91 2.318-5.618 4.828-8.893 6.64a2725.52 2725.52 0 0 0-11.605 6.471zm87.743-32.778c.42-6.075.895-12.116 1.622-18.163.375-3.105.81-6.202 1.233-9.3.172-1.262.838-3.38.467-4.605-.364-1.207-1.972-2.355-2.854-3.228-.237-.234-.966-1.219-1.279-1.263-.336-.047-1.599.878-1.963 1.087a81.228 81.228 0 0 0-3.799 2.324c-2.348 1.524-4.622 3.16-6.848 4.856-4.668 3.557-9.12 7.385-13.689 11.067 4.186 3.67 9.339 6.52 14.019 9.492a335.747 335.747 0 0 0 8.366 5.172c1.428.849 3.085 2.147 4.725 2.561zM133.68 414.36c-3.38 2.236-6.608 4.596-10.431 6.03-3.806 1.43-7.567 1.979-11.5 2.828-1.983.428-3.848.897-5.872 1.196-1.135.168-2.89.103-3.925.583-.92-.197-1.249.118-.983.942l.03.77c.26 3.565 2.55 7.857 4.55 10.756 1.166 1.693 2.652 3.268 4.129 4.69 1.668 1.607 2.629 2.74 4.954 2.067 3.918-1.135 7.376-3.419 11.347-4.426 3.142-.797 5.751-2.467 8.815-3.33 3.779-1.067 7.518-2.281 11.348-3.172-1.71-3.304-3.241-6.744-5.432-9.77-2.246-3.107-4.724-6.092-7.03-9.164zm20.73-111.184c7.07 1.408 14.73 2.711 21.057 6.362 2.47 1.425 5.6 3.627 6.322 6.574.865 3.522-2.534 5.703-5.372 6.803-3.409 1.32-7.118 1.825-10.73 2.241-1.911.22-3.832.341-5.752.45-1.555.089-4.19-.253-5.611.363-.89-.177-1.199.184-.926 1.084l-.05.969-.146 2.904-.295 5.801-.64 12.637c3.702-2.295 6.686-5.58 10.304-8.029 1.72-1.164 3.429-2.33 5.142-3.49.719-.486 1.158-1.168 1.865-1.621.938-.601 1.77-.963 2.649-1.75 3.592-3.215 7.588-5.993 11.398-8.944 1.73-1.34 3.625-2.573 5.272-4.012 1.725-1.506 1.487-2.747 1.444-4.912-.044-2.293.797-5.14.407-7.352.328-.75.076-1.217-.755-1.4l-1.664-1.065a12461.3 12461.3 0 0 0-3.319-2.124l-13.203-8.447-6.596-4.22c-.614-.392-2.617-2.167-3.306-2.115-.702.053-1.921 1.426-2.448 1.863-.808.67-1.593 1.374-2.466 1.96-.435.302-.89.571-1.363.808-.756.073-1.019.489-.789 1.246-.664 2.132-.299 5.177-.429 7.416zm98.025 100.5c-1.6-7.487-3.665-16.352-9.908-21.444-6.332-5.165-15.59-3.17-20.543 2.896-2.48 3.038-4.018 6.63-5.16 10.351-1.174 3.82-2.902 8.797-2.586 12.837.139 1.77 1.656 3.674 2.523 5.22.894 1.595 1.488 3.883 3.596 3.33 3.269-.857 6.593-2.825 9.652-4.234 3.094-1.425 6.352-2.597 9.56-3.974 2.13-.913 4.34-1.609 6.465-2.535 2.015-.878 4.673-1.09 6.401-2.448zm94.585-44.59c4.465 1.598 6.785-.96 9.927-3.842 2.976-2.73 6.2-5.354 8.941-8.32 2.827-3.06 5.061-6.674 7.234-10.207 2.197-3.57 5.167-7.427 6.52-11.403.688-2.023.981-4.264 1.415-6.355.105-.504.805-2.377.583-2.8-.307-.582-2.256-.644-2.792-.729a44.7 44.7 0 0 0-13.048-.105c-8.267 1.166-15.182 5.804-17.795 13.916-3.064 9.508-1.592 20.076-.985 29.845zm-28.949-82.473c-.069 1.646 3.876 2.104 4.898 2.488 2.363.886 4.712 1.823 7.006 2.872 4.724 2.16 9.762 3.568 14.286 6.18 9.752 5.63 20.34 9.6 30.192 14.985 1.535.84 4.534 2.862 6.288 2.69.932-.09.237.66.842-.822.217-.533.29-1.227.411-1.798.366-1.712.648-3.44 1.058-5.143.675-2.803 1.364-5.403 1.648-8.284.12-1.22.253-2.44.267-3.667.015-1.245.301-4.363-.26-5.44-.373-.714-.447-.47-1.378-.67-.533-.116-1.092-.356-1.606-.516-1.207-.376-2.415-.737-3.68-.847-1.25-.11-2.048-.49-3.22-.711-1.23-.232-2.494.049-3.748-.275-1.352-.35-1.998-.668-3.411-.534-1.37.129-1.765-.175-3.107-.549-1.12-.311-2.455-.093-3.622-.188-1.413-.115-2.821-.292-4.235-.404-6.357-.503-12.79.243-19.162.184-3.465-.032-6.855.48-10.315.322a75.226 75.226 0 0 0-9.152.127zm16.538 33.52c-3.092 1.178-5.96 3.092-8.827 4.74-3.306 1.9-6.47 3.92-9.53 6.2-5.145 3.832-11.148 8.427-12.502 15.115-1.39 6.864 4.569 12.488 10.154 15.296 6.371 3.202 13.782 4.858 20.76 6.081-.746-15.8-.57-31.627-.055-47.432zm-92.515 37.199c-1.876.518-3.465 1.63-5.205 2.451-1.559.736-3.067 1.291-4.524 2.239-2.373 1.544-5.123 2.867-7.604 4.061-6.139 2.955-12.098 6.624-18.175 9.899-1.61.868-2.139 1.416-2.684 3.203-.592 1.94-1.15 3.894-1.722 5.842-.532 1.816-1.381 3.758-1.158 5.675.196 1.668 1.058 3.241 1.708 4.763 1.637 3.829 3.412 7.596 5.245 11.334 1.646 3.355 3.147 6.915 5.26 10 1.641-8.566 3.114-18.164 9.478-24.69 6.358-6.523 16.503-6.615 22.63.118 2.911 3.198 4.683 7.226 6.076 11.273.731 2.126 1.222 4.293 1.693 6.489.503 2.346.379 3.59 2.966 2.88 2.055-.565 4.233-1.015 6.247-1.66 1.045-.333 2.064-.708 2.111-1.534.06-1.043-1.343-3.178-1.758-4.16a199513.324 199513.324 0 0 0-13.397-31.686l-3.48-8.23c-1.06-2.5-1.941-6.214-3.707-8.267zm92.69-42.76c.034-2.501.075-5.001.108-7.502.02-1.49.683-4.37-.614-5.435-.804-.66-3.19-1.166-4.207-1.617-2.007-.89-4.18-1.288-6.2-2.172-7.907-3.466-16.136-6.352-24.278-9.145-1.755-.602-3.55-1.095-5.317-1.688-.954-.32-4.488-2.2-5.37-1.709-.774.43-1.357 5.558-1.604 6.622a409.844 409.844 0 0 0-1.685 7.579c-2.09 9.826-3.842 19.722-5.473 29.635 4.331-1.646 8.482-4.496 12.574-6.7 4.25-2.289 8.486-4.573 12.765-6.809 1.208-.631 5.458-3.533 6.452-2.394 1.595 1.827-2.206 3.97-3.204 4.754-3.86 3.028-7.937 5.668-12.064 8.31-4.277 2.738-8.728 5.157-13.028 7.845-1.552.97-4.029 2.151-4.639 3.79-.785 2.108-.218 4.67.496 6.684 1.755 4.95 3.676 9.838 5.708 14.68a377.976 377.976 0 0 0 2.837 6.575c1.15 2.6 2.658 3.15 5.163 4.347 10.671 5.097 21.756 9.935 32.005 15.834-1.715 1.978-5.896-1.27-7.589-2.092-3.135-1.524-6.273-3.042-9.406-4.57-5.836-2.846-11.643-5.749-17.512-8.527 3.761 8.56 8.2 16.806 13.123 24.751-1.243.421-.94.443-1.72-.305-.657-.63-1.098-1.863-1.543-2.653-.92-1.634-1.828-3.274-2.755-4.903-1.923-3.382-3.916-6.712-5.672-10.186-1.32-2.612-2.344-7.178-5.058-8.495-3.382-1.641-6.809-3.24-10.191-4.904 0 13.013.935 25.737 2.307 38.67.07.652.694 2.577-.566 2.388-.568-.085-.76-3.653-.86-4.398a252.18 252.18 0 0 1-1.164-10.272 240.586 240.586 0 0 1-1.023-20.6l-2.435 20.058-1.153 9.504-.606 4.992c-.093.764-.034 1.764-.303 2.493-.422 1.147-.28 1.06-1.604 1.582a993.915 993.915 0 0 0 3.47-26.163 796.713 796.713 0 0 0 1.758-16.247c.057-.585.562-2.469.282-2.955-.278-.482-2.118-.985-2.647-1.231-1.16-.539-2.32-1.077-3.478-1.618-3.761-1.759-7.52-3.531-11.239-5.376-1.627-.807-3.334-2.054-5.103-2.484-1.762-.428-3.044.798-4.55 1.578-1.172.607-3.935 1.415-4.718 2.446-.728.96 1.535 4.799 2.13 6.214l5.032 11.981 10.203 24.292 2.494 5.938c.533 1.269 1.423 4.884 2.715 5.025.572.063 1.512-.56 2.065-.739.825-.267 1.587-.263 2.414-.403 1.517-.258 3.092-1.04 4.582-1.59 3.829-1.412 7.798-2.323 11.657-3.642 3.878-1.325 7.692-2.813 11.554-4.138 3.508-1.203 7.047-2.575 10.417-4.141 3.559-1.655 7.208-3.115 10.676-4.95 6.316-3.342 12.563-6.463 18.143-10.562 1.312-.964 2.71-1.932 4.008-2.964 1.138-.905 3.31-2.023 4.084-3.214.295-.454.549-1.344.204-1.883-.37-.58-2.01-.526-2.775-.63l-7.245-.973c.185 1.589.373 3.176.507 4.771.094 1.126.76 4.1-.137 4.983-1.233-1.173-.837-4.679-.948-6.24-.059-.835.154-2.469-.22-3.21-.41-.81-1.54-.8-2.566-1.022-4.349-.941-8.658-1.73-12.866-3.222-7.109-2.52-15.606-6.772-17.194-14.976-1.655-8.552 5.618-15.962 11.743-20.732 3.667-2.856 7.568-5.328 11.602-7.624 1.886-1.072 3.77-2.145 5.668-3.194.69-.382 2.957-1.168 3.321-1.836.373-.683.182-2.509.261-3.287zm-152.09 131.34c-.345.17-.69.338-1.035.506 3.837-10.937 7.638-21.825 10.845-32.968a1711.786 1711.786 0 0 1 4.718-16.115c.692-2.313 2.39-5.499 1.918-7.895-.51-2.594-1.735-5.353-2.682-7.82-6.063 3.813-12.253 7.43-18.417 11.07-5.526 3.265-11.145 6.168-16.71 9.398-2.852 1.654-5.793 2.772-8.77 4.124-2.417 1.099-1.479 4.457-1.444 6.701.123 7.922.117 15.872.597 23.782.175 2.882-.05 6.19 1.783 8.589 2.345 3.066 4.52 6.193 6.66 9.42.8 1.21 4.167 7.758 5.422 7.615.82-.094 1.574-2.745 1.984-3.374.884-1.355 2.176-2.52 3.351-3.612 5.078-4.713 10.713-8.033 16.57-11.478 5.949-3.5 12.037-6.757 18.1-10.075 1.369-.75 2.844-1.29 4.204-2.057.538-.303 1.604-.783 1.943-1.324.506-.81.334-3.052.44-4.02.215-1.977.603-4.031.625-6.023.02-1.967-1.163-3.658-2.02-5.373-3.762-7.532-7.417-15.083-10.69-22.843-2.581 9.011-5.29 17.98-7.822 27.005-1.322 4.712-2.915 9.347-4.467 13.987-.791 2.37-1.588 4.738-2.38 7.108-.615 1.846-.935 4.549-2.723 5.673zm54.032-169.827c-1.995.023-3.802-.27-5.753-.687-.715-.153-1.344-.217-2.07-.281-.822-.073-1.57-.518-2.29-.606-.545-.065-1.497.163-2.017.338-1.207.404-1.168.2-1.218 1.601-.08 2.165-.138 4.33-.257 6.493-.468 8.514-1.372 16.945-2.61 25.377-.25 1.704-.953 3.94-.567 5.632.348 1.526 1.666 3.156 2.536 4.436 1.79 2.632 6.007 3.932 8.973 4.679 3.128.787 6.376 1.077 9.347 1.779.824.195 1.769-.148 2.647.047.811.18 1.442.626 2.192.948 1.837.79 3.89.935 5.788 1.545 3.763 1.208 7.792 1.135 11.559 2.296.963.296 1.795 1.044 2.721 1.3.847.233 1.72-.042 2.606.089 1.879.276 3.63.919 4.063 2.936 1.149-.91 1.309-.67 1.11-2.077-.127-.903-.63-2.001-.904-2.87-.701-2.218-1.406-4.434-2.106-6.652-1.385-4.388-2.762-8.78-4.04-13.2a209.364 209.364 0 0 1-3.088-11.955c-.462-2.042-.848-4.092-1.244-6.144-.115-.596 0-1.543-.6-1.939-.542-.36-1.808.93-2.381 1.346-4.003 2.9-13.185 11.48-18.19 6.42-2.695-2.726-2.537-7.517-2.244-11.039.179-2.164.559-4.3.984-6.428.106-.531.755-2.237.517-2.615-.257-.407-2.929-.65-3.464-.769zm140.656 47.357l3.196.359c-.097-.861-.01-2.157-.336-2.959-.45-1.109-1.554-1.232-2.768-1.692-1.92-.726-3.877-1.358-5.776-2.14-4.121-1.696-8.223-3.417-12.346-5.113-1.807-.744-3.93-1.961-5.893-1.354-2.116.656-4.205 1.991-6.183 2.969-2.24 1.107-4.478 2.217-6.717 3.326l-3.15 1.562c-1.649.817-1.868.9-1.998 2.767-.663 9.55-.614 19.472-.325 29.036.148 4.88-.018 9.787.332 14.659.027.375 0 2.49.234 2.778.33.406 2.655.543 3.21.645 2.165.396 4.346.528 6.534.723-.515-11.108-2.409-24.24 3.294-34.402 5.728-10.208 17.97-12.42 28.692-11.164zm-99.575-109.287c.643-1.463 1.748-2.698 2.694-3.982.51-.694 1.395-1.524 1.722-2.336.466-1.156.463-.908-.233-1.92-.658-.957-.644-1.029-1.661-1.2-.857-.144-1.77.1-2.644-.056-.884-.159-3.315-.904-2.758-2.312-.024.061 1.382-.632 1.492-.753.353-.385.465-1.205.64-1.67.561-1.493.758-2.459.132-4.047-.935-2.372-4.632-3.074-6.933-2.276-1.151.399-1.807 1.244-2.324 2.306-.329.674-.405 1.649-.83 2.236-.64.884-.68.786-2.008.63-1.69-.2-3.078-.85-4.68-1.302-1.745-.494-2.88.51-4.404 1.32-2.753 1.464-5.412 1.972-8.495 2.204-3.434.259-6.617-.57-10.017-.783.882 4.065 3.164 7.365 4.987 11.046.32.647.838 1.309.85 2.058.013.705-1.008 1.665-.893 2.249.246 1.245 2.986 2.242 4.023 2.593 2.936.99 6.279 2.93 9.51 2.15 1.771-.427 2.724-3.225 4.392-3.43 2.236-.278.563 2.603.147 3.594 3.175.483 7.198.074 10.236-1.003 1.523-.54 2.813-1.344 4.203-2.142 1.73-.994 2.09-1.268 2.852-3.174zm-55.546 60.498c-5.659.094-11.4-.72-17.072.028-1.314.173-2.61.452-3.902.75-.928.213-3.875.393-4.494 1.083-.564.63-.568 3.528-.684 4.345-.26 1.82-.19 2.448.97 3.854 3.815 4.629 7.788 9.119 11.548 13.799 3.611 4.495 6.575 9.518 10.226 13.95 1.95-5.678 2.066-12.49 2.601-18.443.285-3.174.545-6.35.79-9.528.231-3.026 1.02-6.953.017-9.838zm-73.245 59.83c.654 0 1.698.206 2.334 0 .875.28 1.167-.049.878-.984l.042-.981c.09-2.109.191-4.217.289-6.326.09-1.927.177-3.855.253-5.784.052-1.316.717-4.58.185-5.768-.357-.8-1.203-.618-2.233-.734-.98-.111-1.961-.214-2.935-.366-1.236-.193-2.606-.635-3.864-.358-1.263.278-2.182 1.445-3.173 2.188-1.57 1.174-3.172 2.304-4.755 3.46-2.876 2.101-5.723 4.24-8.575 6.374-1.178.88-1.404.575-.83 1.84.356.783 1.163 1.668 1.655 2.374.98 1.407 1.955 3.54 3.21 4.682 1.829 1.661 6.9.606 9.328.594 2.769-.013 5.438.03 8.19-.21zm7.166-.137c2.401-.235 4.827-.133 7.213-.456 2.594-.352 5.17-.872 7.758-1.262 2.582-.388 10.435-1.958 9.66-5.812-.82-4.075-6.831-6.515-10.158-7.885-5.195-2.139-10.619-3.284-16.083-4.494-.686 3.653-.587 7.574-.713 11.275-.068 2.01-.127 4.022-.126 6.034 0 .484-.166 1.49.031 1.94.465 1.059 1.005.66 2.418.66zm-7.896 1.75h-15.324c2.268 4.697 4.412 9.481 6.856 14.089 2.435 4.59 5.57 8.915 8.333 13.32.7-.761 1.816-1.588 2.292-2.494.527-1.003.512-2.479.598-3.64.224-3.013.326-6.053.402-9.073.066-2.645.183-5.273.386-7.911.044-.579.682-3.585.317-4.079-.326-.44-3.19-.207-3.86-.211zm63.111-92.212c2.586 0 5.174-.033 7.759.01 2.345.04 5.402-.368 7.55.84 4.378 2.461-4.373 8.782-6.147 10.373 2.869 1.04 7.347-1.024 10.156-1.97 3.473-1.17 7.015-1.955 10.558-2.871.885-.229 4.684-.677 5.164-1.355.476-.673-.59-4.733-.697-5.59-.1-.805-.016-2.06-.35-2.817.205-.91-.115-1.229-.959-.956-.292 0-.582-.002-.874-.003-2.156.017-4.313.117-6.467.189-7.404.246-14.628.575-21.969 1.731-3.413.537-6.855 1.199-10.25 1.858-2.858.555-2.377 1.021.292 1.028 2.087.006 4.157-.305 6.234-.467zm212.39-54.468l1.319-1.517-3.216-.919c-1.14-.325-1.753-.25-1.246-1.525.635-1.596 3.535-1.779 4.928-1.839 4.799-.207 9.84 1.32 14.398 2.665 2.224.657 3.967 1.673 5.85 3.025.82.59 1.77 1.144 2.488 1.853.747.736 1.058 1.68 1.789 2.419 1.198 1.21 2.73 1.813 3.318 3.561.674 2.006-.13 4.303-1.128 6.052-1.012 1.775-2.516 3.118-3.737 4.73-.97 1.28-2.994 4.778.17 4.372 1.672-.214 3.841-3.068 5.045-4.205 1.725-1.63 3.423-3.298 5.25-4.816 1.62-1.347 3.487-2.727 5.654-2.964 2.284-.25 3.424 1.213 4.538 2.991 1.05 1.678 1.218 3.315 1.956 5.032.356.827.81 1.289 1.02 2.191.321 1.388.355 2.902.519 4.317.258 2.222.5 3.969.07 6.146-.402 2.038-.512 4.202-.852 6.275-.384 2.348-.704 4.707-1.083 7.055-.32 1.99-1.542 4.824-.344 6.674 2.877 4.447 6.329-2.099 7.237-4.544 1.598-4.297 2.411-8.995 3.821-13.38.755-2.346 1.414-4.713 1.847-7.141.358-2.008.181-4.454 1.281-6.243.855-1.39 2.376-2.444 4.045-2.02 2.089.53 2.891 3.55 3.506 5.387 1.621 4.842 1.025 9.203.364 14.142-.305 2.286-.597 4.576-1.122 6.825-.354 1.517-1.821 4.588.36 5.412 3.092 1.17 6.37-7.704 7.251-9.709 2.307-5.249 3.191-10.454 4.142-16.079.218-1.293.385-2.614.712-3.885.285-1.106 1.134-2.224 1.21-3.33.077-1.108-.656-1.88.095-2.967.625-.905 1.754-.96 2.774-.968 2.396-.018 4.688 1.034 6.917 1.798 2.075.71 5.144 2.27 7.38 1.767-7.018-7.127-14.017-14.174-22.386-19.725-3.887-2.578-7.776-5.055-11.976-7.157-4.255-2.13-9.131-3.568-13.688-4.856-2.478-.701-4.943-1.495-7.39-2.3-2.179-.715-4.372-.85-6.505-1.663-4.635-1.763-9.814-2.447-14.613-3.697-2.119-.552-4.261-1.025-6.385-1.536-2.233-.538-5.369-1.47-7.643-1.38-1.943.077-2.598 2.304-3.533 3.853-1.356 2.249-2.513 4.585-3.58 6.984-2.185 4.914-4.492 9.991-6.055 15.125-.858 2.82-1.705 5.642-2.549 8.465-.729 2.444-2.554 5.97-2.069 8.479 3.594-5.541 6.94-11.296 9.845-17.23zm-167.324 50.033l-5.72.26c1.9 6.251 1.635 12.908 1.635 19.388 8.885-1.048 17.841-1.226 26.779-1.154-1.642-3.17-1.006-7.28-.538-10.674.274-1.986.427-3.9.387-5.904-.038-1.88.504-3.46-1.487-4.041-1.58-.461-2.578.307-4.082.657-1.802.42-3.765.47-5.6.699-3.819.475-7.501.753-11.374.77zm-51.198 12.175c5.726-1.59 11.811-1.004 17.566-2.212-1.31-1.195-3.775-.487-5.513-.387-1.977.112-3.951.195-5.927.29-1.928.095-7.274-.051-7.97 2.402.615-.03 1.23-.062 1.844-.093zm209.512-88.585c-7.493.657-15.34.555-22.778 1.863-8.52 1.498-17.4 2.438-25.66 5.077-8.102 2.59-16.365 4.403-24.353 7.444-7.764 2.956-15.243 6.101-22.555 10.055a148.699 148.699 0 0 0-10.473 6.209c-3.331 2.17-6.98 3.949-10.208 6.248-2.873 2.048-5.352 3.926-7.857 6.434-2.678 2.682-5.283 5.437-7.964 8.114-2.237 2.234-.82 7.696-.679 10.669.197 4.121.536 8.185 1.041 12.28.48 3.9.976 8.094.34 11.988-.266 1.637-1.187 4.464-.747 6.098.351 1.308 2.684 2.268 3.874 2.694 1.456.522 2.943.302 4.436.966 1.669.742 3.075 1.666 4.847 2.056 2.183.481 4.639.885 6.883.9 2.075.013 4.157.686 6.226 1.1 3.366.674 6.652.885 6.442 4.945-.242 4.686-2.1 8.707-3.207 13.155 1.497 0 2.54.095 3.91-.436 1.6-.619 3.306-.784 4.987-1.05 3.714-.592 7.335-.781 11.073-1.158 6.848-.692 13.815-.609 20.668-.536 3.47.037 7.234.305 10.656.845 3.511.555 7.147.901 10.55 1.965 2.87.897 5.833 1.508 8.76 2.301 1.32.357 2.901.647 4.148 1.046 1.806.58 2.772 1.815 4.858 1.787-.587-3.866-1.966-7.451-2.798-11.285-.868-4.003-2.6-7.545-4.513-11.321-.853-1.685-1.484-3.472-2.307-5.171-.914-1.89-2.2-3.455-3.304-5.222-2.26-3.615-4.672-7.091-6.891-10.731-1.938-3.178-4.152-6.225-6.273-9.292-2.332-3.373-5.573-5.918-8.22-9.012-1.117-1.307-2.18-2.522-3.432-3.721-1.153-1.105-2.788-3.549-4.553-3.663-1.014-.066-2.771.505-3.74.81-1.79.568-3.69.938-5.54 1.437-2.023.547-4.012 1.259-6.04 1.778-.81.208-1.774.11-2.543.344-.805.247-1.447.79-2.326 1.039-4.34 1.231-8.654 2.63-13.025 3.75-4.501 1.155-9.07 2.138-13.433 3.773-.832.313-1.757 1.05-2.396.565-.477-.361-.784-1.383-.659-1.98.419-1.986 3.594-2.703 5.123-3.5 4.096-2.137 8.166-3.644 12.57-5.095 2.168-.714 4.329-1.476 6.528-2.093 1.838-.515 3.751-1.386 5.63-1.65 1.672-.235 2.86-.893 4.519-1.477 2.444-.86 4.958-1.565 7.442-2.299 4.246-1.255 8.746-1.782 13.09-2.624 10.064-1.95 20.513-2.926 30.783-2.805 5.177.06 10.593-.09 15.71.761 1.234.206 3.827.166 4.678 1.274.457.595.21 1.48.327 2.124.198 1.087.79 1.594 1.305 2.585a271.657 271.657 0 0 1 3.758-15.894c1.275-4.781 2.455-9.65 4.16-14.365 1.803-4.988 3.989-10.277 6.684-14.842.555-.94 1.938-2.433 2.057-3.484.123-1.084-1.396-1.925-2.44-2.045-2.342-.271-4.85.192-7.15.272zm50.334 76.617c.762-7.438 2.99-15.219 1.746-22.686-.527-3.162-.939-6.18-2.52-9.033-.799-1.443-1.119-2.503-2.645-1.652-1.544.861-2.966 2.989-4.246 4.222-2.353 2.266-4.818 4.6-7.636 6.283-2.22 1.325-6.628 2.582-8.296-.285-1.59-2.733.53-6.546 2.053-8.8 1.742-2.579 5.041-4.967 3.19-8.15-.797-1.369-1.944-1.728-3.15-2.626-1.043-.778-1.917-1.786-2.96-2.578-3.025-2.295-6.341-3.278-9.833-4.59-1.612-.605-1.824-1.175-2.755.21-1.011 1.504-1.565 3.612-2.297 5.275-1.464 3.333-3.026 6.49-4.915 9.597-1.905 3.135-3.594 6.411-5.396 9.609-.68 1.206-1.318 2.432-2.122 3.565-.437.616-.979 1.165-1.334 1.84-.526.997-.292 1.906-.619 2.9-1.412 4.283-3.472-1.697-3.866-3.096-.448-1.59-1.527-2.83-2.227-4.313-.578-1.226-.972-3.046-2.368-3.623-1.143-.472-2.617.176-3.783.239-2.144.116-4.303-.057-6.457.077-2.013.125-4.021.318-6.034.442-2.015.123-4.027-.217-6.015-.005-3.567.38-7.214.32-10.774.847-4.177.618-8.311 1.278-12.5 1.792.973 1.842 2.991 2.64 4.586 3.954 1.426 1.175 2.555 2.53 3.991 3.647 1.457 1.134 2.323 2.811 3.529 4.174 1.182 1.335 2.276 2.454 3.311 3.947 4.997 7.21 10.15 14.155 14.272 21.95 2.086 3.944 4.078 8.164 5.503 12.396 1.529 4.54 2.279 9.407 3.187 14.1.452 2.34.69 4.314.194 6.667-.13.56-.266 1.12-.407 1.677-.434.667-.274 1.1.483 1.299.443.645 1.047.887 1.086 1.77.03.67-.344 1.447-.921 1.826-1.114.73-1.114-.256-2.263-.038l-1.292.699a33.011 33.011 0 0 0-.7-1.026c-.733-.696-1.316-.633-2.273-.802.487 5.604-.289 10.607-1.522 16.074-.593 2.629-1.61 5.202-2.122 7.835-.573 2.942.678 4.282 2.613 6.244-.491.256-1.351.535-1.756.918-.645.61-.48.686-.48 1.642.001 1.75-.335 3.475-.61 5.196-.508 3.187-.973 6.485-2.07 9.537-1.992 5.543-5.213 11.3-8.494 16.182-1.836 2.732-3.677 5.836-5.978 8.194-2.31 2.365-4.6 4.752-6.904 7.125-4.535 4.671-9.491 7.898-14.924 11.395-2.152 1.385-4.418 2.903-6.269 4.627-1.88 1.753-4.381 2.98-6.63 4.252-1.002.568-1.716 1.384-2.798 1.85-1.017.437-1.728.58-2.581 1.154-2.117 1.424-4.403 2.641-6.733 3.715-2.843 1.31-5.64 2.833-8.56 3.95a61.701 61.701 0 0 0-3.869 1.66c-1.394.645-2.898 1.068-4.328 1.755-1.209.58-2.432.917-3.662 1.391-1.005.388-1.793 1.015-2.818 1.42-2.127.84-4.063 1.293-6.13 2.284-2.746 1.317-6 1.931-8.894 2.879-3.23 1.059-6.58 2.112-9.895 2.862-1.41.32-2.612.737-3.974 1.22-.887.316-1.905.488-2.888.788-2.717.828-5.432 1.627-8.163 2.331-5.337 1.377-10.788 3.03-15.963 4.9a88.364 88.364 0 0 0-8.069 3.407c-2.942 1.41-6.113 2.224-9.066 3.62a798.162 798.162 0 0 0-17.03 8.303 222.095 222.095 0 0 0-8.773 4.636c-1.05.586-2.196.828-3.239 1.404-1.363.753-2.482 1.857-3.878 2.603-5.381 2.876-10.873 5.584-15.816 9.222-2.587 1.904-5.366 3.854-7.602 6.172-.737.765-2.016 1.95-2.15 3.059-.196 1.642-.012.131.557 1.144.787.095.964.398.535.907a.967.967 0 0 1-.76.365c-.995.201-2.854-.852-3.653-1.293-1.384-.763-2.119-1.728-3.008-3.01-1.93-2.779-3.815-5.584-5.803-8.324-1.789-2.465-3.54-5.179-5.574-7.442-1.38-1.534-1.483-.864-3.018.001-1.142.643-2.468.918-3.651 1.524-4.509 2.31-9.465 4.017-14.09 5.627-1.052.367-1.614.949-2.54 1.455-1.178.645-2.671.961-3.932 1.42a581.075 581.075 0 0 0-10.376 3.903c-2.662 1.027-5.22 1.836-7.305 3.73-.83.755-1.833 1.295-2.69 2.058-.997.887-2.346 2.33-3.601 2.833l-.765.597c-.518-.36-1.036-.72-1.555-1.078-.514-.356-1.029-.711-1.542-1.069-1.29-.896-2.57-1.806-3.852-2.714-2.907-2.061-5.833-4.102-8.537-6.43-4.803-4.131-9.788-8.042-14.81-11.912-5.272-4.062-10.411-8.313-15.864-12.13-4.942-3.461-10.333-6.384-15.125-10.036-2.412-1.839-4.818-3.689-7.28-5.47-.134-.096-2.138-1.326-2.16-1.463-.032-.251.627-.907.822-1.119.921-1.002 1.942-1.894 2.86-2.907 4.28-4.72 9.867-4.556 15.772-4.78 2.678-.1 5.582 1.135 8.125 1.976 3.11 1.029 6.11 2.538 9.115 3.842 6.19 2.686 12.58 4.982 18.834 7.47 2.46.978 4.909 1.456 7.409 2.128 2.536.683 5.15.032 7.862.08 1.408.026 2.74.108 4.157.028.842-.047 1.812-.207 2.643-.192.674.012 1.373.29 1.993.22 2.714-.309 5.58-.74 8.38-1.093 2.778-.35 5.646-.525 8.389-1.073a29.934 29.934 0 0 0 4.072-1.135c1.153-.407 3.25-.869 4.195-1.693.847-.737.477-.747.005-1.95-.187-.474-.38-1.195-.657-1.653-.749-1.238-1.472-1.627-1.036-3.175.767-2.73 3.382-4.472 5.62-5.816 5.044-3.027 9.657-6.91 14.967-9.478 10.943-5.291 20.915-12.165 31.586-17.975 11.73-6.387 22.826-13.882 34.719-20 11.07-5.693 22.09-11.42 33.252-16.935 5.45-2.692 11.615-5.156 16.56-8.685-2.74-.34-5.488-.78-8.237-1.023-1.275-.113-2.566-.009-3.834-.211-1.418-.227-2.76-.801-4.175-1.04-2.434-.41-4.622-1.245-7.058-1.553-2.612-.33-5.17-1.098-7.794-1.313-5.49-.45-10.444-2.476-15.256-5.028-1.191-.632-2.17-.27-3.311-.7-.629-.237-1.297-1.182-2.003-1.689-1.945-1.397-3.615-3.047-5.463-4.573-3.886 8.725-11.518 14.66-18.8 20.513-3.688 2.964-7.692 5.477-11.419 8.385-2.888 2.255-5.512 4.273-8.596 6.066-2.961 1.721-5.743 4.045-8.566 6.112-1.914 1.402-4.157 2.46-6.192 3.676-1.662.994-4.908 2.476-5.362 4.28-.37 1.472.353 3.225-1.894 2.548-2.012-.606-3.471-2.84-4.643-4.415-3.03-4.073-5.858-8.284-8.672-12.508-1.511 2.952-4.118 5.077-6.528 7.265a62.949 62.949 0 0 1-4.565 3.75c-.767.576-1.543 1.14-2.311 1.714-.303.227-.989.576-1.185.895-.458.748-.18.409-.108 1.313.111 1.415.583 2.529-.218 3.885-.752 1.274-2.391 1.817-3.54 2.687-2.734 2.07-5.61 4.27-8.643 5.887-.688.367-1.34.685-1.98 1.134-1.07.749-.875 1.02-1.954.303-1.687-1.124-3.144-2.989-4.666-4.344a464.501 464.501 0 0 0-9.68-8.39c-6.225-5.241-12.634-10.221-18.781-15.556-5.842-5.069-12.104-9.433-18.135-14.252a387.66 387.66 0 0 1-4.922-4.02c-1.453-1.2-3.812-2.523-4.888-4.06-1.561-2.23 4.547-5.28 6.39-5.734 3.179-.783 7.288-.335 10.471.307 3.341.672 6.744 2.924 9.864 4.326 3.516 1.58 7.098 2.946 10.64 4.438 1.58.665 3.256 1.196 4.722 2.092 1.557.951 2.946 2.035 4.6 2.833 1.908.918 3.89 1.775 5.895 2.454.909.308 1.887.617 2.842.741 1.352.176 1.17-.447 2.292-.795.955-.296 1.182.486 2.04.703.808.205 1.412-.002 2.112-.437 1.56-.969 2.95-2.305 4.51-3.314 1.448-.936 3.044-1.81 4.401-2.87.605-.473 1.053-1.12 1.649-1.6.956-.77 1.335-.464 2.45-.993.912-.434 1.74-1.24 2.608-1.775.538-.332 1.845-.75 2.192-1.287.913-1.41-.645-2.39-2.04-1.974-.209-1.217-1.282-4.107-.819-5.248.41-1.01 1.487-.821 2.392-1.355 3.402-2.01 5.913-5.661 9.096-8.022 3-2.226 5.648-4.884 8.62-7.15 2.547-1.942 5.33-3.839 7.649-5.933 2.741-2.476 6.25-4.402 9.231-6.612 3.08-2.283 5.94-4.823 8.987-7.132 2.93-2.22 5.809-4.54 8.82-6.655 2.707-1.9 5.544-3.636 8.194-5.563 1.452-1.055 3.04-1.982 4.697-2.675 1.648-.689 3.09-1.497 4.698-2.239 3.198-1.475 7.362-2.494 10.84-2.916 3.823-.464 7.662-.881 11.521-.885 2.056-.001 4.053.39 6.097.515 1.877.113 3.908.588 5.772.526.844-.028 1.578-.386 2.395-.27.683.096 1.277.508 2.01.58 1.63.16 3.27 0 4.918.211 3.789.484 7.582 1.175 11.378 1.56 4.044.409 8.054.486 12.077 1.177 3.932.674 7.888 1.372 11.797 2.152 8.307 1.656 16.7 3.274 24.877 5.733 1.91.575 3.833 1.122 5.67 1.91.892.382 1.748.846 2.678 1.132 1.332.409 1.594.564 2.28-.553 1.18-1.924 1.831-4.469 2.688-6.561.847-2.072 1.876-4.159 2.368-6.322-1.43-.226-3.231.214-4.705.264-1.802.062-3.585.023-5.385.012-3.629-.022-6.466-1.094-9.9-2.22-2.893-.948-6.746-1.493-8.953-3.666-1.184-1.165-1.577-1.37-3.356-1.161-1.795.21-3.568.573-5.38.634-6.83.226-13.627 1.418-20.488 1.654-1.856.064-6.497.944-6.193-2.205.063-.654.563-1.22.661-1.894.104-.721-.076-1.453-.189-2.158-.268-1.668-.549-3.335-.816-5.003-6.256 2.008-12.59 3.636-18.965 5.227-2.644.66-6.89 2.176-9.622 1.345-2.641-.805-1.112-4.527-.29-6.309-5.246 1.198-10.842 3.158-16.193 3.607-1.628.137-3.212.498-3.59-1.47-.303-1.57.83-3.488 1.407-4.866-4.106-.367-8.357-.332-7.585-5.597.708-4.831 4.72-5.793 8.991-6.675 5.272-1.09 10.655-1.454 15.961-2.336 4.617-.768 9.654-1.623 14.369-1.236 2.496.205 5.007.252 7.502.483 1.177.109 2.309.291 3.448.613 1.051.295 2.522 1.213 3.599 1.23 1.626.025 3.586-2.175 5.335-2.683 2.167-.63 4.501-.745 6.74-.9 2.536-.173 5.077-.27 7.612-.476.578-.047 2.763.096 3.22-.242.664-.494.222-3.025.175-4.065-.043-.962.142-2.763-.524-3.14-.626-.354-2.45.131-3.066.23-2.553.41-4.98.362-7.523.258-1.175-.048-2.304.266-3.467.111-1.249-.165-2.505-.585-3.749-.819-2.693-.506-5.146-1.136-7.467-2.646-2.037-1.324-4.448-2.221-5.587-4.541-.833-1.7-1.172-4.978 1.28-5.461-1.67-2.41-2.823-5.116-3.708-7.9-.16-.505-.267-1.265-.507-1.705-.847-1.557-.06-.176-1.27-.799-1.195-.615-2.057-1.101-2.99-2.17-1.49-1.706-2.116-3.805-2.304-6.027-.256-3.018-.733-6.42-.292-9.423.762-5.2 4.562-9.108 8.422-12.254 2.096-1.708 4.856-2.344 7.314-3.38 2.373-1 5.023-2.05 7.523-2.284 2.257-.212 4.457-.95 6.716-1.247 3.104-.409 6.213-.256 9.333-.38 1.436-.058 2.868-.26 4.298-.415.807-.087 2.172.006 2.911-.314 1.21-.524.557.577.989-1.027.822-3.052 1.493-5.914 2.738-8.88 1.16-2.762 2.57-5.404 4.432-7.766 1.746-2.215 4.011-3.836 6.069-5.728 1.524-1.403 3.254-2.67 4.993-3.803.994-.648 2.102-.999 3.073-1.571 1.207-.71 2.271-1.249 3.628-1.683 2.913-.933 5.803-1.924 8.897-1.875 3.334.052 6.678-.724 9.924.26 6.029 1.829 8.982 8.365 8.881 14.368 2.062-.515 3.865-1.506 6.049-1.59a30.18 30.18 0 0 1 6.378.47c3.835.725 7.779 2.858 10.066 6.09 2.18 3.083 2.507 7.176 1.167 10.673-.642 1.674-1.66 3.164-2.744 4.578-.794 1.038-2.567 2.186-2.651 3.576 14.844-4.49 29.748-7.653 45.103-9.701 7.784-1.038 15.58-.519 23.373-1.112 3.328-.253 6.945.101 10.386.115 1.453.006 2.583-.197 3.636-1.137 1.067-.952 1.919-2.117 3.162-.744.317.35.384 1.199.81 1.463.518.32 2.022.1 2.641.138 2.164.132 4.276.5 6.4.922 3.899.777 7.772 1.561 11.623 2.547 7.334 1.877 14.571 3.692 21.799 5.92 7.375 2.273 14.829 5.078 21.629 8.758 3.294 1.782 6.584 4.007 9.612 6.212a31.653 31.653 0 0 1 3.894 3.371c1.31 1.322 2.91 2.214 4.207 3.545 2.82 2.897 5.629 5.97 8.188 9.107 1.336 1.639 2.56 3.367 3.75 5.113.835 1.225 3.035 3.468 2.529 5.05-.27.846-1.214 1.437-2.078 1.23-.288-.069-.528-.444-.774-.48-.835-.118-.076-.411-1.05-.016-1.934.785-2.551 2.36-5.01 2.002-4.178-.61-8.108-2.584-11.908-4.305-1.085 4.15-1.239 8.454-2.19 12.655-.926 4.099-2.47 8.007-4.336 11.767-1.636 3.298-3.737 6.813-6.633 9.17-2.21 1.799-7.664 4.033-9.287.204-.69-1.627.336-4.154.626-5.828.39-2.246.82-4.498 1.055-6.767.19-1.844.286-3.698.463-5.543.154-1.588.577-4.996-.315-6.398-.538-.845-.585-.016-.897.828a32.893 32.893 0 0 0-.973 3.09c-.59 2.24-1.122 4.494-1.68 6.74-.998 4.015-2.097 7.94-4.175 11.55-1.846 3.205-4.444 6.722-8.393 7.247-1.848.245-4.258-.6-5.669-1.846-1.583-1.398-1.11-3.703-1.097-5.603zM374.953 393.573c2.17-.428 3.996-2.16 5.768-3.462 2.26-1.66 4.405-3.47 6.599-5.213 4.135-3.286 7.887-6.89 11.455-10.81 7.04-7.732 12.34-17.685 14.749-27.855 1.219-5.145 2.726-11.174 2.034-16.492-.24-1.847-.607-2.186-2.417-2.396-.818-.095-2.893-.33-3.63-.008-1.908.834-2.938 4.383-3.503 6.167-1.672 5.266-2.656 10.72-4.166 16.03-1.48 5.204-3.867 10.485-6.226 15.352-5.25 10.828-12.548 19.887-20.663 28.687m43.043-59.784c-1.297 14.745-5.39 28.794-14.565 40.669-4.362 5.644-9.49 10.555-15.05 15.016-5.74 4.606-11.603 8.944-18.116 12.38a241.946 241.946 0 0 1-5.224 2.697c-.973.484-3.428 2.265-4.55 1.983-.9-.226-1.134-.922-1.274-1.827-.315-2.031 1.005-3.046 2.339-4.35 5.359-5.242 10.735-10.502 15.746-16.078 9.896-11.012 17.33-24.199 21.462-38.427 1.273-4.381 2.409-8.81 3.783-13.16.837-2.65 2.023-7.368 4.805-8.69 1.49-.708 3.229-.018 4.797-.443 1.471-.398 2.446-1.21 3.7.152 2.2 2.391 2.297 7.081 2.147 10.078M25.95 418.869c-1.099.39-1.144.775-1.647-.355-.254-.57-.185-1.35-.126-1.943.143-1.417.89-2.727 1.502-3.985 5.77 4.762 11.761 9.053 17.948 13.26 6.616 4.499 12.934 9.5 19.191 14.484 5.604 4.464 11.275 8.795 16.82 13.314 2.675 2.18 5.724 3.868 8.266 6.115 2.055 1.815 5.462 2.628 7.213 4.764-2.775 1.659-6.48 2.995-9.556 1.56-3.393-1.584-5.996-3.648-9.015-5.794-1.556-1.106-3.174-2.11-4.754-3.18-1.39-.941-2.37-2.315-3.777-3.197-2.956-1.855-5.988-3.9-8.793-6.018-2.88-2.176-6.065-3.907-8.845-6.219-2.85-2.37-6.038-3.941-9.014-6.1-6.305-4.573-11.856-9.718-15.413-16.706M196.058 175.998l-.235 1.263c.048.011 3.82-7.28 4.445-8.16 2.12-2.986 4.88-5.47 7.539-7.963 5.634-5.281 12.227-9.544 17.748-14.92 1.817-1.768 5.071-4.447 4.353-7.437-.714-2.972-6.742-2.368-8.807-1.508-3.236 1.348-5.865 4.168-8.276 6.625-2.631 2.68-5.283 5.331-7.512 8.365-2.404 3.27-4.686 6.814-6.16 10.61-1.65 4.253-2.294 8.654-3.095 13.125m1.239 13.047c-2.56.79.65 1.323-.354 2.692-1.1 1.5-2.948-3.123-3.225-3.997-1.63-5.158-.9-11.425-.01-16.662.449-2.642.739-5.327 1.345-7.94.591-2.55 1.88-4.971 3.069-7.29 2.381-4.637 5.535-8.959 9.115-12.74 3.59-3.795 7.591-7.591 12.329-9.927 3.914-1.93 10.118-.59 11.95 3.623 1.873 4.306-.66 8.997-3.653 12.024-3.906 3.949-8.162 7.87-12.55 11.276-2.254 1.75-4.144 3.866-6.335 5.692-2.331 1.944-4.348 3.9-6.072 6.414-1.67 2.436-3.388 4.87-4.473 7.635-1.188 3.028-1.136 5.996-1.136 9.2"/>
            <path d="M94.894 374.736c-5.883-3.79-11.786-7.118-16.91-11.95-5.058-4.773-9.477-10.154-15.107-14.294-2.809-2.066-5.708-4.005-8.467-6.138-2.62-2.025-5.63-3.76-7.996-6.069-3.155-3.079-9.062-8.8-5.031-13.391 5.003 5.952 11.867 10.644 18.125 15.163 6.599 4.765 12.655 10.324 18.915 15.515 6.03 5.001 12.038 10.048 17.922 15.181 1.545 1.349 3.035 2.765 4.598 4.092.192.162 1.812 1.189 1.812 1.462 0 .656-1.256 1.065-1.703 1.247-.706.288-2.617 1.004-3.417.762-.42-.127-.428-.47-.73-.672a6.053 6.053 0 0 0-.608-.929c-.468.008-.936.015-1.403.02M441.229 308.658c-4.194-.108-10.578-.12-10.343 5.61.117 2.836 1.654 4.92 2.917 7.346 1.326 2.55 2.31 5.184 2.699 8.043 1.574 11.57-2.65 22.872-6.47 33.567 8.205-6.625 14.13-15.845 17.242-25.95 1.509-4.9 2.096-11.2 1.608-16.302-.243-2.553-1.185-4.842-2.318-7.117-.57-1.143-1.139-2.448-2.046-3.373-.91-.927-2.17-1.235-3.29-1.824M426.6 369.851c-2.71-4.457 1.557-11.02 2.951-15.367 1.668-5.196 3.206-10.606 3.919-16.026.747-5.677-.217-10.091-2.847-15.106-2.353-4.483-3.749-10.453-1.134-15.196 1.053-1.91 2.608-2.144 4.457-2.906 2.268-.934 2.893-2.514 5.678-2.264 4.968.446 7.266 5.16 9.114 9.176 4.31 9.362 3.138 21.445-.537 30.846-2.115 5.41-4.527 11.026-8.119 15.632-1.76 2.259-3.83 4.217-5.978 6.101-2.323 2.038-4.405 4.494-7.504 5.11M142.903 207.304c-6.55 1.317-12.526 4.27-13.576 11.634-.953 6.692 3.603 12.883 9.199 16.016 6.051 3.389 13.634 3.952 19.664.196 6.348-3.954 7.788-11.878 3.924-18.094-4.31-6.937-11.533-8.985-19.211-9.752m4.209-3.21c7.799 1.143 15.039 6.696 17.666 14.174 2.708 7.71.22 16.186-6.95 20.41-14.492 8.537-33.86-5.69-30.362-22.044.888-4.152 3.41-7.368 6.836-9.799 3.782-2.684 8.356-2.757 12.81-2.741M424.404 125.805l-28.192-12.752c-.385 4.261-.77 8.522-1.157 12.784-.104 1.153-.53 2.722-.349 3.86.195 1.214-.22 1.085 1.362.912 2.023-.221 4.053-.721 6.056-1.079 3.6-.643 7.43-.826 10.954-1.772 1.798-.482 3.52-.543 5.346-.835 2.005-.32 3.956-.914 5.98-1.118m-31.788 8.238c0-4.8.533-9.536.972-14.314.395-4.3.547-8.397 1.95-12.493 1.31 2.38 4.939 3.332 7.184 4.557 3.094 1.688 6.389 2.931 9.556 4.469 3.11 1.51 6.106 3.244 9.22 4.75 1.58.765 3.182 1.478 4.758 2.248.987.482 3.327 1.258 3.94 2.153 1.864 2.718-4.514 2.98-5.745 3.22-3.691.72-7.426 1.126-11.11 1.867a559.916 559.916 0 0 1-10.325 1.959c-3.412.62-6.928 1.584-10.4 1.584M102.855 252.884c3.7-.385 7.385-.94 11.08-1.305 3.5-.347 6.597-.715 9.794-2.32a470.474 470.474 0 0 0-13.147-3.754c-2.184-.59-4.364-1.215-6.558-1.766-1.697-.427-3.177-.673-3.83-2.526-.758-2.158 1.353-1.83 2.67-1.282 1.815.755 3.793 1.225 5.674 1.854 4.2 1.402 8.425 2.693 12.664 3.968 1.318.396 8.954 1.863 6.202 4.411-1.177 1.091-3.804 1.69-5.244 2.473-1.846 1.005-3.856 1.406-5.91 1.805-4.281.834-8.724 1.154-13.058 1.876l-6.638 1.108c-1.297.216-1.796.195-2.135-1.252-.246-1.05.075-2.102.312-3.12.6-2.587 1.268-5.16 1.929-7.732.25-.981.696-5.294 1.57-5.766 1.985-1.07.454 4.9.307 5.632-.557 2.757-1.219 5.496-1.516 8.295 1.949-.176 3.892-.36 5.834-.599M155.318 274.841c.734 1.844-.485 2.257-1.964 2.896-1.92.829-3.807 1.703-5.76 2.45-4.111 1.569-8.251 3.026-12.264 4.842-7.652 3.463-15.409 6.787-22.943 10.495-1.872.921-3.745 1.84-5.634 2.727-1.954.918-4.194 2.462-6.284 2.987-1.823.457-2.013-.841-.933-2.037 1.393-1.543 3.546-2.695 5.295-3.767 7.198-4.414 15.053-8.007 22.915-11.043 9.087-3.51 18.199-6.878 27.572-9.55M175.299 170.21c-.263-5.608.486-11.23.04-16.823-7.686 6.816-3.9 17.35.522 24.746l-.562-7.923zm3.327-.32c.049 2.739.204 5.476-.062 8.202-.28 2.86 1.062 4.334 2.81 6.441-1.485 1.508-4.892-2.007-5.833-3.044-1.937-2.133-3.378-4.968-4.661-7.53-2.732-5.459-4.614-11.302-2.427-17.295.81-2.22 1.802-5.24 3.948-6.534 2.357-1.42 4.16.583 5.137 2.643 2.387 5.026.567 11.722 1.088 17.116zM260.048 448.63c3.543.28 7.034.557 10.579.782l-1.836-14.582c-2.05.476-4.1.95-6.151 1.425-.97.224-2.456.283-3.314.767l-.963.223c-.009.63-.016 1.262-.022 1.893a196.229 196.229 0 0 1-.155 5.596c-.032.781-.305 1.926-.118 2.7-.332.783-.12 1.116.635.998l1.345.197m-2.44 3.514c-2.778-1.384-2.019-5.612-2.014-8.303.003-1.712.124-3.413.169-5.123.03-1.176-.238-2.63.166-3.765.72-2.02 4.237-1.965 6.046-1.824 1.342.105 2.464.037 3.84-.051.677-.044 1.433.086 2.099-.115.144-.043 1.498-.988 1.438-.99 2.43.093 2.463 5.921 2.62 7.4.39 3.646.743 7.299 1.06 10.952.085.967.444 2.06-.474 2.611-.828.498-3.022.006-3.938-.022-3.691-.111-7.362-.687-11.012-.77M431.017 235.554c1.606 1.446.835 2.938.309 4.745-.316 1.084-2.054 4.643-1.575 5.657.555 1.173 3.158 1.461 4.271 1.832 1.939.644 3.886 1.292 5.721 2.201.814.404 3.75 1.332 4.301 2.085.316.432.43.77.193 1.327-.416.977-1.01.46-2.024.25-4.637-.958-9.235-2.184-13.535-4.205-1.199 2.784-2.214 5.627-3.228 8.484-.297.837-.581 2.739-1.71 2.875-1.377.164-1.396-1.68-1.304-2.676.133-1.453.886-3.003 1.34-4.379.375-1.136 1.69-3.5 1.528-4.671-.11-.806-.601-.75-1.476-1.066-.827-.299-1.653-.596-2.48-.898-1.324-.485-2.642-.971-3.931-1.546-.707-.316-2.187-.684-2.7-1.34-.296-.379-.627-1.747-.252-2.125.876-.887 6.707 1.5 7.906 1.826.796.216 1.595.381 2.367.665.292.108.638.546.954.562 1.341.068 1.448-.964 1.863-2.07.967-2.573 2.016-5.197 3.462-7.533M96.708 286.727c-.716-1.754 6.874-3.872 8.283-4.463 3.439-1.44 7.123-2.311 10.684-3.411a224.697 224.697 0 0 0 10.43-3.498c1.066-.387 8.735-4.123 9.136-3.577 1.33 1.808-14.764 7.485-16.332 8.05-7.282 2.623-14.8 4.637-22.201 6.899M423.14 149.587c-1.967.02-4.804.578-6.61-.22l6.61.22"/>
            <path d="M147.112 204.094l-4.375-.016c1.46-.339 2.919-.543 4.375.016M374.923 202.925l3.088-.017-3.088.017M465.11 229.656c-.007 1.104-.014 2.208-.024 3.307.007-1.105.016-2.206.025-3.307M261.975 433.128l-3.285.237 3.285-.237M268.149 222.744l-3.337.27 3.337-.27M224.864 224.898l-2.935.264 2.935-.264M268.081 155.026l-2.936.017c.976-.517 1.955-.384 2.936-.017M89.454 324.35c-.814-.043-1.477.353-1.937-.424.752-.586 1.185.09 1.937.425M240.442 258.97l-2.54-.286 2.54.286zM257.608 452.143l1.677.038-1.677-.038M387.993 151.185l-2.624.236c.875-.08 1.75-.157 2.624-.236M110.791 416.644c-.84.004-1.68.008-2.52.01l2.52-.01M43.257 401.745l-2.543.005 2.543-.005M257.542 223.444l-2.583.254 2.583-.254M233.52 224.841l-2.54-.293c.84.164 1.771-.484 2.54.293M310.237 258.858c.527-.06 1.267-.245 1.81-.159-.07.311-1.608.158-1.81.159M256.504 325.334c.568.011 1.137.022 1.7.031l-1.7-.03M205.18 257.633c-.83.08-1.659.161-2.489.24l2.49-.24M112.27 254.804l1.35.037-1.35-.037M234.57 258.258l-2.13-.042 2.13.042M102.855 252.884l-2.152.265 2.152-.265M235.086 321.345l1.344-.09-1.344.09M269.505 262.961l-2.17-.27 2.17.27M94.894 374.736l1.403-.02-1.403.02M56.334 316.353l-2.245-.226 2.245.226M40.371 401.847l-2.206.255 2.206-.255M115.185 416.009l-2.218.255 2.218-.255M107.928 416.743c-.749.523-1.497.552-2.246.002l2.246-.002M93.735 417.368l-2.176.002 2.176-.002M257.897 155.5l-2.187.27 2.187-.27M260.482 155.16c-.741.082-1.483.166-2.223.25.74-.084 1.482-.168 2.223-.25M145.363 241.02l1.363-.02-1.363.02M211.397 233.884c2.421-.399 4.841-.532 7.26-.001l-7.26.001zM275.949 206.647c.503-1.316.629-1.81 1.859-2.492-.512 1.28-.593 1.964-1.86 2.492M334.97 336.92c.05 1.37.097 2.738.146 4.105l-.146-4.104M422.745 152.748l-3.28.075 3.28-.075M276.886 361.245l.114 3.422-.114-3.422M142.714 324.691l3.318.024-3.318-.024M236.726 266.085c-.667.007-1.333.013-1.992.021l1.992-.02M234.555 229.818l-1.639-.054 1.639.054M156.182 324.346l2.594-.254-2.594.254M146.384 324.713l2.632-.23-2.632.23M149.583 326.105l-1.303-.008 1.303.008M334.588 306.496l.195-1.927-.195 1.927M203.614 241.482l1.651.141-1.843.095c.003-.127.067-.205.192-.236M344.963 349.658l-.105-1.754.105 1.754M213.49 239.248l-1.32.025 1.32-.025M375.173 313.183l2.209.259-2.209-.259M222.26 264.653c-.453.007-.905.013-1.353.021.455-.006.904-.014 1.354-.021M196.058 175.998c.475.254.229 1.37-.235 1.263l.235-1.263M175.299 170.21l-.138-2.947.138 2.947M258.03 448.334l2.018.295-2.018-.295M253.581 195.13c-2.372.488-4.81.743-7.127 1.462-.578.18-2.475 1.282-3.167.992-1.052-.442-.52-1.577-.077-2.182 1.186-1.62 3.307-2.526 5.252-2.506 1.94.02 4.606-.05 5.12 2.233M246.989 199.473c2.613 1.83 4.608 2.73 4.83-1.382 2.831.386 1.562 4.949-.58 5.293-2.332.374-3.888-1.957-4.25-3.911"/>
        </g>
    </g>
</svg>
