<svg xmlns="http://www.w3.org/2000/svg" width="1439" height="279" viewBox="0 0 1439 279">
    <g fill="none" fill-rule="evenodd">
        <path fill="#DF1F1D" fill-rule="nonzero" d="M266.23 236.756c11.088 0 19.341-1.323 24.759-3.969.63-9.198 3.654-25.641 9.072-49.329 1.764.126 4.347.189 7.749.189 18.396 0 32.256-4.82 41.58-14.458 9.324-9.64 13.986-21.515 13.986-35.627 0-21.168-12.978-31.752-38.934-31.752-13.104 0-30.24 1.575-51.408 4.725l-.567 2.835 2.457 2.457c1.764 1.638 3.497 3.686 5.198 6.142 1.7 2.458 2.551 4.442 2.551 5.954 0 7.812-3.339 26.68-10.017 56.606-6.678 29.924-10.458 48.604-11.34 56.038.882.126 2.52.189 4.914.189zm38.556-65.772h-1.89c5.544-24.192 9.324-42.903 11.34-56.133 3.528-.882 6.489-1.323 8.883-1.323 3.654 0 6.426 1.606 8.316 4.82 1.89 3.213 2.835 7.339 2.835 12.379 0 12.222-2.488 21.987-7.465 29.295-4.978 7.308-12.317 10.962-22.019 10.962zm64.26 65.583c12.725-.031 21.253-.913 25.586-2.646-.126-1.134-.19-3.087-.19-5.859 0-7.686 2.899-24.57 8.695-50.652 2.394-2.646 5.166-4.536 8.316-5.67 1.008 0 2.52 1.701 4.536 5.103 2.016 3.402 3.087 5.103 3.213 5.103 3.024-.504 6.142-1.827 9.355-3.969s5.355-3.811 6.426-5.008a115.556 115.556 0 0 0 2.552-2.93c0-11.844-3.402-17.766-10.206-17.766-4.662 0-9.198 1.89-13.608 5.67-4.41 3.78-7.308 6.804-8.694 9.072 0-5.922-.756-10.521-2.268-13.797-14.994 0-25.893.945-32.697 2.835l-.19 2.457 1.702 2.268c3.528 4.662 5.292 8.946 5.292 12.852 0 2.268-1.701 11.277-5.103 27.027-3.402 15.75-5.103 25.42-5.103 29.011 0 3.591.126 5.891.378 6.899h2.009zm94.453 1.701c8.694 0 16.695-2.016 24.003-6.048 2.646-1.512 5.48-3.402 8.505-5.67 3.024-2.268 5.04-4.095 6.048-5.481l-4.536-6.048-2.835 2.268c-1.89 1.512-4.536 3.024-7.938 4.536-3.402 1.512-6.615 2.268-9.64 2.268-8.82 0-13.67-5.922-14.552-17.766l4.536-.567c7.434-1.134 15.624-3.906 24.57-8.316 4.41-2.268 8.158-5.481 11.245-9.639 3.087-4.158 4.63-9.293 4.63-15.404 0-6.11-2.393-10.993-7.181-14.647s-10.9-5.481-18.333-5.481c-12.096 0-22.9 4.567-32.414 13.703-9.513 9.135-14.27 21.577-14.27 37.327 0 10.962 2.52 19.53 7.56 25.704 5.04 6.174 11.908 9.261 20.602 9.261zm-1.134-41.202c0-7.056 1.291-14.648 3.874-22.774 2.583-8.127 6.269-12.191 11.057-12.191 4.032 0 6.048 3.402 6.048 10.206 0 6.804-1.89 12.348-5.67 16.632-3.78 4.284-8.883 6.993-15.31 8.127zm69.245 41.202c9.576 0 19.97-4.662 31.185-13.986l-3.402-6.237c-6.804 3.15-10.994 4.725-12.569 4.725-1.575 0-2.362-1.827-2.362-5.481 0-6.93 2.898-24.444 8.694-52.542h3.402c4.284 0 8.82.252 13.608.756 1.89-4.158 2.96-7.812 3.213-10.962h-18.333c2.142-10.458 3.213-17.577 3.213-21.357 0-3.78-.252-6.93-.756-9.45-8.694 0-17.955 1.701-27.783 5.103v.567l.189 5.859c0 6.048-.504 12.474-1.512 19.278H516.49c-.378 1.638-.567 3.749-.567 6.332 0 2.583.126 4.63.378 6.142 2.268-.378 5.733-.756 10.395-1.134-.882 5.166-2.268 11.939-4.158 20.317-1.89 8.38-3.37 15.467-4.442 21.263-1.07 5.796-1.606 10.993-1.606 15.593 0 4.599 1.417 8.284 4.252 11.056 2.835 2.772 6.458 4.158 10.868 4.158zm61.684 0c9.577 0 19.971-4.662 31.186-13.986l-3.403-6.237c-6.803 3.15-10.993 4.725-12.568 4.725-1.575 0-2.363-1.827-2.363-5.481 0-6.93 2.899-24.444 8.695-52.542h3.401c4.285 0 8.82.252 13.609.756 1.89-4.158 2.96-7.812 3.212-10.962h-18.332c2.141-10.458 3.212-17.577 3.212-21.357 0-3.78-.251-6.93-.755-9.45-8.694 0-17.956 1.701-27.784 5.103v.567l.19 5.859c0 6.048-.505 12.474-1.513 19.278h-11.907c-.377 1.638-.567 3.749-.567 6.332 0 2.583.127 4.63.379 6.142 2.268-.378 5.732-.756 10.394-1.134-.881 5.166-2.268 11.939-4.158 20.317-1.89 8.38-3.37 15.467-4.441 21.263-1.071 5.796-1.606 10.993-1.606 15.593 0 4.599 1.417 8.284 4.252 11.056 2.835 2.772 6.457 4.158 10.867 4.158zm68.3 40.068c11.466 0 20.759-4.379 27.878-13.136 7.119-8.756 12.001-20.065 14.647-33.925 1.386-6.93 3.213-19.278 5.481-37.044s4.6-31.374 6.993-40.824h-3.59c-11.467 0-19.405.882-23.815 2.646-4.41 31.752-6.93 51.345-7.56 58.779-5.544 3.906-10.269 5.859-14.175 5.859-3.276 0-4.914-1.953-4.914-5.859 0-3.906 1.386-12.6 4.158-26.082 2.772-13.482 4.158-22.365 4.158-26.649 0-4.284-.315-7.308-.945-9.072-11.844 0-21.168 1.323-27.972 3.969.504 1.638.756 3.402.756 5.292 0 8.82-1.26 19.845-3.78 33.075-2.52 13.23-3.78 21.231-3.78 24.003 0 11.592 5.292 17.388 15.876 17.388 9.45 0 19.278-3.591 29.484-10.773-.63 5.166-1.512 10.521-2.646 16.065-10.458 2.268-18.774 5.481-24.948 9.639-6.174 4.158-9.26 8.757-9.26 13.797 0 3.78 1.858 6.867 5.575 9.261 3.717 2.394 7.843 3.591 12.38 3.591zm-3.685-10.962c-2.71 0-4.064-1.197-4.064-3.591s2.08-4.851 6.237-7.371c4.284-2.52 9.45-4.347 15.498-5.481-2.268 5.796-5.103 9.986-8.505 12.569-3.402 2.582-6.457 3.874-9.166 3.874zm134.804-29.106c13.104 0 24.255-3.528 33.453-10.584 9.198-7.056 13.797-16.632 13.797-28.728 0-4.788-1.827-10.962-5.48-18.522-3.655-7.56-6.553-12.915-8.695-16.065-2.142-3.15-3.969-5.733-5.48-7.749l6.047-4.914c4.032-3.276 8.064-7.686 12.096-13.23 4.032-5.544 6.048-10.962 6.048-16.254 0-5.292-2.677-10.017-8.032-14.175-5.355-4.158-12.884-6.237-22.586-6.237-9.702 0-18.427 2.772-26.176 8.316-7.75 5.544-11.624 13.104-11.624 22.68 0 5.922 1.922 12.694 5.765 20.317 3.843 7.623 8.032 14.49 12.568 20.601 4.536 6.111 8.726 12.663 12.569 19.656 3.843 6.993 5.764 12.884 5.764 17.672 0 8.694-4.095 13.167-12.285 13.419-5.544-14.364-11.529-23.625-17.955-27.783-3.654 1.134-7.749 4.284-12.285 9.45-4.536 5.166-7.497 9.828-8.883 13.986.63 3.15 3.812 6.961 9.545 11.434 5.733 4.473 13.01 6.71 21.83 6.71zm20.223-91.854l-2.835-3.591c-1.764-2.394-3.56-5.387-5.386-8.978-1.827-3.59-2.74-6.74-2.74-9.45 0-2.709 1.417-5.04 4.252-6.992 2.835-1.954 6.363-2.93 10.584-2.93 4.22 0 7.843.882 10.867 2.646 3.024 1.764 4.536 3.938 4.536 6.52 0 2.584-.693 5.04-2.079 7.371-1.386 2.331-2.96 4.316-4.725 5.954-1.638 1.638-3.811 3.465-6.52 5.481-2.71 2.016-4.694 3.339-5.954 3.969zm145.79 91.854c4.284 0 9.23-1.48 14.837-4.441 5.606-2.962 10.048-6.08 13.324-9.356l-3.402-6.615-2.079 1.134c-4.41 2.394-6.993 3.591-7.749 3.591-1.134 0-1.701-1.984-1.701-5.953 0-3.97 1.386-11.75 4.158-23.342 2.772-11.592 4.158-19.908 4.158-24.948 0-5.04-1.449-8.977-4.347-11.813-2.898-2.835-6.52-4.252-10.867-4.252-4.347 0-9.261 1.48-14.742 4.441-5.481 2.962-9.923 5.828-13.325 8.6-1.512-8.694-6.489-13.041-14.931-13.041-6.678 0-15.687 4.221-27.027 12.663 0-5.418-.882-9.324-2.646-11.718-14.994 0-25.893.945-32.697 2.835l-.189 2.457 1.701 2.268c3.528 4.662 5.292 9.072 5.292 13.23 0 2.268-1.796 11.781-5.387 28.539-3.59 16.758-5.386 28.098-5.386 34.02l4.249-.001c11.112-.033 18.83-.915 23.156-2.645 0-8.442 2.268-22.617 6.804-42.525a7307.494 7307.494 0 0 0 3.78-16.632c4.536-3.024 8.694-4.536 12.474-4.536 2.394 0 3.591 1.701 3.591 5.103 0 3.402-1.48 11.466-4.442 24.192-2.96 12.726-4.441 21.735-4.441 27.027 0 5.292.126 8.631.378 10.017 13.482 0 22.05-.819 25.704-2.457 0-8.064 1.606-19.404 4.82-34.02 3.212-14.616 4.945-23.184 5.197-25.704 4.662-2.772 8.82-4.158 12.474-4.158 2.142 0 3.213 1.796 3.213 5.386 0 3.591-1.355 11.278-4.063 23.059-2.71 11.78-4.064 19.624-4.064 23.53 0 10.71 4.725 16.065 14.175 16.065zm63.386 0c11.466 0 20.853-4.882 28.16-14.648 7.309-9.764 12.16-21.262 14.554-34.492l3.78-.756c7.056-1.386 12.663-2.961 16.82-4.725l-1.133-7.371-3.024.756c-5.292 1.134-10.521 1.827-15.687 2.079 0-18.774-4.977-28.161-14.931-28.161-2.646 0-5.04.567-7.182 1.701l-6.804-.378c-13.23 0-23.594 5.04-31.09 15.12-7.498 10.08-11.246 22.113-11.246 36.099 0 10.962 2.457 19.499 7.37 25.61 4.915 6.11 11.719 9.166 20.413 9.166zm10.206-16.254c-6.93 0-10.395-6.804-10.395-20.412 0-9.576 1.386-18.081 4.158-25.515 2.772-7.434 5.733-12.159 8.883-14.175.378-.252.945-.378 1.7-.378.757 0 1.387.126 1.89.378l-.944 1.89c-1.638 3.528-2.457 7.308-2.457 11.34 0 10.08 6.74 15.12 20.223 15.12-1.638 7.56-4.568 14.742-8.789 21.546-4.22 6.804-8.977 10.206-14.27 10.206zm71.702 16.254c11.466 0 20.853-4.882 28.16-14.648 7.309-9.764 12.16-21.262 14.554-34.492l3.78-.756c7.056-1.386 12.663-2.961 16.82-4.725l-1.133-7.371-3.024.756c-5.292 1.134-10.521 1.827-15.687 2.079 0-18.774-4.977-28.161-14.931-28.161-2.646 0-5.04.567-7.182 1.701l-6.804-.378c-13.23 0-23.594 5.04-31.09 15.12-7.498 10.08-11.246 22.113-11.246 36.099 0 10.962 2.457 19.499 7.37 25.61 4.915 6.11 11.719 9.166 20.413 9.166zm10.206-16.254c-6.93 0-10.395-6.804-10.395-20.412 0-9.576 1.386-18.081 4.158-25.515 2.772-7.434 5.733-12.159 8.883-14.175.378-.252.945-.378 1.7-.378.757 0 1.387.126 1.89.378l-.944 1.89c-1.638 3.528-2.457 7.308-2.457 11.34 0 10.08 6.74 15.12 20.223 15.12-1.638 7.56-4.568 14.742-8.789 21.546-4.22 6.804-8.977 10.206-14.27 10.206zm60.74 16.254c9.576 0 19.97-4.662 31.185-13.986l-3.402-6.237c-6.804 3.15-10.994 4.725-12.569 4.725-1.575 0-2.362-1.827-2.362-5.481 0-6.93 2.898-24.444 8.694-52.542h3.402c4.284 0 8.82.252 13.608.756 1.89-4.158 2.96-7.812 3.213-10.962h-18.333c2.142-10.458 3.213-17.577 3.213-21.357 0-3.78-.252-6.93-.756-9.45-8.694 0-17.955 1.701-27.783 5.103v.567l.189 5.859c0 6.048-.504 12.474-1.512 19.278h-11.907c-.378 1.638-.567 3.749-.567 6.332 0 2.583.126 4.63.378 6.142 2.268-.378 5.733-.756 10.395-1.134-.882 5.166-2.268 11.939-4.158 20.317-1.89 8.38-3.37 15.467-4.442 21.263-1.07 5.796-1.606 10.993-1.606 15.593 0 4.599 1.417 8.284 4.252 11.056 2.835 2.772 6.458 4.158 10.868 4.158zm99.957 0c4.221 0 8.851-1.26 13.891-3.78 5.04-2.52 8.505-4.536 10.395-6.048 1.89-1.512 3.402-2.772 4.536-3.78l-3.401-6.615-2.269 1.134c-4.284 2.268-6.93 3.402-7.938 3.402-1.007 0-1.511-2.079-1.511-6.237 0-4.158 1.448-11.875 4.347-23.153 2.898-11.276 4.347-19.404 4.347-24.38 0-4.978-1.229-8.978-3.686-12.002-2.457-3.024-6.08-4.536-10.868-4.536-7.686 0-16.632 3.717-26.838 11.151 7.056-29.988 10.584-49.14 10.584-57.456 0-4.662-.566-7.56-1.7-8.694-8.694 0-17.955 1.701-27.784 5.103.756 1.764 1.134 4.725 1.134 8.883 0 11.214-3.748 32.634-11.245 64.26-7.497 31.626-11.245 50.148-11.245 55.566 0 1.638.063 3.528.188 5.67 12.726 0 21.736-1.008 27.028-3.024 0-9.072 3.465-28.854 10.395-59.346 4.914-2.772 9.009-4.158 12.285-4.158 2.646 0 3.968 1.606 3.968 4.82 0 3.213-1.417 10.898-4.252 23.058-2.835 12.159-4.253 20.537-4.253 25.137 0 4.599 1.26 8.252 3.78 10.962 2.52 2.708 5.891 4.063 10.112 4.063zm65.56-102.06c4.41 0 8.41-1.575 12-4.725 3.592-3.15 5.387-6.773 5.387-10.868 0-4.094-1.26-7.402-3.78-9.922-2.52-2.52-6.048-3.78-10.584-3.78s-8.536 1.575-12.001 4.725c-3.465 3.15-5.198 6.804-5.198 10.962 0 4.158 1.26 7.497 3.78 10.017 2.52 2.394 5.985 3.591 10.395 3.591zm-12.664 102.06c4.41 0 9.198-1.292 14.364-3.875s8.694-4.63 10.584-6.142c1.89-1.512 3.402-2.772 4.536-3.78l-3.213-6.615-2.268 1.134c-5.04 2.394-7.938 3.591-8.694 3.591-1.134 0-1.7-1.984-1.7-5.953 0-3.97 1.7-12.411 5.102-25.326 3.402-12.915 5.103-22.019 5.103-27.311 0-5.292-.819-8.883-2.457-10.773-14.994 0-25.83.945-32.508 2.835l-.189 2.457 1.701 2.268c3.276 4.662 4.914 9.639 4.914 14.931 0 3.528-1.575 11.183-4.725 22.964-3.15 11.78-4.725 19.97-4.725 24.57 0 4.599 1.26 8.252 3.78 10.962 2.52 2.708 5.985 4.063 10.395 4.063zm66.221 0c8.694 0 16.695-2.016 24.003-6.048 2.646-1.512 5.481-3.402 8.505-5.67 3.024-2.268 5.04-4.095 6.048-5.481l-4.536-6.048-2.835 2.268c-1.89 1.512-4.536 3.024-7.938 4.536-3.402 1.512-6.615 2.268-9.639 2.268-8.82 0-13.67-5.922-14.553-17.766l4.536-.567c7.434-1.134 15.624-3.906 24.57-8.316 4.41-2.268 8.159-5.481 11.246-9.639 3.087-4.158 4.63-9.293 4.63-15.404 0-6.11-2.394-10.993-7.182-14.647s-10.899-5.481-18.333-5.481c-12.096 0-22.9 4.567-32.413 13.703-9.513 9.135-14.27 21.577-14.27 37.327 0 10.962 2.52 19.53 7.56 25.704 5.04 6.174 11.907 9.261 20.601 9.261zm-1.134-41.202c0-7.056 1.292-14.648 3.875-22.774 2.583-8.127 6.268-12.191 11.056-12.191 4.032 0 6.048 3.402 6.048 10.206 0 6.804-1.89 12.348-5.67 16.632-3.78 4.284-8.883 6.993-15.309 8.127z"/>
        <path stroke="#DF1F1D" d="M135.758 261.325c-18.086 6.697-36.172 10.046-54.258 10.046-18.086 0-36.172-3.35-54.258-10.046a11.49 11.49 0 0 1-5.117-3.766 11.49 11.49 0 0 1-2.336-5.909L4.615 95.168a.498.498 0 0 1 .112-.366c25.918 2.283 51.345 3.511 76.773 3.511a792.64 792.64 0 0 0 76.34-3.69.498.498 0 0 1 .54.409L143.21 251.65a11.49 11.49 0 0 1-2.336 5.909 11.49 11.49 0 0 1-5.117 3.766z"/>
        <path fill="#F9FAF7" stroke="#DF1F1D" stroke-width="2" d="M157.869 95.122l-15.26 157.552a11 11 0 0 1-5.874 8.698C120.535 269.796 102.123 274 81.5 274c-20.623 0-39.036-4.204-55.235-12.628a11 11 0 0 1-5.874-8.698L5.114 95.14c25.59 2.45 50.988 3.674 76.386 3.674a793.13 793.13 0 0 0 76.369-3.691z"/>
        <path fill="#F9FAF7" stroke="#DF1F1D" stroke-linecap="round" stroke-linejoin="round" stroke-width="2" d="M5 95.007c10.302-33.759 35.802-50.638 76.5-50.638s66.198 16.88 76.5 50.638"/>
        <path stroke="#DF1F1D" stroke-linecap="round" stroke-width="9" d="M81.5 84.224c-1.26-44.518 3.042-70.089 12.908-76.71 9.717-6.523 24.683 1.274 38.34 5.082"/>
        <path fill="#F9FAF7" stroke="#DF1F1D" stroke-linecap="round" stroke-linejoin="round" stroke-width="2" d="M158 95.007c-12.04 9.385-37.54 14.077-76.5 14.077S17.04 104.392 5 95.007c8.37-27.431 26.776-43.717 55.217-48.859-.143.119-.217.238-.217.359 0 1.38 9.626 2.5 21.5 2.5s21.5-1.12 21.5-2.5c0-.121-.074-.24-.217-.357 28.44 5.14 46.846 21.426 55.217 48.857z"/>
        <path fill="#DF1F1D" d="M7.254 94.747c15.085 5.498 39.834 8.248 74.246 8.248 34.412 0 59.16-2.75 74.246-8.248a4 4 0 0 1 5.276 2.897l1.41 6.393a3 3 0 0 1-1.95 3.481c-18.96 6.553-45.287 9.83-78.982 9.83s-60.022-3.277-78.982-9.83a3 3 0 0 1-1.95-3.481l1.41-6.393a4 4 0 0 1 5.276-2.897z"/>
    </g>
</svg>
