<svg xmlns="http://www.w3.org/2000/svg" width="508" height="394" viewBox="0 0 508 394">
    <g fill="none" fill-rule="nonzero" transform="matrix(-1 0 0 1 516 -37)">
        <path fill="#DF1F1D" d="M233 356.784c1.825 3.774 3.369 7.716 5.366 11.404.84 1.551 2.134 2.794 2.885 4.4.793 1.694-.327 2.546-1.437 3.777.517-1.142 1.243-1.952.935-3.234-2.07.959-3.66 3.636-5.03 5.363-1.795 2.262-3.536 4.566-5.288 6.862a1570.1 1570.1 0 0 0-9.622 12.785c-2.994 4.01-6.32 7.746-9.598 11.522-2.882 3.322-5.549 6.747-7.7 10.595-.443.792-1.655 4.122-2.858 3.865-.59-.126-.95-.979-1.242-1.429-.525-.805-1.06-1.599-1.562-2.418-1.14-1.862-2.238-3.749-3.391-5.602-.958-1.538-2.224-2.607-.947-4.37 2.393-3.3 4.495-6.772 6.95-10.045 2.815-3.75 5.786-7.376 8.646-11.09 2.747-3.566 5.278-7.297 8.088-10.815 2.77-3.468 5.505-6.891 8.117-10.487 2.643-3.638 4.965-7.502 7.688-11.083zm210.072-74.595c-.46 1.148-.92 1.763-1.702 2.718-.861 1.053-1.464 2.31-2.171 3.465-1.348 2.199-2.884 4.284-4.428 6.347-3.255 4.35-7.081 8.213-10.372 12.518-1.575 2.06-2.46 4.534-4.018 6.588-1.438 1.896-3.608 3.035-5.247 4.732-.83.86-1.4 1.993-2.35 2.729-.93.723-2.12 1.161-3.118 1.787-1.272.795-2.479 1.32-3.878 1.839-1.182.438-2.152 1.002-3.44 1.062.527-.488 1.015-1.127 1.632-1.505.548-.335 1.099-.338 1.707-.48 1.247-.293 2.172-1.191 3.411-1.52-1.339-.702-2.931.355-4.076.985-1.482.816-3.01 1.546-4.498 2.352-6.936 3.759-14.01 7.166-21.163 10.489-7.088 3.293-14.119 6.768-21.318 9.8-6.949 2.927-14.095 5.399-21.072 8.31-7.376 3.08-14.76 6.224-22.023 9.56-3.436 1.579-6.906 3.013-10.264 4.759-3.23 1.679-6.498 3.312-9.743 4.964-.88.448-1.803.851-2.636 1.383-.781.499-1.41 1.126-2.289 1.463-1.516.58-2.89 1.293-4.37 1.972-3.379 1.553-6.545 3.51-9.856 5.198-3.564 1.815-7.08 3.7-10.567 5.658-3.248 1.824-6.682 3.334-9.867 5.267-.758.46-1.438 1.016-2.277 1.324-.684.25-1.409.34-2.051.707-.677.386-1.177.974-1.917 1.251-.818.305-1.075.452-1.743 1.008-1.371 1.14-3.21 1.618-4.803 2.362-1.561.731-3.034 1.607-4.533 2.453-3.256 1.836-6.563 3.569-9.86 5.33-1.728.923-3.37 1.997-5.058 2.99-.421.247-2.744 1.808-2.443.69.124-.46 1.13-1.291 1.403-1.606.577-.667 1.16-1.328 1.743-1.99 1.165-1.324 2.33-2.65 3.448-4.014 2.472-3.02 4.606-6.294 6.992-9.38 2.217-2.867 4.612-5.575 6.553-8.65 1.974-3.13 3.57-6.56 5.306-9.828.73-1.375.922-2.778 1.46-4.196.56-1.475 1.797-1.582 3.174-1.883 3.735-.817 7.332-2.954 10.66-4.766 3.17-1.727 6.372-3.503 9.66-4.995 1.669-.757 3.36-1.339 4.983-2.207 1.606-.86 3.276-1.567 4.948-2.29 3.533-1.528 6.857-3.405 10.22-5.27 3.28-1.819 6.687-3.373 10.034-5.064 1.837-.928 3.652-1.899 5.49-2.825 1.524-.767 3.115-1.756 4.76-2.23 3.537-1.02 6.822-2.229 10.074-3.988 1.692-.917 3.473-1.608 5.197-2.455 1.615-.794 2.967-2.053 4.611-2.773 3.397-1.487 6.729-2.956 10.055-4.615 6.688-3.333 13.42-6.387 20.42-8.996 1.777-.662 3.433-1.594 5.175-2.337 1.667-.712 3.409-1.249 5.106-1.882 3.684-1.376 7.203-3.144 10.825-4.668 3.536-1.487 7.163-2.747 10.69-4.258 1.795-.77 3.643-1.473 5.391-2.346 1.59-.793 2.875-1.863 4.585-2.4 1.793-.562 3.389-1.488 5.022-2.397 1.536-.855 3.064-1.438 4.672-2.108.915-.381 1.5-1.134 2.348-1.597.693-.38 1.515-.412 2.256-.66 1.72-.572 3.274-1.605 4.935-2.32 3.422-1.475 6.884-2.858 10.255-4.448 3.374-1.592 6.638-3.4 9.95-5.113zm-70.284 35.147a68.11 68.11 0 0 0-4.211 1.132c-3.016.934-5.991 2.003-8.934 3.143-6.026 2.334-11.893 5.313-17.706 8.132-10.444 5.064-20.766 10.22-30.755 16.154-4.998 2.97-9.974 5.974-14.982 8.926-4.115 2.424-8.66 4.884-11.933 8.437-.807.877-2.417 2.765-1.02 3.819.842.636 2.071.343 3.033.3 1.305-.058 2.287-.214 3.54-.598 2.694-.824 5.52-1.1 8.188-2.034 2.55-.893 5.108-1.858 7.539-3.04 1.203-.584 2.36-1.268 3.581-1.812 1.295-.577 2.7-.843 3.988-1.43 1.149-.523 2.275-1.096 3.421-1.618.86-.391 1.632-.817 2.34-1.406.815-.678 1.93-.681 2.908-1.086 1.157-.48 2.298-1.001 3.445-1.505 1.437-.632 2.873-1.27 4.308-1.907.973-.433 1.937-.835 2.593-1.716-1.595-.813-2.706.121-4.205.835-1.71.815-3.434 1.6-5.149 2.403-3.232 1.511-6.436 3.085-9.743 4.426-3.252 1.319-6.447 2.796-9.78 3.9-3.364 1.114-6.805 1.992-10.131 3.22-1.572.581-2.764 1.014-4.448 1.054-1.006.024-2.328.356-1.427-.998.587-.882 1.714-1.277 2.002-2.318.159-.572.007-.877.595-1.194.32-.172.967-.344 1.327-.447.507-.146.957-.026 1.436-.239.458-.203.91-.668 1.32-.96 1.044-.744 2.31-1.035 3.349-1.759.422-.293.82-1.103 1.285-1.276.302-.113.705.07 1.044-.028.973-.282 1.855-1.266 2.623-1.891.604-.491.785-.55 1.488-.621.657-.067.68-.042 1.216-.51 1.065-.928 2.005-1.235 3.323-1.712 1.373-.497 2.684-1.244 3.867-2.096.503-.362.922-.827 1.42-1.188.357-.258.807-.326 1.14-.565.597-.427 0-.4.229-.721.247-.346.534-.127.891-.156.549-.044.422-.166.804-.389.445-.259.512-.227 1.135-.329 1.406-.23 2.534-1.394 3.692-2.14.441-.283 1.039-.498 1.41-.875.283-.287.388-.834.858-.868.503-.035.738.548 1.369.347.442-.14.706-.624 1.029-.919.901-.82 2.214-.853 3.258-1.507.539-.338.969-.678 1.55-.94.386-.173.603-.392.963-.59 1.057-.582 2.027-.406 2.99-1.365.397-.396.635-.804 1.193-.976.442-.137.9-.055 1.348-.206 1.156-.391 2.331-1.309 3.348-1.966 1.231-.794 2.41-1.558 3.826-1.995 1.344-.415 2.638-.69 3.87-1.413a113.74 113.74 0 0 0 3.675-2.22c1.128-.719 2.439-.936 3.67-1.416 1.239-.484 2.897-.91 3.948-1.683.804-.592 1.758-.815 2.554-1.41.582-.435.892-.909 1.638-1.07.574-.125 1.06-.106 1.62-.341.52-.217.939-.487 1.514-.549.745-.08.73-.112 1.296-.53 1.054-.777 2.545-.966 3.744-1.429 1.328-.512 2.544-1.257 3.824-1.872.215-.153.396-.337.546-.554-1.174-.5-2.51-.129-3.687.155zm68.485-54.41c1.21 1.7 2.067 3.881 3.069 5.717.974 1.788 1.954 3.574 2.926 5.363.722 1.331-.363 1.68-1.416 2.04-1.744.596-3.36 1.429-4.966 2.326-3.548 1.983-7.258 3.544-11 5.117-3.842 1.616-7.583 3.44-11.493 4.892-3.65 1.356-7.054 3.293-10.668 4.747-1.838.739-3.747 1.558-5.402 2.656-.75.498-1.398.983-2.276 1.241-.89.26-1.757.409-2.606.802-3.542 1.643-7.322 2.987-11.012 4.29-3.887 1.374-7.651 3.062-11.475 4.596-1.882.756-3.768 1.5-5.647 2.263-1.636.666-3.245 1.8-4.946 2.23-1.13.283-2.188.349-3.29.788-.852.34-1.696.71-2.54 1.072-1.849.791-3.62 1.737-5.455 2.554-7.433 3.308-14.918 6.537-22.232 10.118-1.824.892-3.615 1.86-5.488 2.647-1.722.723-3.215 1.716-4.884 2.523-3.498 1.69-7.252 2.767-10.663 4.574-3.44 1.822-7.244 2.607-10.724 4.324-3.754 1.854-7.434 3.844-11.088 5.887-7.184 4.015-14.735 7.196-22.091 10.867-3.625 1.808-7.122 3.819-10.676 5.757a76.683 76.683 0 0 1-5.646 2.804c-1.299.576-2.962 1.604-4.388 1.757-1.288.138-2.585-1.95-3.328-2.86-1.102-1.348-1.564-2.718-2.083-4.346-.242-.76-.527-1.536-.997-2.188-.3-.419-1.291-.883-1.45-1.275-.328-.805 2.528-1.406 3.121-1.666 1.716-.755 3.241-2 4.949-2.821 1.723-.83 3.281-1.823 4.875-2.878 3.27-2.167 6.675-4.12 10.107-6.017 1.805-.997 3.492-2.165 5.275-3.194 1.452-.838 3.057-1.176 4.525-2.016 3.466-1.984 7.18-3.56 10.734-5.38 1.943-.995 4.027-1.647 6.017-2.536 1.78-.795 3.524-1.653 5.356-2.323 1.699-.62 3.158-1.414 4.744-2.256 1.664-.884 3.508-1.373 5.238-2.106 1.907-.81 3.796-1.657 5.728-2.406 1.666-.646 3.361-1.201 4.849-2.22 1.477-1.01 3.06-1.371 4.676-2.098 1.717-.77 3.441-1.4 5.193-2.087 2.054-.805 4.034-1.785 6.079-2.612 1.615-.652 3.395-1.051 4.918-1.909.849-.477 1.443-1.071 2.394-1.37.8-.252 1.55-.473 2.326-.798 1.828-.764 3.732-1.326 5.575-2.064 3.74-1.498 7.577-2.785 11.254-4.432 1.998-.895 3.934-1.897 5.976-2.691 1.778-.692 3.613-1.278 5.302-2.175 1.87-.992 3.632-1.958 5.633-2.686a81.18 81.18 0 0 0 4.931-1.956c3.911-1.721 8.034-2.824 12.023-4.347 3.598-1.374 7.275-2.85 10.525-4.94 1.69-1.087 3.615-1.796 5.395-2.741 1.727-.917 3.45-1.842 5.174-2.768 7.205-3.872 14.634-7.397 22.116-10.706 1.813-.801 3.621-1.615 5.43-2.426.756-.339 1.532-.84 2.309-1.11.694-.24.758-.154 1.188.451zm-100.689 76.106c-2.49.836-4.97 1.698-7.444 2.58-2.338.836-4.83 1.582-6.756 3.22 3.834-1.088 7.72-2.037 11.47-3.397 3.406-1.236 6.807-3.105 10.54-2.912-1.335 1.593-3.266 2.445-5.02 3.472-2.194 1.282-4.353 2.622-6.537 3.918.931.789 1.94-.123 2.743-.62.993-.614 2.059-1.108 3.07-1.69 2.354-1.353 4.538-2.975 6.762-4.527.629-.44 1.53-1.44.578-2.08-.563-.38-1.473-.067-2.064.04-2.513.457-4.922 1.184-7.342 1.996zM151.302 120.065c1.557 1.273.561 2.718 1.017 4.323.442 1.557 1.932.365 2.879-.026l.038 4.746c-.421-.326-.134-.764-.78-.593-.08.021-.496.498-.6.573-.326.237-.709.38-1.05.588.346.138 1.031.687 1.335.722.653.077.636-.55 1.06-.937 1.141 8.476 1.57 18.163 6.591 25.448.613.888 1.376 1.728 1.938 2.646.443.724.284.675-.132 1.266-.16.23-.454.642-.308.954.28.602.674.177 1.097.379.637.304.714 1.028.947 1.661.232.633.632 1.083.912 1.661.162.332-.206.34.255.561.347.166.667-.204.997-.234.592-.053.185-.15.533.228.152.165.554.888.56 1.123.021.75-.675.806-1.25 1.14.492.306 1.035.514 1.49.882.138.111.217.492.422.513.388.04 1.015-.588 1.271-.828.367-.343.674-1.044 1.155-1.205.729-.243 1.128.478 1.74.646.77.21 1.528-.304 2.301-.402.896-.114 1.796.024 2.687.112 2.102.207 4.118-.027 6.143-.632 3.294-.983 6.435-3.09 9.143-5.182 2.553-1.974 3.897-4.921 5.145-7.813l.12-.275c1.408-3.27 2.831-6.44 3.602-9.94.818-3.718 1.016-7.469.81-11.264a42.863 42.863 0 0 0-.692-5.817c-.267-1.396.444-2.963 1.93-3.344.892-.23 1.656.267 2.523.166.597-.07 1.077-.813 1.56-.837.49-.024 1.237.992 1.57 1.298.637.586 1.28 1.162 1.917 1.747a80.223 80.223 0 0 1 3.934 3.852c.593.624.715 1.359 1.207 2.005.45.59 1.03.669 1.37 1.387.347.737.352 1.139 1.104 1.52.66.336.931.23 1.294.992.304.64.519 1.413.704 2.1.197.729-.027 1.985.52 2.55.164-.612.187-1.696.974-1.842.408-.075.73.38 1.164.336.416-.041.637-.576 1.086-.47 1.043.248.567 1.341.24 1.827-.634.945-.712 1.853.065 2.771.705-1.308 1.78-.739 2.696 0-.691.384-1.548.63-.658 1.37.192.16 1.358.814 1.545.744.338-.127.07-.523.483-.706.258-.115.749.141.905.325.47.554-.173 2.057-.293 2.724.576-.466.833-1.544 1.594-1.762.791-.228 1.795.543 1.907 1.288.09.604-.426 1.182.314 1.478.948.38 2.022-.82 2.932-.785.934.036 1.292 1.264 2.096 1.753.77.47 1.114 1.18 1.984 1.455 2.188.692 2.744 3.245 4.497 4.602.567-.801.6-1.022 1.495-1.252.4-.104 1-.394 1.418-.261.648.204.562.863.978 1.264.471.454 1.031.326 1.62.31h.056l.073 2.632c.42-.447.5-1.639 1.243-.746.484-.807-.055-1.858 1.388-1.679.914.114 1.734.83 2.534 1.236 2.383 1.209 5.199 1.466 7.834 1.442.596-.006 1.599-.341 2.165-.23.466.093.358.184.64.498.199.219.116.656.521.526.311-.1.192-.769.271-1 .364-1.063 1.353-.932 2.325-.894 1.225.048 1.54.958 2.23 1.918.442-.727.753-1.513 1.478-2.008.813-.555 1.887-.82 2.765-1.26.944-.472 1.753-1.102 2.625-1.687.742-.499 1.631-.839 2.318-1.41.723-.6 1.173-1.395 1.955-1.945.859-.604 1.726-1.19 2.564-1.825 1.707-1.292 3.334-2.708 4.665-4.394 1.389-1.762 2.49-3.75 3.55-5.72.499-.926 1.594-3.8-.263-4.188-.802-.167-1.254.765-1.588 1.325-.584.977-1.17 1.941-1.873 2.842-1.27 1.63-2.809 3.057-4.566 4.147.642-1.95 2.052-3.607 3.02-5.4 1.005-1.857 2.087-3.846 3.585-5.354 1.095-1.104 2.63-1.781 3.388-3.198.566-1.058 1.48-3.925 2.886-3.833 1.077.07 2.015.5 3.126.215.709-.182 1.22-.603 1.98-.512.741.09 1.516.505 2.234.727.952.296 1.848.507 2.692 1.055 3.13 2.036 6.189 5.098 8.238 8.226 1.115 1.701.262 3.426-.292 5.185-.555 1.769-1.115 3.512-1.881 5.202-1.717 3.787-3.412 7.54-4.988 11.386-1.495 3.644-3.048 7.273-4.972 10.72-.997 1.79-2.036 3.602-3.214 5.278-.977 1.39-2.247 2.541-3.392 3.788a2200.44 2200.44 0 0 1-8.995 9.752c-2.641 2.84-5.82 5.025-9.16 6.96-.233-.623-.555-.154-1.045-.115-.604.05-1.353-.417-1.908-.654-.466-.2-.967-.58-1.449-.717-.502-.143-.645.13-1.067.126-1.058-.01-2.459-2.062-3.16-2.743a490.938 490.938 0 0 1-3.69-3.628c-4.802-4.759-10.226-9.768-16.543-12.421-5.63-2.365-12.043-1.377-17.398 1.27-2.049 1.013-5.363 3.9-7.584 2.254-.52-.387-1.553-1.04-1.893-1.562-.267-.41.045-1.195.064-1.78.041-1.297-.283-2.585-.72-3.796-.95-2.636-2.456-5.08-3.745-7.559-1.55-2.98-3.095-5.97-4.384-9.075-1.23-2.967-2.766-6.29-3.248-9.482-.142-.941.438-2.856-.913-3.055-1.284-.19-1.738 1.246-1.71 2.237.075 2.754 1.127 5.808 1.997 8.387 1.012 3.001 2.306 5.897 3.663 8.755 1.362 2.869 2.785 5.702 4.211 8.537.632 1.255 1.133 2.496.9 3.92-.216 1.328-.843 2.574-1.134 3.891-.322 1.455-.505 3.046-1.171 4.396-.399.809-1.186 1.486-1.1 2.46.094 1.068 1.243 1.334.447 2.283-.782.934-1.712 1.75-2.605 2.576-2.236 2.065-4.725 3.96-6.848 6.132-.513.524-2.666 3.473-3.55 2.676.335.834-2.874 3.128-3.392 3.623a652.613 652.613 0 0 0-5.96 5.763c-3.985 3.905-8.05 7.762-11.8 11.896-1.818 2.003-3.8 3.575-5.858 5.308-1.093.921-2.116 1.92-3.18 2.872-1.031.922-1.568 1.264-2.865 1.5-.98.18-1.403.796-1.98 1.556-.811 1.068-1.692 2.087-2.58 3.091-1.85 2.096-3.802 4.098-5.767 6.086-1.446 1.464-2.876 2.947-4.203 4.522-1.12 1.331-2.18 2.76-3.653 3.729-.366-.621-.734-1.241-1.101-1.86-.14.552-.275 1.132-.205 1.707.04.313.398.792.415 1.033.04.597-.944 1.629-1.324 2.09-1.403 1.707-2.827 3.4-4.215 5.118-1.399 1.73-2.411 3.715-3.772 5.468-.623.803-1.326 1.774-2.145 2.388-.754.563-1.049.303-1.704-.287-.305 1.177-.179 1.536-1.309 2.028-.9.392-1.37.816-1.831-.277-.977-2.314-1.811-4.839-2.453-7.266-.66-2.502-1.135-5.118-1.524-7.675-.184-1.211-.35-2.458-.306-3.687.038-1.036-.064-1.216-.595-2.053-.645-1.017.207-1.04.247-1.98.034-.786-1.098-1.098-.97-2.024.053-.376.408-.596.417-1 .008-.414-.338-.676-.489-1.027-.176-.412-.286-.502-.133-.937.113-.32.51-.15.428-.543-.138-.667-1.19-.785-1.118-1.748.029-.373.35-.67.37-.941.017-.252-.26-.538-.19-.882.109-.539.358-.755.329-1.325-.025-.45-.087-.797-.023-1.256.138-1.01.253-1.787.062-2.809-.212-1.14-.692-2.225-.571-3.405.078-.77.447-1.567.284-2.349-.2-.956-1.295-1.301-1.764-2.154-.535-.97-.702-2.163-.494-3.247l.882 1.598c.036-.525.2-1.165-.02-1.672-.17-.387-.458-.4-.684-.692-.5-.645-.039-.425.102-1.128.074-.363-.197-.769-.25-1.125-.065-.436.02-.817.034-1.246.029-.861-.262-1.354.207-2.123.978-1.602 2.397-3.075 3.514-4.594.625-.851 1.276-1.688 1.896-2.541.583-.804.486-1.168.242-2.125-2.072 1.305-3.275 3.597-4.739 5.482-1.573 2.025-3.436 3.85-5.104 5.8-3.261 3.812-6.857 7.432-10.584 10.786-1.834 1.65-3.713 3.25-5.56 4.885-1.713 1.517-3.39 3.007-5.452 4.037-1.754.877-3.982 1.886-5.809.578-.877-.628-.807-1.586-1.455-2.339-.332-.386-.578-.21-.921-.427-.485-.306-.3-.049-.275-.653.021-.528.282-.508-.008-1.102-.194-.4-.554-.774-.793-1.158-.508-.817-.91-1.637-1.742-2.144-.585-.358-.384-.156-.634-.67-.135-.275-.077-.41-.327-.677-.484-.52-1.455-.665-2.075-.954l.479.147c-.216-.767-.803-1.354-1.015-2.121-.205-.74-.103-1.08-.675-1.669-.475-.49-1.115-.783-1.58-1.295-.516-.57-.833-1.311-1.284-1.935-.784-1.081-2.034-1.707-2.497-2.986-.14-.385-.126-.72-.454-1.011-.126-.112-.402-.064-.51-.169-.408-.39-.385-.976-.839-1.329-.409-.317-1.092-.144-1.478-.501-.464-.43-.24-.887-.129-1.44.316-1.564-.86-1.555-1.727-2.555-.884-1.02-1.374-2.358-2.063-3.507-.395-.657-.71-.844-1.271-1.294-.497-.399-.424-.17-.347-.905-1.326.352-1.841-2.49-2.3-3.326-.164-.3-.501-.978-.837-1.125-.192-.083-.749.146-.784.163h-.002l-.171-.096c-.363-.213-.825-1.008-.86-1.336-.028-.255.213-.357.113-.68-.088-.284-.55-.529-.776-.687-1.172-.819-3.294-2.508-3.026-4.195 3.428 2.305 6.69 4.936 10.253 7.032 2.986 1.756 6.142 2.234 9.554 1.904 2.035-.197 4.083-.493 6.055-1.041 1.641-.456 3.259-1.085 4.947-1.36.705-.115 1.126-.165 1.541.411.37.51.073.914.859.758 1.073-.214 1.55-1.51 2.415-.194.063-1.625 1.405-2.618 2.667-3.394a45.005 45.005 0 0 0 4.943-3.528c2.991-2.443 5.585-5.36 7.522-8.71 3.457-5.98 5.12-12.783 6.82-19.417 1.804-7.05 4.093-14.097 6.93-20.802 1.327-3.139 3.044-5.967 5.271-8.55 2.178-2.524 4.631-5.481 7.764-6.79 1.595-.666 3.232-1.282 4.844-1.907 1.516-.588 3.078-1.277 4.492-.121zm-88.625 69.601l30.275 41.477c-1.22-.024-2.467-.04-3.658-.336-.629-.156-2.005-.886-2.622-.5-.17.106-.05.415-.192.493-.33.182-.457.207-.875.22-1.034.031-2.068-.347-3.083-.487.366-1.053-.265-1.752-1.02-2.365-.354-.288-.95-.898-1.445-.658-.583.284-.24 1.18-1.156.924-.232-.065-.27-.44-.557-.485-.314-.05-.399.31-.695.314-.686.011-1.056-.992-1.727-.86-.46.089-.486.745-.98.907-.791.26-.935-.386-1.112-.952-.268-.858-.362-1.34-1.312-1.671-.053.837.345 1.898-.721 1.914-.78.011-1.814-.598-1.882.704-5.02-1.276-9.72-3.43-14.202-5.998-4.188-2.398-7.545-5.645-10.942-9.035-1.546-1.543-3.35-3.042-4.715-4.747-.733-.916-.596-1.665-.514-2.775.034-.46.054-.887-.076-1.337-.058-.2-.376-.569-.325-.782.178-.738 1.576-.643 2.15-.75 1.044-.192 2.082-.511 3.095-.826 2.162-.673 4.303-1.482 6.238-2.675 4.028-2.482 6.99-5.742 10.189-9.15l1.21 1.886.654-2.45zm9.527 35.664c-.225.202-.138.304.262.307l-.262-.307zm130.82-31.227c.329 1.086 1.16.637 1.852.618-.464-.654-1.11-.775-1.851-.618zm-.71.657a.21.21 0 0 0 .01.094 6.287 6.287 0 0 1-.01-.094zm102.876-42.052c-.06.789-.342 1.6-.819 2.236-.516.69-1.218.85-1.84 1.383-1.077.923-.883 2.493-1.15 3.754.04.226.129.433.265.618.66-.438.732-1.271 1.458-1.655.318-.169.57-.109.85-.371.253-.237.342-.703.536-.997.5-.76 1.204-1.272 1.576-2.127.364-.837.47-1.786.68-2.668-.419-.063-.451.498-.805.538-.495.054-.525-.386-.751-.711zm-102.906 20.007c-.143.063-.662.124-.68.331-.078.844-.04 1.693-.042 2.538 1.003-.73.823-1.778.722-2.869zM45.69 203.331c-.029.53-.091 1.007.519 1.2a1.59 1.59 0 0 0 .566-.11l-1.085-1.09zm187.644-47.757l-.01.195-.065 1.413c1.354-.931 1.354-.964.075-1.608zm-1.225-3.774c-.302.09-.598.193-.89.31.402.28.928.556 1.182.995.116.199.04.77.222.916.561.45 1.32-.314 1.778-.594-.568-.18-1.134-.367-1.567-.787-.122-.118-.516-.894-.725-.84zm.918-3.167c-.03.748-.496 1.598-.085 2.322.308.542.7.662 1.118.32.611-.503.576-1.232.074-1.646-.117-.096-.331.009-.465-.1-.304-.246-.404-.6-.642-.896zm67.443-15.902c.184.201.515.344.61.62.07.2-.156.431-.08.644.162.453.278.562.807.512 1.115-.104 1.621-1.651.302-1.9-.548-.103-1.096.073-1.639.124zm-70.686 14.439c-.144.366-1.057 2.466-.097 1.945.27-.147.72-1.009.806-1.325.028-.103.218-.325.175-.454-.087-.261-.75-.512-.884-.166zm-4.362.539l-.01.006c-.036.13-.052.262-.05.395-.709.763 1.522 1.358 1.923 1.534.121-.96-.075-.89-.796-1.278-.15-.08-.882-.661-1.052-.659l-.015.002zm84.087-20.485l-.246.38c.425-.016.282.55.592.63.537.142.685-.117.899-.59l-1.245-.42zm-95.657 2.568l-.025.157c.036-.058.154-.002.025-.157zm-.161-2.419l-.509.209.583 1.39c.627-.36.084-1.129-.074-1.599z"/>
        <g fill="#000">
            <path d="M47.738 122.512l.24.259c-.22-.536-.3-.623-.24-.259M286.263 141.274a.02.02 0 0 0 .012-.012l-.012.012z"/>
            <path d="M446.644 275.786c-3.798 1.056-7.01 3.501-10.545 5.16-3.75 1.762-7.653 3.183-11.444 4.854-1.822.803-3.663 1.614-5.54 2.284-1.864.666-3.556 1.531-5.357 2.342-3.576 1.61-7.44 3.05-10.825 5.027-3.32 1.939-7.09 2.988-10.662 4.406-3.86 1.533-7.793 2.864-11.637 4.436-3.792 1.55-7.572 3.13-11.363 4.681-1.814.744-3.52 1.83-5.42 2.323a42.17 42.17 0 0 0-6.127 2.095c-7.767 3.326-15.425 6.964-23.07 10.567a500.054 500.054 0 0 0-5.575 2.669c-1.895.92-3.913 1.65-5.76 2.657-3.39 1.848-6.802 3.713-10.517 4.762-1.858.525-3.416 1.715-5.16 2.5-1.834.825-3.802 1.323-5.7 1.974-3.816 1.31-7.476 3.574-11.025 5.483-3.539 1.904-7 4.039-10.614 5.788-3.787 1.833-7.676 3.444-11.456 5.292-7.34 3.59-14.247 8.045-21.815 11.123-.58.236-1.494.758-2.151.658-.69-.105-1.156-.857-1.605-1.326-1.318-1.374-2.515-2.688-3.126-4.535-.552-1.665-.872-3.318-2.309-4.472-.419-.336-.866-.32-.374-.9.319-.375 1.593-.571 2.056-.755 1.651-.657 2.928-1.777 4.523-2.545 1.778-.855 3.503-1.742 5.181-2.784 3.389-2.105 6.802-4.096 10.271-6.064 1.7-.965 3.378-1.967 5-3.06.774-.523 1.531-1.109 2.414-1.44.96-.362 1.844-.523 2.753-1.048 3.576-2.063 7.367-3.799 11.1-5.558 3.542-1.67 7.187-3.442 10.88-4.738 1.844-.647 3.484-1.47 5.206-2.382 1.825-.966 3.82-1.547 5.71-2.37 3.321-1.45 7.184-2.42 10.187-4.474 1.419-.97 2.88-1.294 4.455-1.939 1.937-.794 3.864-1.603 5.808-2.386 1.862-.75 3.681-1.603 5.531-2.382 1.866-.785 4.025-1.263 5.748-2.335 3.043-1.895 6.738-2.648 10.034-4.072 3.874-1.674 7.877-3.02 11.749-4.705 3.738-1.626 7.642-3.033 11.289-4.85 1.705-.851 3.264-1.743 5.084-2.356 1.986-.668 3.884-1.546 5.815-2.356 3.59-1.505 7.355-2.485 10.968-3.93 7.356-2.943 14.266-6.818 21.262-10.517 3.592-1.9 7.158-3.766 10.896-5.363 1.757-.75 3.337-1.77 5.035-2.634 1.89-.96 3.853-1.763 5.807-2.58 1.77-.74 3.532-1.497 5.271-2.303.839-.39 2.176-1.522 3.076-1.493.838.027 1.09 1.348 1.397 2.016.78 1.7 1.725 3.332 2.634 4.965.778 1.401 1.563 2.8 2.362 4.188.502.875 1.012 2.03-.325 2.402zm-4.232 7.97c-1.747 1.622-2.704 3.91-3.994 5.877-1.443 2.2-3.04 4.312-4.641 6.398-1.658 2.16-3.38 4.27-5.173 6.319-1.667 1.904-3.47 3.732-4.896 5.832-1.34 1.973-2.17 4.292-3.723 6.12-1.524 1.795-3.614 2.94-5.186 4.7-.732.823-1.361 1.743-2.286 2.364-1.064.715-2.226 1.33-3.316 2.008-1.068.664-2.167 1.034-3.335 1.48-1.267.485-2.118 1.054-3.514 1.12.54-.5 1.043-1.117 1.671-1.504.535-.33 1.07-.336 1.667-.481 1.25-.304 2.17-1.19 3.413-1.52-1.301-.682-2.858.288-3.983.916-1.753.98-3.558 1.868-5.322 2.83-3.52 1.919-7.07 3.76-10.684 5.497-7.56 3.634-15.17 7.165-22.781 10.693-3.737 1.732-7.617 3.138-11.352 4.865-3.542 1.638-7.345 2.771-10.968 4.291-7.637 3.206-15.289 6.376-22.897 9.652-7.497 3.227-15.093 6.5-22.29 10.363-3.369 1.809-6.662 3.84-10.114 5.4-3.566 1.613-6.887 3.629-10.345 5.441-3.593 1.882-7.28 3.521-10.8 5.548a267.736 267.736 0 0 1-10.774 5.91c-.762.394-1.442.824-2.16 1.29-.887.578-1.724.758-2.702 1.105-.75.266-1.276.742-1.936 1.164-.773.496-1.648.51-2.331 1.127-1.37 1.237-2.89 1.78-4.594 2.518-1.992.862-3.869 1.925-5.748 3.008-3.457 1.99-7.027 3.743-10.502 5.69-.52.293-5.971 3.974-6.233 3.282-.16-.445 1.244-1.65 1.548-1.988a244.19 244.19 0 0 0 4.132-4.746c2.458-2.894 4.566-6.021 6.817-9.072 2.333-3.162 5.02-6.025 7.192-9.31 2.073-3.137 3.546-6.609 5.395-9.875.789-1.393 1.356-2.717 1.743-4.269.42-1.688 1.25-2.217 2.932-2.555 3.706-.742 7.385-2.735 10.664-4.573 3.328-1.865 6.751-3.953 10.334-5.277 3.63-1.34 6.983-3.256 10.521-4.83 3.742-1.662 7.24-3.702 10.827-5.662 3.57-1.952 7.279-3.663 10.902-5.514 1.682-.86 3.341-1.75 5.006-2.64 1.837-.982 3.678-1.321 5.625-1.986 3.625-1.237 6.844-3.11 10.326-4.65 1.724-.763 3.218-1.562 4.767-2.63 1.583-1.093 3.39-1.644 5.136-2.42 3.782-1.68 7.423-3.712 11.149-5.516 3.559-1.724 7.238-3.29 10.866-4.864 1.734-.753 3.528-1.282 5.3-1.928 1.97-.72 3.801-1.769 5.747-2.551 7.524-3.03 14.997-6.188 22.544-9.16 3.88-1.528 7.71-3.117 11.32-5.216 1.559-.906 3.311-1.298 4.915-2.136 1.678-.877 3.262-1.98 5.03-2.673.924-.362 1.93-.555 2.79-1.068.582-.348 1.034-.879 1.63-1.202 1.734-.94 3.814-1.415 5.609-2.282 3.668-1.772 7.49-3.18 11.186-4.89 3.582-1.657 7.033-3.575 10.536-5.387-.204.51-.232 1.171-.66 1.567zM215.104 405.2c-2.442 2.845-4.997 5.6-7.323 8.543-2.102 2.658-3.783 5.617-5.429 8.571-.557 1-1.164 2.444-2.33 1.246-1.143-1.17-1.937-2.886-2.778-4.278-.94-1.556-1.853-3.134-2.826-4.669-.73-1.15-1.864-2.25-1.222-3.693.597-1.34 1.745-2.63 2.55-3.86 1.04-1.594 2.078-3.192 3.2-4.732 2.15-2.951 4.49-5.763 6.738-8.638 2.412-3.084 4.747-6.228 7.09-9.364 2.039-2.73 3.955-5.564 6.234-8.105 5.346-5.958 9.16-13.084 13.992-19.437 1.826 3.775 3.373 7.713 5.366 11.404.808 1.497 2.034 2.705 2.803 4.227.904 1.792-.169 2.635-1.355 3.95.524-1.158 1.246-1.939.934-3.235-1.41.654-2.317 2.047-3.275 3.211a171.726 171.726 0 0 0-3.027 3.778c-2.203 2.834-4.373 5.696-6.542 8.556-4.211 5.55-8.26 11.234-12.8 16.525zm-17.49-23.593c-2.504.712-4.79 1.995-7.304 2.693-1.2.333-2.352.844-3.561 1.14-1.379.339-2.785.407-4.162.779-2.69.728-5.422 1.067-8.17 1.49-2.73.42-5.421.924-8.185 1.086-1.124.065-2.242.125-3.364.222-.913.08-2.313.346-2.888-.54-.538-.83-.557-2.393-.746-3.35-.17-.864-.307-1.738-.487-2.6-.252-1.205-.738-3.094-2.32-2.948-.924.084-1.702.907-2.385 1.457-1.14.918-2.253 1.856-3.312 2.868-1.04.994-2.066 2.018-3.014 3.1-.752.859-1.479 1.96-2.718 2.061-1.062.088-2.115-.441-3.14-.633-1.458-.272-3.04-.214-4.49.062-.28-2.21-.558-4.42-.837-6.631l-.306-2.43c-.108-.856-.47-1.935-.433-2.793.06-1.382 2.729-1.113 3.838-1.26 2.15-.282 4.298-.58 6.45-.834 1.021-.12 3.236.058 3.957-.829.897-1.103-.09-4.285-.275-5.53-.142-.95-1.025-3.48-.291-4.287.478-.525 1.734-.462 2.365-.56a40.825 40.825 0 0 0 3.05-.582c7.949-1.864 15.52-5.333 22.92-8.716 1.644-.751 2.968-1.646 4.242.074 1.277 1.725 2.48 3.514 3.726 5.264.965 1.356 2.46 2.534 2.018 4.339-.488 1.988-1.199 3.965-1.844 5.908-.42 1.266-1.9 4.51.742 4.193 1.874-.224 3.94-1.382 5.682-2.078.752-.3 1.484-.64 2.209-.156.807.538 1.402 1.796 1.97 2.567 1.456 1.975 2.977 3.898 4.353 5.933-1.075.55-2.12 1.189-3.29 1.521zm-39.381 7.695l-6.93.324c-.585.027-3.9.652-3.612-.416.113-.416 1.198-1.094 1.494-1.382a98.968 98.968 0 0 1 2.533-2.413c1.6-1.454 3.294-2.82 5.175-3.897l1.34 7.784zm-23.14-17.021c-.23-1.467-.707-3.25-.641-4.733.06-1.376 1.142-1.863 2.383-1.996 1.543-.166 3.118.004 4.67-.143 1.925-.183 3.825-.556 5.694-1.047.459 2.158 1.274 4.491 1.2 6.72-.061 1.83-1.93 1.556-3.295 1.753-2.28.329-4.542.738-6.837.966-1.383.137-2.902.202-3.174-1.52zm44.848-27.034zm-5.563-9.019c-.356-.596-.861-1.1-1.19-1.712-.288-.539-.388-1.113-.758-1.611-.833-1.12-1.974-1.958-2.753-3.151-.878-1.344-1.407-3.065-2.591-4.191-.515-.489-.899-.722-1.258-1.338-.391-.67-.797-1.135-1.265-1.75-.736-.965-1.202-1.914-2.03-2.847a49.723 49.723 0 0 1-2.927-3.608c-.413-.563-.885-2.236-1.65-2.467-.61-.184-.481.38-1.049-.153-.459-.43-.503-.733.083-1.11-.331-.308-.79-.027-1.16-.276-.356-.241-.4-.776-.588-1.128.432.043.864.082 1.297.122-1.722-2.295-3.34-4.668-5.148-6.899-1.56-1.927-2.8-4.122-4.74-5.656-.969-.766-.596-1.847-1.334-2.728-.28-.337-.69-.53-.95-.893-.268-.376-.32-.982-.65-1.3-.462-.447-.686-.052-1.189-.253-.358-.144-.603-.494-.853-.77-.13-.142-.624-.6-.625-.805-.002-.642.516-.14.744-.51-.993-1.5-2.044-2.957-3.095-4.417-.483-.672-1.616-3.208-2.611-2.148-.972-1.42-1.104-2.739-2.118-4.144-1.434-1.986-2.796-4.025-4.19-6.04-.677-.98-1.315-1.998-2.02-2.957-.592-.804-1.383-1.091-2.068-1.754-.633-.61-.902-1.84-1.384-2.679-1.958-3.41-4.633-6.164-7.015-9.256-1.487-1.931-2.884-3.924-4.33-5.886-.704-.955-1.468-1.858-2.194-2.795-.285-.369-.543-.716-.717-1.155-.102-.254-.105-.812-.269-1.003-.228-.267-.842-.942-1.18-1.373-.495-.63-1.308-.89-1.633-1.58-.206-.438-.07-.688-.45-1.074-.463-.47-.678-.483-.931-1.17-.382-1.033-.857-1.615-1.695-2.345-.803-.697-1.308-1.41-1.913-2.274-.454-.648-1.545-1.505-1.417-2.374.109-.732.874-.992 1.455-1.274 1.006-.486 1.979-1 2.938-1.577 2.022-1.215 3.697-2.724 5.332-4.415 1.495-1.548 2.985-3.43 4.697-4.728 1.52-1.151 2.915-3.219 4.282-4.772 1.605-1.824 3.18-4.15 5.246-5.478-1.193 5.681-.862 11.35-.169 17.084.723 5.977 1.922 11.713 3.306 17.559 1.343 5.673 2.364 11.405 4.506 16.866 1.028 2.622 2.278 5.127 3.214 7.788.435 1.237 1.67 4.658 3.413 4.516 1.096-.089 1.55-1.28 2.677-.39.815.645 1.13 1.686 1.634 2.539.547.927 1.715 1.213 1.771 2.358.028.568-.216.788.293 1.202.293.237.965.496 1.333.77-.036-.18-.245-.604-.167-.772.105-.227.44-.11.587-.321-.149.212-.418.162-.508.37-.204.475.38 1.176.61 1.528.567.866 1.227 1.57 2.01 2.248.744.643 1.459 1.53 2.28 2.063.817.53 1.702.602 2.476 1.276.669.583 1.186 1.293 2.038 1.618.966.369 1.505.746 2.28 1.42 1.7 1.476 4.382 1.992 6.482 2.71 2.249.77 4.736 1.285 7.072.617.353-.102.72-.272 1.092-.28.641-.013.597.256 1.046.469.669.316 1.316.136 2.07.034 2.465-.333 4.997-.83 7.472-1 1.22-.084 4.957.29 5.066-1.487 1.885.828 3.298-.153 5.01-.942 1.696-.78 3.98-.737 5.35-2.127.708-.72.773-.932 1.808-1.201.868-.227 1.761-.395 2.499-.941.722-.535 1.035-.908 1.9-1.244 1.006-.391 1.742-1.026 2.618-1.641 3.23 5.844 7.616 10.79 9.704 17.236 1.057 3.26 1.494 6.451 1.63 9.867.06 1.472.149 2.845-.372 4.25-.538 1.45-1.424 2.818-2.32 4.072-1.747 2.448-3.9 4.564-6.15 6.547-2.367 2.089-4.77 4.196-7.372 5.986a242.836 242.836 0 0 0-7.826 5.605c-2.755 2.06-5.577 3.374-8.761 4.62-.801.314-1.586.654-2.345 1.059-.603.32-1.513 1.012-2.257.744-.896-.323-1.618-2.074-2.145-2.839-.912-1.323-1.717-2.872-2.889-3.986-.403-.384-.618-.621-.902-1.08-.313-.505-.486-1.012-1.2-1.068-.004.553-.135 1.573.661 1.655-.614-.063-.67-.434-.66-1.655zm-6.618-7.273zm-15.949-22.964l-.307-.306c.26-.176.325-.1.544.092l-.237.214zm-28.696-39.682c-.355-.277-.314-.195-.183-.499.364.073.425.24.183.499zm.347.623c-.148-.054-.165-.135-.049-.243.159.052.175.134.05.243zm.094 1.765zm-3.001-4.632l.034.675c-.023-.445-.037-.873-.196-1.297.183.486.046.539.509.873l-.347-.25zm18.426 2.904c.02-.095.042-.189.06-.283-.018.094-.04.188-.06.283zm31.43 26.088l-.006-.323.006.323zm12.607-.132c.043.203.108.41.162.61l-.162-.61zm-3.723 1.579zm9.857-1.993c-.306.2-.508.539-.755.798.013-.183.603-.699.755-.798zm112.793 6.487c-.638-.137-1.467-.554-1.141-1.352-.712.04-.852-.65-1.154-1.135-.503-.808-1.217-1.427-1.844-2.13 1.55-1.137 3.42-1.7 5.175-2.43l-1.036 7.047zm-.998 2.452c.36-.806.672-1.632.998-2.452-.024.687-.723 1.837-.998 2.452zm-27.362-36.15l.144-.188c-.163.048-.21.11-.142.188h-.002zm-5.81-7.956c-.107-.003-.207-.075-.288-.213.08.138.181.21.289.213zm-2.275-3.057c-.747-.314-1.377-.812-1.91-1.446.533.633 1.163 1.131 1.91 1.446zm-2.106-1.689zm.377-1.505c-.253.024-.632.062-.845.231.141-.112.419-.178.845-.231zm5.738 6.127c-.196-.037-.242-.265-.39-.34-.178-.093-.41-.028-.53-.093-.432-.235-.3-.079-.477-.678-.223-.752-.775-1.085-1.07-1.67-.367-.732-.159-1.186-.919-1.684-.915-.598-2.03-1.051-2.529-2.117-.227-.486-.151-.966-.258-1.47-.078-.368-.601-1.03-.513-1.395.156-.64 1.864-1.073 2.432-1.338 2.687-1.256 5.377-2.506 8.066-3.758-.829 4.94-1.79 9.932-3.812 14.543zm2.465 6.43c.05.044.094.083.137.119a28.29 28.29 0 0 1-.402-.352c.1.086.187.164.265.233zm5.841 53.609c-.193-1.464.048-2.94.059-4.408.013-1.65-.204-3.284-.55-4.895-.658-3.067-1.63-6.074-2.458-9.099-1.71-6.242-4.068-12.294-6.34-18.348-2.168-5.778-4.6-11.413-8.476-16.271-1.752-2.197-3.863-4.332-5.107-6.879-.278-.568-.4-1.249-.724-1.786-.356-.592-.862-.807-1.364-1.233-1.173-.995-2.052-2.484-2.997-3.693-.872-1.116-1.655-2.335-2.616-3.376-.385-.418-.781-.773-1.273-1.056-.351-.201-1.027-.316-1.28-.64-.516-.656.337-1.432.71-2.08.896-1.55 1.656-3.2 2.48-4.793 1.75 4.159 3.493 8.219 6.046 11.961 2.47 3.62 5.04 7.147 7.76 10.583 5.296 6.69 10.53 13.434 15.65 20.255 1.2 1.597 2.512 3 3.818 4.5 1.461 1.678 2.77 3.494 4.197 5.203 2.72 3.256 5.151 6.748 7.91 9.965 2.738 3.194 5.854 5.983 8.783 8.99.755.776 3.319 2.683 3.228 3.882-.042.541-.518.636-.941.812-1.114.465-2.291.788-3.41 1.245-2.182.89-4.232 2.036-6.44 2.89-1.912.74-3.893 1.303-5.661 2.363-1.044.625-2.069.876-3.192 1.312-1.05.409-2.03.995-3.042 1.49-2.236 1.094-4.578 1.948-6.867 2.924 1.12-3.15 2.549-6.392 2.097-9.818zm-12.948-36.395l3.51 8.963c-2.886-.458-5.886-.608-8.613-1.751 1.312-2.658 3.313-4.879 5.103-7.212zm-14.186-23.024c1.133.155.965.662.691 1.693-.278 1.046-.523 2.058-.69 3.134-.436 2.82-.72 5.666-1.037 8.501-.3 2.672-.61 5.345-.862 8.022-.03.326.026 1.676-.448 1.744-.537.077-1.518-2.116-1.764-2.513a65.378 65.378 0 0 0-4.88-6.844c-.543-.664-1.669-1.546-1.766-2.468-.093-.883.729-1.496 1.29-2.038 1.992-1.927 3.99-3.85 5.965-5.796a27.58 27.58 0 0 0 1.93-2.083c.307-.373.982-1.432 1.57-1.352zm-27.696 51.743zm-.09-.36zm-36.535 45.373zm2.868 9.691c.748.998 1.475 2.022 2.26 2.99.442.546 1.433 1.38 1.162 2.178-.25.729-1.336.84-1.96 1.035-1.176.37-2.337.8-3.501 1.204l2.039-7.407zm-2.65-9.613c.161.16.128.513.265.677-.138-.163-.104-.517-.266-.677zm9.519 12.848c-.34-.221-.178-1.004-.268-1.329-.21-.766-.344-.483-.932-.754-1.14-.527.272-1.407-.53-2.295-.144-.158-.464-.125-.584-.293-.103-.144-.098-.34-.187-.478-.257-.4-.505-.876-.773-1.297-.424-.665-1.147-2.212-2.183-1.763l1.65-6.805c3.443 5.23 7.104 10.412 11.825 14.578-2.568.546-5.12 1.228-7.742 1.467.419-.441-.193-.631-.276-1.03zm8.622 11.127c-.188.133-.387.11-.612-.014.225.124.424.147.612.014zm24.448-23.49a158.845 158.845 0 0 0-7.239 8.598c-1.94-3.163-2.824-6.806-3.74-10.362 3.575 1.059 7.358.937 10.98 1.763zm21.94-16.264c-.865.288-1.696-.05-2.546-.203-.998-.179-1.99-.095-2.997-.05-2.133.098-4.267.17-6.4.265l6.584-13.465c1.004 4.764 3.497 9.003 5.36 13.453zm9.35-16.235c.813.985 1.628 1.969 2.445 2.95.527.634 1.166 1.857 1.862 2.298.849.538 1.507-.237 1.145-1.07-.391-.903-1.461-1.814-2.094-2.541-.667-.767-1.473-1.078-.662-1.844.666-.63 1.662-1.14 2.47-1.556 2.378-1.229 5.025-1.78 7.642-2.237-.487 2.338-1.242 4.65-2.115 6.87-.374.953-.83 1.835-1.402 2.683-.446.663-.498 1.42-.923 2.068-.488.742-1.38 1.116-2.15 1.486-.913.44-1.686.971-2.542 1.509-.912.573-2.098.687-2.922 1.304-.774.58-1.409 1.051-2.316 1.468-1.797.826-3.241 2.285-5.05 3.033-.875.361-.904.178-1.369-.656-.398-.716-.66-1.479-.965-2.236-1.857-4.615-3.585-9.28-5.436-13.898-1.63 2.944-2.985 6.032-4.62 8.97-.82 1.473-1.739 2.885-2.59 4.339-.519.887-1.69 2.336-1.457 3.446.335 1.598 3.019 1.447 4.226 1.39 3.135-.146 6.264-.706 9.36.123-.652 1.133-1.958 1.62-3.017 2.271-1.436.881-2.816 1.86-4.221 2.787-.71.47-1.402 1.009-2.148 1.417-.789.432-1.683.538-2.472.946-.616.317-1.056.862-1.631 1.233-.657.425-1.35.57-2.08.825-1.56.545-2.87 1.456-4.225 2.373-1.343.908-2.604 1.019-4.181.815-3.38-.438-6.815-.618-10.16-1.288.25 3.23.852 6.816 2.369 9.717.548 1.05 1.825 2.293 1.306 3.565-.42 1.028-1.763 1.998-2.482 2.823-2.188 2.512-4.313 5.169-6.922 7.263a14.851 14.851 0 0 1-4.188 2.38c-.517.192-1.586.757-2.068.596-.105-.035-.121-.34-.238-.379-.41-.14-.53-.129-.976-.099.601-1.26-.703-.979-1.342-1.575 1.524-1.864-1.884-2.738-2.609-3.903 1.13-.12.61-.835.082-1.404-.77-.826-1.647-.617-2.74-.629.82.009 1.634.132 2.45-.016.786-.143 1.528-.497 2.281-.754.884-.303 3.498-.575 3.808-1.583.318-1.036-1.353-2.289-1.966-2.931-1.278-1.34-2.655-2.566-3.846-3.987-2.264-2.702-4.329-5.632-6.285-8.562-.94-1.408-1.869-1.95-2.556-.01-.506 1.43-.423 3.04-1.176 4.387-.838-.608-1.046-1.203-1.567-2.067-.58-.958-1.427-1.682-2.078-2.577-1.415-1.943 1.302-1.972 2.599-2.403 2.144-.714 3.91-2.086 5.818-3.25a84.575 84.575 0 0 0 5.944-3.942c3.832-2.802 7.796-5.453 11.212-8.773 3.136-3.046 6.575-5.942 8.858-9.728 1.236-2.05 2.034-4.276 2.335-6.655.163-1.289.188-2.579.27-3.873.07-1.123.333-2.343.003-3.446l.051.182c1.132-1.237.364-2.748.042-4.129-.057-.245-.232-.56-.15-.822.103-.331.483-.108.54-.535.057-.434-.687-1.012-.877-1.372.208.056.415.112.623.166-.057-1.263.009-2.524-.295-3.761-.301-1.23-.864-2.418-1.377-3.57a58.623 58.623 0 0 0-1.518-3.195c-.11-.212-.108-.563-.362-.674-.426-.185-.816.29-.818.679.002-.38.152-.534.067-.93-.086-.402-.349-.82-.502-1.203a120.927 120.927 0 0 0-1.28-3.097c-.39-.903-.759-1.829-1.204-2.705-.15-.296-.396-.592-.484-.914-.13-.477.009-.431.088-.817.019-.098.197-.25.226-.38.053-.233-.205-.52-.145-.76.077-.307.27-.43.52-.587.809-.507 1.178-.337 1.726-1.226.447-.725 1.164-1.105 1.782-1.7.737-.71 1.378-1.178 1.995-2.044.649-.91 1.43-1.759 1.978-2.735.376-.668.315-1.702.869-2.243.336-.33.848-.425 1.203-.773.36-.352.646-.826.984-1.202.838-.934 1.751-1.8 2.612-2.714 3.45-3.66 6.725-7.587 9.443-11.826 1.37-2.137 2.612-4.358 3.878-6.558.133-.231.846-1.917 1.253-1.925.448-.009 1.198 1.77 1.474 2.125 1.382 1.778 2.678 3.535 3.863 5.458.46.748.916 1.151.416 1.87-.612.883-1.773 1.616-2.571 2.344-1.91 1.742-3.825 3.48-5.717 5.244-1.009.94-3.589 2.585-3.685 4.105-.124 1.946 2.527 4.058 3.62 5.418 1.521 1.893 2.775 3.938 4.035 6.006.53.868 2.452 4.672 3.878 3.99.73-.35.824-1.366.934-2.062.186-1.169.357-2.34.516-3.512.775-5.733 1.338-11.493 2.327-17.196 2.382 2.73 4.462 5.72 6.603 8.639a20.299 20.299 0 0 1 2.324 4.012c.604 1.398 1.543 3.093 1.785 4.609.482 3.016-10.719 10.051-4.418 12.472 2.754 1.058 5.958.648 8.723 1.61 1.463.508 1.7 1.828 1.944 3.192.306 1.706.799 3.383 1.252 5.055.984 3.629 2.453 7.435 2.453 11.224 0 1.25.258 2.819.072 4.042-.25 1.643-2.68 1.576-3.986 1.822-1.293.243-11.395 3.03-9.408 5.44zm45.663-14.922c.411-.395.453-.285.185.23l-.185-.23zm4.418 4.16c-.178.402-.671.524-.923.506.251.017.745-.103.923-.506zm-159.881-52.8c2.736-3.798 6.424-6.903 9.401-10.525 3.226-3.924 6.669-7.657 10.111-11.39 6.857-7.432 13.506-15.02 20.516-22.312 6.935-7.215 14.313-13.954 21.85-20.53 3.468-3.028 6.555-6.502 10.22-9.289 1.92-1.461 3.813-2.957 5.769-4.373.947-.685 1.52-.987 2.507-.212.702.55 1.26 1.28 1.907 1.893 1.903 1.804 3.837 3.554 6.039 4.989.963.627 4.214 2.78 5.21 1.356.398-.568.267-1.536.326-2.2.123-1.38.308-2.762.483-4.136.356-2.8.867-5.576 1.325-8.361 2.327.612 4.694 1.015 6.845 2.148 2.065 1.088 4.002 2.3 5.921 3.618.757.52.928.503.767 1.367-.075.396-.281.603.012.991.238.315.772.235.868.727.094.482-.586 1.401-.893 1.724-.833.875-2.005 1.558-2.96 2.298-1.062.821-4.02 2.35-4.075 3.902-.039 1.119 1.112 1.56 1.963 1.966 1.142.546 2.298 1.065 3.424 1.645a31.342 31.342 0 0 1 6.273 4.273c1.76 1.54 3.131 3.439 4.834 5.018.563.523 1.83 1.682 2.51.766.556-.75.206-2.607.21-3.482.016-2.905.088-5.87.494-8.75 3.401 3.57 6.122 7.542 8.981 11.544 2.976 4.166 6.071 8.241 8.995 12.445.726 1.042 2.847 2.892 2.16 4.257-.33.657-1.081 1.14-1.587 1.657-.84.86-1.62 1.793-2.412 2.697-1.543 1.757-3.646 3.62-4.717 5.717-.984 1.926 1.184 3.057 2.694 3.636 2.282.875 4.775.875 7.171 1.154 2.628.307 5.26.995 7.923.786-.316-1.088-.53-2.1-1.728-2.469-1.375-.421-2.945-.347-4.366-.485-3.246-.316-6.484-.831-9.7-1.363 2.524-3.582 5.288-6.988 8.163-10.292 4.812 6.622 7.654 14.382 12.433 20.997 4.779 6.616 9.527 13.386 12.76 20.934l-1.203-.576c-2.102 4.75-1.72 10.262-4.234 14.863-1.057-2.389-2.927-4.136-4.62-6.062-.789-.897-2.532-2.762-1.925-4.092.38-.837 1.884-1.223 2.648-1.591 1.285-.62 2.462-1.441 3.634-2.25.816-.561 1.85-1.024 2.578-1.693.575-.528 1.017-1.615-.146-1.366-1 .215-2.047 1.15-2.924 1.653a76.727 76.727 0 0 1-3.888 2.094c-.85.424-1.83.654-2.647 1.127-1.08.626-1.009 1.526-.667 2.626.751 2.422 2.324 4.288 4.033 6.102.882.936 1.746 1.862 2.381 2.99.417.743.769 1.783 1.653 2.098 2.063.735 2.719-4.262 3.027-5.465.873-3.402 1.645-6.83 2.459-10.247.869.465 1.26 1.452 1.723 2.261.517.9 1.058 1.786 1.586 2.679.615 1.04 1.191 2.117 1.86 3.123.436.655 1.15 1.325 1.22 2.146.083.982-.715 2.02-1.128 2.861-.448.917-.832 1.865-1.237 2.8-.925 2.14-1.904 4.26-2.758 6.43-.86 2.182-1.474 4.448-2.305 6.64-.792 2.09-1.716 4.131-2.604 6.182-.848 1.957-1.38 3.962-2.133 5.943-.881 2.316-2.04 4.539-3.065 6.792-.037-.174-.676-.395-.828-.529-.328-.286-.175-.55-.687-.531-.497.017-.404.614-1.017.236-.371-.228-.451-.771-.392-1.082.078-.407.405-.349.261-.84-.05-.17-.377-.255-.472-.4-.157-.238-.142-.565-.26-.816-.457-.97-1.624-1.404-2.031-.232a549.31 549.31 0 0 1-.366-.673l.608-.078c-.33-.84-.338-1.744-.814-2.442-.428-.627-.82-.99-.769-1.765.056-.833.382-2.02.548-2.962.215-1.224.37-2.458.52-3.69.21-1.728.866-4.4-.575-5.781-.713-.684-1.367-.49-2.183-.103a64.022 64.022 0 0 0-3.411 1.756c-.733.404-1.609 1.007-2.492.76-.924-.258-1.57-1.5-2.068-2.223-.77-1.117-1.504-2.23-2.401-3.251-.755-.859-1.364-1.895-2.272-2.587-.731-.557-1.452-1.138-1.809-2.017-.121-.3-.072-.716-.297-.97-.253-.287-.667-.258-.95-.608-.664-.821-.5-1.886-1.732-2.299-.474-.158-2.183-.266-.885-.963-.958-1.49-2.034-2.897-3.1-4.31-.534-.704-1.068-1.409-1.583-2.127-.245-.34-.474-.835-.763-1.132-.226-.232-.485-.27-.687-.46-.48-.449-.438-.793-.719-1.366-.3-.616-.938-1.038-1.426-1.494-1.33-1.244-2.066-2.883-2.933-4.457-.379-.688-.956-1.442-1.208-2.19-.23-.683-.044-.866.225-1.615a67.863 67.863 0 0 0 1.74-5.473c.417-1.559.684-3.147 1.067-4.712.327-1.338.831-2.655.91-4.043.067-1.196-.247-2.429-1.327-3.098-1.435-.89-3.022.252-4.306.908a2633.11 2633.11 0 0 0-4.892 2.502c-.792.406-2.822 2.06-3.742 1.425-.375-.259-.413-.818-.542-1.214-.192-.586-.46-1.021-.84-1.512-.417-.542-.914-1.017-1.237-1.628-.292-.55-.314-1.108-.839-1.478-.495-.35-.514-.109-.69-.77-.164-.614-.112-1.022-.56-1.578-.409-.505-.95-.892-1.322-1.43-.288-.418-.302-.783-.48-1.255-.466-1.238-2.148-2.247-2.178-3.6-.028-1.234 1.213-2.119 1.095-3.45-.298-3.367-3.675-.347-4.667.797-.314.363-.62 1.01-1.176.987-.434-.017-.674-.595-1.075-.635-1.11-.111-.186 1.852-.33 2.533-.327 1.559-1.614 2.989-2.382 4.355-.945 1.68-1.74 3.443-2.64 5.147-.287.54-1.066 2.65-1.768 2.92-1.144.44.025-1.81.156-2.15.585-1.517.786-3.224 1.074-4.814.33-1.817.77-3.602 1.233-5.39.443-1.71.897-3.42 1.228-5.156.21-1.093.882-2.944.444-4.032-.485-1.201-1.794-.837-2.77-.505-1.62.55-3.223 1.18-4.82 1.793-4.015 1.54-8.17 2.749-12.1 4.488-.707.313-4.36 1.616-3.684 2.549.51.704 3.342-.87 3.873-1.065a137.798 137.798 0 0 1 5.9-2.02c2.1-.663 4.196-1.321 6.238-2.153 2.008-.818 3.917-1.978 6.017-2.553-.335 3.953-1.795 7.847-2.565 11.736-.38 1.92-.815 3.82-1.247 5.728-.201.885-.26 2.617-1.19 3.084-1.044.524-2.443-.821-3.184-1.426-1.457-1.187-2.744-2.543-4.001-3.936-.708-.785-6.865-8.136-7.664-7.366-.296.285 8.404 9.734 9.309 10.585 1.353 1.275 3.448 3.55 5.425 3.715.385.033 1.387-.325 1.54.116.15.43-1.003 1.134-1.242 1.361-1.595 1.518-2.722 3.564-3.967 5.361-1.42 2.048-3.075 3.888-4.738 5.737-.627.697-1.26 1.385-1.818 2.138-.445.602-.932 1.53-1.622 1.882-.644.329-.874.04-1.329-.443-.869-.922-1.757-1.826-2.633-2.74-3.433-3.587-7.015-6.817-11.283-9.395-.521-.314-1.304-.776-1.528.022-.293 1.044.792 1.154 1.428 1.412 2.095.85 4.049 2.764 5.731 4.233 1.954 1.705 3.775 3.541 5.583 5.398.865.889 3.024 2.135 1.507 3.307-1.623 1.255-3.949 1.78-5.744 2.788-2.145 1.205-4.097 2.716-6.245 3.924-1.839 1.033-3.767 1.853-5.642 2.805-.47.237-1.494.686-1.555 1.317-.071.734.612.687 1.122.597 1.758-.31 3.736-1.293 5.309-2.072a59.237 59.237 0 0 0 3.723-2.042c.796-.469 1.333-1.193 2.026-.341-1.315.944-2.472 1.958-3.837 2.811-.481.302-.687.776-1.09 1.165-.567.543-1.356.865-2.01 1.294-1.406.92-2.66 2.04-4.12 2.884-1.544.895-3.197 1.587-4.757 2.453-1.21.673-2.06 1.657-3.439 2.012-.729.188-1.5.255-2.208.524-.643.244-1.118.756-1.748.992-.45.168-1.146.232-1.612.291-.214.028-.354.11-.581.135-.167.018-.411-.196-.609-.185-.677.038-1.447.571-2.129.712-.725.15-1.47.225-2.205.315-1.381.169-2.895.403-4.229-.083-1.255-.458-2.307.107-3.636-.14-1.434-.268-2.573.446-3.954.303-.57-.06-.754.173-1.303.253-.67.098-1.601-.565-2.262-.726-3.195-.778-6.162-1.743-8.938-3.567-1.17-.767-2.137-1.795-3.515-2.12-1.309-.31-1.873-1.427-2.95-2.202-.998-.72-4.913-2.78-4.131-4.257.261-.495 1.107-.832 1.558-1.128.726-.478 1.424-1 2.138-1.495a63.731 63.731 0 0 1 5.017-3.147c-.238 2.035-.392 4.097-.752 6.114-.107.595-.439 1.402-.255 2.013.226.75.975.812 1.475 1.32.266-1.703.488-3.413.775-5.11.237-1.402.697-3.022.301-4.436-.976-3.488-4.288-.362-5.874.766-1.254.894-2.515 1.78-3.77 2.673-.719.51-1.735 1.455-2.7 1.235-1.225-.278-1.537-1.89-1.464-2.935.117-1.7-.18-2.145-1.732-2.874 1.822-2.396 3.694-4.756 5.455-7.199zm73.952-85.928c.467.72 2.193 2.591 1.783 3.416-.224.45-1.469 1.046-1.884 1.347l-2.38 1.727 2.481-6.49zm19.893.983a132.868 132.868 0 0 0-1.024 8.332c-.093.988.176 4.83-1.256 4.93-.76.052-1.712-.776-2.329-1.144a27.97 27.97 0 0 1-2.912-2.006c-1.988-1.56-4.095-3.088-5.696-5.065 3.928-2.735 8.64-3.906 13.217-5.047zm18.181 8.099l-.376-.247.376.247zm1.866 2.258c1.282 1.307 2.54 2.647 3.827 3.952-.833-.844-1.65-1.707-2.486-2.548-.8-.803-.77-.966-1.771-.375.76 1.16 1.251 2.388 2.667 2.847 1.647.534 3.03.557 3.848 2.379.749 1.67.23 3.64.111 5.38-.154 2.242-.094 4.502-.161 6.747-1.32-.252-2.1-1.61-2.855-2.586a24.824 24.824 0 0 0-3.612-3.737c-2.837-2.394-6.232-3.995-9.511-5.677 1.9-1.55 3.803-3.096 5.7-4.65 1.17-.958 2.814-3.19 4.243-1.732zm71.372 115.222c1.654-4.815 3.16-9.693 4.996-14.443.889-2.298 1.944-4.527 2.977-6.762.852-1.843 1.503-3.924 2.634-5.61 1.217-1.817 2.225-3.787 3.322-5.68.51-.882.866-1.844 1.441-2.688.647-.949 1.426-1.803 2.097-2.735 1.347-1.874 2.457-3.915 3.858-5.749 1.401-1.835 2.981-3.603 4.555-5.292 1.217-1.305 2.768-3.374 4.596-3.764 1.945-.414 2.18 1.958 2.513 3.374.548 2.333.685 4.749.884 7.13.203 2.447.344 4.892.183 7.346-.307 4.684-.656 9.563-1.464 14.187-.404 2.317-1.076 4.568-1.567 6.866-.325 1.528-.385 3.412-1.585 4.565-.816.782-2.086 1.11-3.113 1.527-1.328.538-2.665 1.054-3.99 1.598-2.453 1.007-4.993 1.78-7.443 2.792a110.43 110.43 0 0 1-7.776 2.859c-1.388.456-2.68 1.079-4.025 1.643-1.232.516-2.59.743-3.76 1.403.22-.856.38-1.73.667-2.567zm-18.667 9.2c.43-.43.336-.99.419-1.53.091-.595.364-1.073.545-1.637.357-1.114.199-2.088.774-3.124 1.306-2.35 1.287-5.35 2.127-7.881 2.035-6.134 4.028-12.272 5.918-18.455 1.42 1.8 2.813 3.625 4.27 5.396 1.18 1.433 3.069 2.945 3.804 4.671.62 1.455-.784 3.716-1.213 5.112-.636 2.067-1.28 4.16-1.674 6.291-.328 1.769-.286 3.733-1.02 5.403-.73 1.662-2.49 1.793-4.022 2.329-2 .7-3.923 1.606-5.878 2.418-.894.371-1.728.75-2.552 1.258-.403.248-1.999 1.093-1.498-.252zm-35.97-113.607c4.983-.73 8.297-3.647 11.968-6.809 1.864-1.604 3.506-3.413 5.25-5.14 1.73-1.711 3.545-3.384 5.13-5.235.696-.813 1.18-1.767 1.834-2.61.618-.795 1.432-1.41 1.99-2.257 1.08-1.641 2.249-3.554 2.911-5.4 1.617-4.506 3.849-8.767 5.95-13.054 1.174-2.398 2.02-4.936 2.968-7.427.984-2.584 1.996-5.16 2.797-7.809 12.994 17.141 26.146 34.159 39.204 51.249 6.674 8.735 13.345 17.47 20.012 26.21 3.194 4.188 6.511 8.271 9.81 12.374 3.222 4.005 6.163 8.296 9.213 12.435 1.674 2.273 3.672 4.266 5.295 6.582 1.602 2.286 3.356 4.467 5.188 6.572 1.803 2.072 3.395 4.311 5.203 6.368 1.77 2.014 3.028 4.449 4.959 6.325-4.048 1.77-8.138 3.443-12.125 5.346-1.98.945-4.032 1.723-6.008 2.673-1.946.937-3.722 2.202-5.743 2.98-4.181 1.61-8.362 3.269-12.581 4.772-2.117.754-4.3 1.286-6.436 1.976-2.217.716-4.31 1.736-6.467 2.606-.198-1.539.356-3.079.65-4.569.342-1.735.638-3.49.811-5.25.346-3.503.474-7.091.638-10.61.318-6.813.434-14.505-2.48-20.85-.973-2.114-2.674-4.23-5.046-4.774-3.09-.709-5.351 1.95-7.332 3.903-2.527 2.493-4.714 5.319-6.807 8.18-1.01 1.382-1.983 2.75-2.793 4.262-.782 1.458-1.853 2.584-2.697 3.98-4.044 6.685-7.265 13.835-9.834 21.209-1.085-1.652-2.024-3.334-3.415-4.761-1.062-1.09-2.196-2.102-3.344-3.099-.773-.671-1.887-1.514-1.627-2.657.27-1.18 1.763-2.033 1.154-3.383l-1.701 1.55c-3.194-5.672-6.75-11.109-9.941-16.778-1.58-2.805-3.123-5.633-4.76-8.407-1.517-2.573-3.442-4.85-5.207-7.25-3.634-4.935-5.73-10.758-9.017-15.902-.667-1.042-1.524-1.946-2.182-2.988-.293-.467-.531-.807-.381-1.337.092-.322.595-.59.59-.933-.015-.834-1.35-.206-1.903-.54-.445-.267-.749-.958-1.043-1.377-.537-.762-1.057-1.535-1.585-2.303-4.184-6.08-8.556-12.033-13.04-17.894.656-.048 1.317-.053 1.97-.149zm33.964-73.513c-.378-.371-.504-1.036-.969-1.325-.467-.29-.894-.097-1.33-.449-.16-.13-.822-.899-.928-1.084-.05-.089-.035-.46-.143-.655-.199-.359-.591-.462-.852-.744-1.123-1.215.177-1.936.217-3.294.023-.79-.162-1.247.32-1.948.367-.534 1-1.177 1.48-1.627.34-.32.373-.257.75-.47.17-.096.286-.005.49-.141.39-.262.668-.941.906-1.323.703-1.128 1.057-1.947.459-3.208-.29-.61-.79-1.687-1.597-1.366-.444.176-.856 1.13-1.116 1.512-.498.735-.965 1.593-1.587 2.235-.434.45-1.064.544-1.485.946-.53.507-.331 1.11-.493 1.761-.336 1.35-1.792 2.683-2.64 3.742-.862 1.076-1.757 2.14-2.834 3.01-.965.78-2.66 1.97-3.98 1.84-2.258-.22.178-5.851.727-6.937 1.118-2.207 4.36-4.492 3.261-7.235-.496-1.242-1.46-1.958-2.67-1.112-1.502 1.051-2.677 2.69-4.123 3.848-1.512 1.21-3.109 2.31-4.688 3.43-.864.613-1.738 1.214-2.594 1.837-.657.478-1.323 1.116-2.202 1.023 1.813-4.105 3.623-8.227 5.841-12.132 1.043-1.838 2.336-3.476 3.666-5.11.996-1.222 2.14-2.517 1.695-4.213-.339-1.286-1.436-2.87-2.913-2.245-.948.402-1.611 1.442-2.461 2.012-.73.49-1.281.918-1.93 1.507-.72.655-1.762.95-2.616 1.377-.937.468-1.849.989-2.804 1.42-2.039.92-4.233 1.252-6.404 1.713 1.15-3.514 3.547-6.384 5.794-9.245 1.266-1.612 2.393-3.329 3.674-4.93 1.266-1.58 2.696-3.02 3.953-4.607l.625 1.254c.645-.496.634-1.468 1.251-2.017.76-.676 1.863-.696 2.822-.675 2.087.047 4.055.638 5.873 1.648 3.745 2.08 6.807 5.153 9.434 8.5a60.541 60.541 0 0 1 3.887 5.577c.58.938 1.148 1.925 1.394 3.011.27 1.195-.046 2.335-.101 3.532-.105 2.281.252 4.612.424 6.886.182 2.415.508 4.804.811 7.205.16 1.273.269 2.547.335 3.828.02.392.137.925.032 1.303-.096.348-.494.56-.576.902-.094.39.035.347.244.787.268.565.28 1.023.236 1.65-.097 1.371-.211 2.737-.287 4.11-1.069-.198-2.52-.96-3.123-1.914-.327-.518-.202-.897-.239-1.47-.05-.781-.36-1.385-.916-1.93zm-38.291-48.646zM262.42 53.271zm.144.892c-.135-.218.07-.658-.1-.853.053.061.08.857.1.853zm85.742 115.498l.556.538-.556-.538zm2.043-.348c-.083-.098-.166-.197-.253-.295.087.098.17.197.253.295zm1.647 1.767l.046-.147c-.015.214-.112.216-.293.008.082.047.165.092.247.14zm1.197 1.193zM89 230.753c-.548-.136-1.407-.72-1.993-.6-.254.053-.77.341-.398.581.177.115-1.011.216-1.028.215-.724-.026-1.458-.143-2.177-.231-1.271-.156-2.538-.342-3.808-.508-2.55-.334-5.01-1.002-7.529-1.494-4.865-.95-9.208-2.773-13.634-4.97-9.079-4.507-15.932-12.459-22.334-20.1 4.735-.576 9.599-1.405 13.79-3.815 4.36-2.507 7.529-5.985 10.924-9.6l1.21 1.885c.219-.816.436-1.634.654-2.45l30.275 41.477c-1.323-.026-2.66-.068-3.952-.39zm-50.102-13.825c1.355.297 1.769.786 2.092 2.274-.323-1.487-.737-1.976-2.092-2.274zm-12.025-60.817zm-2.558 11.55l.108-1.834c.329 1.11 1.049 1.38-.213 2.187l.105-.352zm1.307 1.05c-.081.221-.133.183-.155-.116l.155.115zm2.935-16.809c2.047-4.178 3.995-8.404 6.381-12.404 1.889-3.165 4.058-6.712 7.638-8.146.417 3.475-1.342 6.732-2.623 9.838-.717 1.738-1.426 3.418-2.351 5.056-.837 1.482-1.156 3-.084 4.467.642.88 1.87 2.061 3.046 1.638.698-.251 1.212-1.097 1.69-1.626.68-.755 1.419-1.458 2.135-2.177a188.197 188.197 0 0 1 4.096-4.014c1.247-1.179 2.474-2.836 4.19-3.336-.278 1.844-.826 3.626-1.331 5.415-.516 1.825-.932 3.704-1.73 5.433-.781 1.69-1.965 2.928-3.087 4.375-.96 1.236-.572 2.618.344 3.784 1.07 1.363 2.36 1.98 3.44.428 1.168-1.678 2.306-3.157 3.71-4.646 1.18-1.251 2.38-2.115 3.785-3.109.56-.396 1.625-1.527 2.405-1.307 1.07.303.769 2.957.75 3.803a21.783 21.783 0 0 1-.939 5.843c-.986 3.23-2.049 6.59-4.38 9.101-1.9 2.046-6.741 4.817-4.286 7.983 1.072 1.384 2.23 2.712 3.341 4.065.69.84 2.847 2.562 2.466 3.825-.256.849-1.553 1.676-2.178 2.26-.85.793-1.71 1.576-2.59 2.336-1.617 1.398-3.295 2.732-5.08 3.91-3.627 2.392-7.937 3.508-11.494 6.012.212-.144.426-.283.645-.417-.707.027-1.21-.986-1.564-1.476-.173-.238-.498-.542-.613-.808-.133-.31.044-.585-.015-.765-.132-.399-.319-.277-.528-.512-.361-.408-.23-.355-.408-.846-.128-.347-.36-.572-.52-.898-.287-.583-.205-1.227-.226-1.856-1.643.495.18-1.95-.148-2.49-.311-.511-.97-.484-1.204-1.142-.248-.695-.32-1.49-.574-2.21-.257-.73-.586-1.48-.589-2.265-.003-.696.282-1.24-.329-1.77-.375-.325-.959-.313-1.315-.68-.544-.562-.34-1.335.27-1.76-.642-.208-1.153-.632-1.25-1.333-.092-.65.209-.749.474-1.27.842-1.652-1.55-1.162-1.544-2.718.003-.739.528-1.429.621-2.162.1-.777.013-1.724-.111-2.491-.099-.602-.498-.914-.65-1.417-.171-.568.202-.862.187-1.391-.017-.592-.627-1.077-.621-1.68.006-.61.528-.98.57-1.622.047-.736-.407-1.147-.519-1.794-.165-.96.36-.484.77-.982.27-.326.033-.575.034-.943.001-.471.083-.66.286-1.087.266-.562.615-1.074.766-1.686.176-.72.112-1.447.315-2.152.285-.994.143-1.262-.49-2.053-.13.653-.622 1.188-.669 1.865.09-1.29 1.128-2.856 1.685-3.996zm-5.633 32.776c-.254-.143.067-.281.194-.143l-.194.143zm56.667-56.535zM62.808 72.146zm.13-.13zm.493-.222c-.138.069-.284.118-.421.184.135-.065.299-.105.42-.184zm1.242 58.065zm106.468-12.552c-.538-3.436-1.337-6.962-.775-10.448.174-1.085.29-2.717 1.33-3.355 1.441-.885 3.981-.674 5.624-.918 3.402-.505 6.665-1.593 9.812-2.96 1.683-.731 3.152-1.862 4.73-2.786 1.595-.935 3.137-1.913 4.556-3.108 1.084 1.837 2.716 3.354 4.494 4.512 1.577 1.026 3.66 1.736 2.869 3.982-.71 2.015-.825 4.025-1.295 6.092-.53 2.327-1.695 4.463-2.706 6.604-.3-.56-.466-1.144-.585-1.764-.923.417-2.16 1.953-2.94.692-.283-.457-.155-1.559-.895-1.498-1.115.09-.758 2.096-.517 2.674.554 1.326 1.58 1.823 2.91 2.134-3.27 2.798-5.854 6.238-9.263 8.915-1.701 1.336-3.8 2.147-5.795 2.953-1.262.51-2.648.748-3.994.458-5.006-1.075-6.88-7.845-7.56-12.179zM453.222 273.74c-1.478-1.42-2.12-3.421-2.849-5.28-.827-2.108-1.785-4.146-3.061-6.021a51.372 51.372 0 0 0-3.825-4.929c-.386-.44-.87-1.044-1.534-.956-.744.1-.917.898-1.315 1.398-.562.705-1.441 1.038-2.198 1.492-.935.56-1.82 1.202-2.764 1.749-1.798 1.043-3.91 1.556-5.806 2.419-.891.405-1.788.8-2.682 1.201-.598.268-1.563.999-2.224 1.029-1.397.063-3.05-2.897-3.748-3.91-1.141-1.659-2.635-3.084-3.708-4.77-1.12-1.757-2.146-3.508-3.406-5.18-1.314-1.742-2.671-3.459-3.94-5.235-.483-.677-.887-1.455-1.482-2.045-.643-.637-1.294-.644-1.688-1.506-.127-.277-.228-.78-.49-.968-.457-.327-.507.08-.89.027-.399-.055-.3.07-.506-.26-.038-.06.13-.278.094-.377-.063-.173-.212-.307-.281-.469-.308-.727-.212-1.306-.708-2.004-.63-.885-1.179-1.825-1.758-2.745-2.312-3.673-5.236-6.857-7.805-10.293-.31-.415-.752-.676-1.017-1.129-.232-.398-.23-.933-.527-1.298-.327-.405-.699-.302-1.069-.567-.316-.228-.396-.484-.558-.838-.784-1.716-2.13-2.982-2.995-4.663-.49-.954-1.2-1.574-1.9-2.365-.82-.925-1.46-2.006-2.191-3-.683-.93-1.373-1.874-2.11-2.76-.68-.817-1.004-.885-1.53.108-.722-.682-1.473-1.236-2.042-2.058-.484-.7-1.008-.623-1.848-.95.536.209.944.553 1.32-.071.41.844 1.331-.231.993-.902-.374-.743-1.455-.662-2.15-.75.14-.9.812-.268.6-1.203-.177-.778-1.138-1.531-1.623-2.112-1.34-1.603-2.49-3.377-3.697-5.08-1.211-1.71-2.354-3.481-3.663-5.12-.54-.676-1.097-1.397-1.718-2.002-.268-.26-.567-.562-.92-.71-.218-.092-.769-.023-.919-.203-.302-.362.006-1.21-.168-1.707-.268-.764-.885-1.59-1.366-2.226-1.244-1.638-2.464-3.318-3.745-4.926-1.242-1.56-2.53-3.028-3.615-4.709-.556-.861-1.212-1.574-1.853-2.368-.507-.626-.874-1.349-1.608-1.751.135.366.213.75.325 1.124-.127-.422-.132-1.014-.474-1.33-.41-.377-1.011-.144-1.462-.457.365.253.847.325 1.278.244-1.35-2.118-2.551-4.527-4.53-6.143-.253-.207-.61-.562-.922-.65-.19-.054-.8.126-.898.055-.622-.453-.02-1.641-.327-2.277-.327-.673-1.15-1.169-1.556-1.85-.64-1.073-1.094-1.784-2.03-2.598-.587-.512-.896-1.193-1.318-1.858a87.766 87.766 0 0 0-2.278-3.433c-1.49-2.119-3.262-3.97-4.831-6.019-.732-.956-1.238-2.115-2.05-3.004-.625-.684-1.475-1.094-2.012-1.865-.656-.944-1.1-2.001-1.79-2.937-.486-.657-.993-1.29-1.449-1.966-.616-.914-1.852-3.019-3.17-1.884.153-1.91.379-3.832.456-5.746.02-.507-.104-1.131.164-1.59.28-.481.513-.457.66-1.024.392-1.52-.458-3.71-.66-5.217-.251-1.868-.316-3.754-.667-5.61-.35-1.848-.744-3.654-1.013-5.518-.247-1.72-.492-3.429-1.028-5.078-.504-1.553.474-2.788.467-4.378-.008-1.72-.588-3.443-1.177-5.042-2.157-5.858-6.254-11.672-11.046-15.686-3.652-3.06-9.984-6.646-14.522-3.352-.624.454-.894.85-1.678.505-.627-.277-.8-.896-1.59-.77-.769.124-1.404.993-1.938 1.493-.738.691-1.521 1.338-2.287 2-1.402 1.21-2.604 2.498-4.147.764-.418-.468-.93-1.666-1.59-1.801-.536-.11-.663.424-1.088.04l-.093.178c.188-.362-.156-.611-.174-.954l-.142-.335c.106-.14.193-.291.26-.453-.048-.517-.642-1.088-.95-1.461-1.008-1.219-1.792-2.596-2.8-3.81-1.201-1.448-2.195-2.954-3.285-4.48-1.13-1.581-2.559-2.943-3.733-4.5-2.424-3.219-4.722-6.537-7.182-9.727-.51-.66-3.54-5.537-4.686-4.672.015-1.353-1.007-1.945-1.953-2.773-.565-.494-.955-1.023-1.435-1.584-.401-.47-.941-.75-1.345-1.2-.36-.402-.415-.872-.664-1.331-.283-.523-.71-.81-1.155-1.184-1.06-.895-1.952-1.999-3.234-2.598-.103 2.883 2.052 5.274 3.594 7.49 1.882 2.707 3.635 5.505 5.458 8.252 3.597 5.423 7.473 10.652 11.45 15.8 2.084 2.694 4.244 5.332 6.218 8.108.793 1.115 1.586 2.183 2.493 3.21.997 1.128 1.655 2.472 2.552 3.67.647.864 1.713 1.656 1.613 2.847-.097 1.152-1.282 2.798-1.921 3.734-1.458 2.132-3.819 3.173-3.944 5.978-.118 2.651.964 6.155 3.506 7.47 2.646 1.371 6.471-.532 8.928-1.42-1.056 2.648-2.171 5.272-3.198 7.931-.95 2.46-1.697 5.003-.777 7.593 2.234 6.282 9.406-1.103 12.09-3.172-.24 2.768.004 6.549 2.272 8.542 1.648 1.45 4.286.723 6.013-.146 1.321-.664 1.756-.621 2.861.478.94.936 1.95 1.612 3.036 2.378 2.582 1.82 4.378 3.964 6.318 6.405 1.07 1.347 1.726 2.267 1.29 4.07-.39 1.612-.907 3.243-1.45 4.81-1.034 2.99-2.659 5.735-3.952 8.612-2.62 5.834-4.69 11.866-7.932 17.418-3.201 5.481-7.835 10.057-12.16 14.66-2.254 2.398-4.374 4.888-7.066 6.817-1.367.98-2.815 1.838-4.28 2.662-.696.393-1.41.76-2.1 1.162-.39.228-.983.753-1.476.646-.358-.078-.91-1.048-1.096-1.273-.473-.57-.937-1.142-1.465-1.662-1.106-1.09-2.317-2.063-3.42-3.158-2.446-2.425-4.765-4.987-7.368-7.248-2.456-2.133-5.127-4.027-7.853-5.797-2.619-1.699-5.398-3.196-8.511-3.71-3.13-.515-6.187-.064-9.202.817-2.838.83-5.278 2.292-7.888 3.635-.921.474-2.138 1.179-3.19.758-.512-.205-.824-.675-1.234-1.017-.42-.35-1.068-.553-1.4-.99-.538-.71-.06-1.862-.104-2.7-.088-1.671-.69-3.32-1.383-4.825-2.916-6.34-6.387-12.34-8.852-18.898-.574-1.526-1.207-3.076-1.593-4.662-.242-.989.038-2.065-.212-3.001-.249-.934-1.296-1.019-1.98-.34-.737.733-.46 2.033-.32 2.94 1.078 7.028 4.062 13.324 7.164 19.634.754 1.532 1.484 3.075 2.25 4.6.666 1.324 1.382 2.656 1.124 4.177-.232 1.37-.829 2.697-1.148 4.055-.337 1.434-.493 3.157-1.207 4.464-.668 1.224-1.491 1.633-.753 3.137.168.341.483.614.446 1.003-.053.551-1.071 1.28-1.439 1.645-2.434 2.417-5.129 4.558-7.638 6.893-1.092 1.015-2.106 2.324-3.341 3.156-1.188.8-2.169 1.556-3.165 2.613-2.27 2.403-4.724 4.637-7.087 6.948a874.226 874.226 0 0 0-7.278 7.189c-2.26 2.263-4.274 4.823-6.663 6.95-2.39 2.13-4.865 4.209-7.297 6.296-.555.477-1.024.947-1.751 1.1-.562.119-1.042.006-1.556.339-1.204.778-2.126 2.515-3.026 3.614-2.146 2.624-4.586 4.969-6.992 7.348a54.178 54.178 0 0 0-3.322 3.59c-.903 1.068-1.682 2.284-2.726 3.227-1.094.989-2.056 1.79-2.935 3.007a68.813 68.813 0 0 1-2.866 3.7c-1.047 1.258-2.12 2.495-3.08 3.823-.877 1.214-1.554 2.56-2.454 3.757-.896 1.192-1.943 2.24-2.672 3.555-.79 1.426-1.266 3-1.84 4.52-.03-.142-.77-.459-.864-.548-.454-.427-.475-1.038-.86-1.516-.728 1.141.505 3.266.811 4.387-.652-2.384-1.077-4.825-1.907-7.16-.818-2.298-1.787-4.54-2.345-6.923-.566-2.41-.92-4.872-1.36-7.308-.189-1.043-.333-2.093-.343-3.155-.004-.438.113-.928.053-1.36-.081-.589-.287-.605-.619-1.07-.518-.721-.22-.883.049-1.622.314-.862-.212-1.006-.595-1.7-.494-.898.325-1.306.14-2.168-.077-.356-.486-.638-.556-.976-.148-.72.26-.39.403-.88.14-.485-.57-.701-.826-1.134-.235-.397-.3-.754-.18-1.204.032-.12.144-.268.162-.381.037-.24-.021-.263-.012-.434.076-1.435.373-2.86.52-4.32.132-1.324-.447-2.546-.687-3.818-.207-1.094.156-2.057.153-3.143-.003-1.197-.821-1.508-1.477-2.348-.765-.979-.97-2.413-.74-3.608l.882 1.598c.033-.471.169-1.007.023-1.471-.167-.53-.471-.521-.727-.894-.453-.659-.045-.41.1-1.123.074-.365-.197-.777-.249-1.136-.067-.462.043-.867.039-1.323-.006-.732-.253-1.226.105-1.906.322-.612.906-1.097 1.333-1.633.796-.997 1.523-2.066 2.28-3.095 1.055-1.439 2.623-2.76 2.138-4.665-1.817 1.143-2.893 3.114-4.167 4.774-1.42 1.849-3.167 3.413-4.622 5.233-3.101 3.877-6.603 7.467-10.265 10.818-1.821 1.667-3.686 3.283-5.54 4.912-1.68 1.475-3.204 3.168-5.11 4.362-1.732 1.084-3.915 2.424-6.046 2.067-.846-.141-1.74-.528-2.223-1.265-.406-.62-.372-1.73-1.138-2.08-.295-.135-.754.168-.932-.221-.14-.306.372-.783.35-1.113-.055-.817-1.305-1.979-1.764-2.648-.262-.383-.523-.901-.942-1.14-.155-.09-.415-.04-.53-.142-.137-.123-.07-.267-.17-.386-.301-.358-.298-.661-.75-.974-.487-.337-1.096-.504-1.63-.752.017-.026.432.132.479.146-.184-.654-.663-1.154-.896-1.782-.245-.66-.154-1.296-.624-1.861-.479-.575-1.242-.881-1.749-1.441-.517-.571-.834-1.312-1.285-1.936-.86-1.185-1.985-1.8-2.543-3.177-.125-.31-.161-.597-.419-.836-.22-.203-.546-.087-.747-.345-.297-.38-.087-.76-.567-1.11-.907-.659-2.062-.145-1.742-1.683.325-1.56-.086-1.517-1.19-2.415-1.124-.914-1.713-2.517-2.392-3.752-.268-.487-.479-1.018-.949-1.316-.766-.486-.87-.056-.767-1.063-1.148.305-1.68-1.851-1.997-2.654-.207-.522-.484-1.24-.972-1.568-.335-.225-.928-.051-.942-.057-.297-.128-.951-.955-1.05-1.207-.112-.288.131-.551.006-.897-.129-.356-.585-.64-.87-.837-1.122-.77-3.065-2.5-2.817-4.061 2.883 1.938 5.684 3.995 8.566 5.936 2.286 1.54 4.716 2.838 7.505 3.092 3.16.286 6.427-.265 9.488-1.021 1.605-.397 3.133-1.076 4.771-1.338 1.697-.27 3.261-.692 4.834-1.41.677-.31 1.316-.755 2.026-.975.548-.17 1.114-.186 1.65-.403 1.361-.548 2.444-1.716 3.561-2.63 2.424-1.986 4.675-4.119 6.562-6.634 3.63-4.837 5.418-10.687 7.108-16.415 1.907-6.46 3.43-12.947 5.717-19.299 1.13-3.133 2.196-6.315 3.645-9.32 1.336-2.77 3.173-5.203 5.23-7.472 1.941-2.14 3.873-4.57 6.58-5.762 1.466-.646 3.022-1.092 4.512-1.684 1.598-.633 3.114-1.159 4.858-1.047 1.546.098 3.084.324 4.63.428 1.684.114 3.38-.018 5.03.418 1.472.391 2.852 1.07 4.303 1.533 1.297.415 3.101.377 3.99 1.533.897 1.169 1.147 2.779 1.936 4.032.903 1.434 2.016 2.714 3.243 3.877 2.055 1.948 4.527 3.498 7.464 3.22 3.505-.331 6.657-2.35 9.501-4.28 2.938-1.992 4.99-4.952 7.805-7.086.24 1.133.622 2.23.744 3.388.135 1.275.049 2.573.02 3.851-.058 2.511-.119 5.04-.616 7.511-.479 2.387-1.399 4.593-2.35 6.82-.918 2.144-1.733 4.377-2.962 6.37-2.18 3.535-5.805 6.14-9.657 7.59-3.956 1.49-8.608 2.335-12.43.143-3.69-2.117-6.873-5.196-8.468-9.194-1.856-4.653-2.723-9.657-3.447-14.592-.367-2.5-.665-5.013-.776-7.539-.097-2.19.403-4.65-.81-6.596-.28-.45-.458-.903-.949-.827-.854.133-1.296 1.55-1.511 2.2-.721 2.176-.56 4.418-.498 6.674.152 5.458 1.11 10.944 2.548 16.196.712 2.596 1.377 5.245 2.644 7.639 1.262 2.383 2.883 4.622 4.612 6.684-.526.007-.746.356-.49.823.17-.265.341-.531.513-.796 3.18 2.682 6.946 5.914 11.249 6.39 2.528.277 4.938.434 7.436-.172 2.46-.597 4.614-1.765 6.697-3.175 1.885-1.276 3.862-2.455 5.268-4.287 1.435-1.869 2.446-4.163 3.451-6.284 2.177-4.592 3.802-9.438 4.275-14.522.232-2.5.034-4.96-.09-7.459-.061-1.238-.13-2.48-.379-3.697-.2-.989-.657-1.899-.86-2.883-.383-1.868 1.283-2.913 2.856-3.495 2.024-.749 3.478.878 4.872 2.123 1.858 1.659 3.665 3.355 5.4 5.144.767.791 1.347 1.917 2.137 2.638.549.501 1.341.64 1.963 1.144 1.894 1.535 3.895 3.2 5.54 4.996 1.578 1.723 3.646 3.129 5.503 4.552 2.05 1.572 4.23 2.966 6.284 4.533 1.615 1.234 3.524 1.745 5.146 2.936 1.643 1.206 4.008 1.662 5.873 2.513a48.922 48.922 0 0 1 3.182 1.59c1.03.562 1.952 1.38 3.01 1.87 3.893 1.806 7.737 3.382 12.152 2.607.958-.168 1.702-.663 2.595-.907.968-.265 1.997.02 3.017-.29 2.272-.689 4.588-1.727 6.668-2.865 4.197-2.295 8.583-4.933 11.81-8.522 1.627-1.808 2.799-3.892 4.028-5.975.65-1.102 2.175-3.698.46-4.72-1.452-.863-2.996 2.74-3.606 3.622-1.341 1.942-3.142 3.464-5.084 4.78-1.96 1.33-4.053 2.45-6.072 3.685-2.118 1.294-4.147 2.684-6.514 3.494-1.212.415-2.447.76-3.666 1.155-1.247.404-2.458 1.032-3.778 1.116-2.402.152-4.955.403-7.283-.326-4.529-1.418-8.431-4.653-12.718-6.65-2.157-1.003-4.412-1.755-6.49-2.929-2.147-1.21-4.08-2.768-6.03-4.264a531.655 531.655 0 0 1-12.735-10.081c-1.862-1.522-3.895-2.955-5.635-4.615-.698-.667-1.288-1.462-1.344-2.459-.067-1.189.476-2.309.368-3.512-.206-2.29-1.829-4.226-3.157-5.997-.515-.687-1.203-1.445-.758-2.333.444-.887 1.307-1.687 1.822-2.565 1.239-2.11 2.434-4.247 3.518-6.441.484-.979 1.012-1.954 1.35-2.995.414-1.274.41-2.621.52-3.945.431-5.137-.107-10.22-1.739-15.12-1.493-4.486-2.939-9.6-5.886-13.37-2.82-3.606-6.664-6.123-10.65-8.258-2.298-1.231-4.617-2.424-6.93-3.625-2.248-1.167-4.531-1.707-6.893-2.535-4.688-1.643-9.321-1.08-14 .328-2.429.73-4.932 1.173-7.163 2.444-2.119 1.207-3.958 2.886-5.682 4.592-3.457 3.42-6.826 6.936-10.34 10.3-7.11 6.809-16.502 13.199-26.725 12.811-5.06-.192-10.231-1.104-15.095-2.507-4.879-1.409-9.527-3.225-14.566-4.05-2.588-.423-5.196-.73-7.778-1.197-1.115-.201-2.29-.589-3.432-.508-.417.03-.93.299-1.344.19-.369-.098-.296-.324-.594-.438-.623-.241-1.569.025-2.297-.084-.676-.1-1.99-.696-2.65-.466-.355.124-.415.515-.818.586-.37.065-.802-.284-1.144-.38-1.136-.323-2.434-.184-3.595-.107-2.25.151-4.25.273-6.194 1.491-1.825 1.142-3.747 2.195-5.62 3.279-.98.567-1.541 1.018-2.296 1.826-.45.48-1.089.69-1.647 1.073-1.62 1.116-3.189 3.146-3.618 5.051-.22.974-.837.879-1.222 1.633-.399.782.02 1.697-.497 2.525-.428.687-.497 1.311-.942 2.012-.581.915-.767 2.035-.993 3.079-1.091 5.032-1.466 10.312-1.047 15.447.208 2.543.704 5.009 1.43 7.452.683 2.297 1.123 4.832 2.38 6.904.04-.19.077-.38.11-.572.205.18.62.34.686.634.098.432-.137.73-.539.395.982 1.863 2.16 3.532 3.556 5.118.599.68.954.802 1.72.929.775.127.616.287 1.212.844.495.464.74.494 1.333.116.258-.164.215-.43.552-.434.243-.003.69.472.88.594.358.23.69.465 1.137.479.526.016.721-.422 1.095-.456.78-.07 1.303.59 2.14.529.844-.062 1.237-.114 2.082.03 1.195.206 2.426.102 3.602-.168.949-.218 2.007-.505 2.864-.978.464-.255.796-.571 1.306-.749.433-.151.9-.141 1.327-.338.886-.41 1.62-.97 2.552-1.34.858-.342 1.639-.802 2.442-1.251.48-.269 1.132-.8 1.577-.24.531.67-.185 2.17-.32 2.857l.519-.142c-.675.431-.635.413-.828 1.23-.196.827-.539 1.617-.653 2.464-.263 1.945-.046 4.004-.046 5.963 0 4.239-.062 8.345 1.056 12.47.972 3.583 2.121 7.396 5.3 9.63.658.462 1.377.88 1.903 1.502s.816 1.328 1.458 1.867c1.237 1.038 3.05 1.725 4.667 1.755 1.824.033 3.816.034 5.547-.588 1.682-.604 3.408-1.229 5.053-1.929 3.587-1.526 5.858-5.021 7.685-8.307.951-1.71 1.975-3.407 2.843-5.162.242-.489.436-1.38.927-1.692.61-.387 1.236.05 1.89.159 1.011.168 2.158.096 3.182.091.757-.003 1.338-.258 1.478.59.127.774-.575 2.228-.777 2.995-.273 1.04-.537 2.08-.803 3.12-1.042 4.091-2.179 8.136-3.513 12.143-1.258 3.783-2.765 7.416-5.312 10.524-2.426 2.962-5.472 5.69-8.605 7.892-1.738 1.222-3.701 1.899-5.706 2.556-.879.287-1.767.547-2.645.839-.376.125-.76.307-1.147.389-.393.082-.853-.062-1.206.024-.565.138-.873.61-1.51.74-.903.182-1.842.27-2.752.426-2.058.354-4.15.749-6.24.806-4.07.111-7.097-1.676-10.47-3.707-1.433-.863-2.98-1.718-4.316-2.728-.388-.295-.632-.425-.576-.905.025-.214.32-.478.418-.674.279-.556.555-1.321.618-1.943.108-1.045-1.14-3.046-2.41-2.335-.863.481-.669 1.966-1.49 2.507-.732.481-1.05-.1-1.343-.694-.381-.769-.56-1.36-1.322-1.873-.704-.473-1.484-.555-1.699-1.503-.08-.351.027-.716-.08-1.067-.113-.364-.628-.723-.655-1.081-.058-.753 1.353-1.467 1.819-1.94.684-.697 1.247-1.49 1.728-2.338 1.123-1.977 1.877-4.208 2.471-6.395 1.004-3.69 1.604-7.805.415-11.526-.447-1.4-1.166-2.82-2.363-3.724-1.863-1.407-3.775-.67-5.83-.234.975-3.453 2.333-8.495-.68-11.366-2.444-2.33-5.786-.043-8.192 1.135-.032-2.628.128-5.349-.89-7.834-.654-1.601-1.866-3.508-3.702-3.856-2.073-.392-4.192 1.282-5.551 2.656-1.627 1.645-2.878 3.785-3.837 5.88-.464 1.012-1.329 4.035-2.81 2.352-.478-.544-.722-1.322-1.11-1.932-.714-1.12-1.501-1.89-2.47-2.745-.636-.561-.632-1.312-1.195-1.955-.339-.388-.8-.653-1.133-1.05-.422-.504-.655-1.113-.972-1.68-.557-.994-1.38-1.672-2.123-2.51-.866-.973-1.08-2.225-1.772-3.3-1.64-2.549-3.7-4.88-5.499-7.32-1.511-2.05-3.053-4.085-5.496-5.063-.206 1.735.106 2.691.981 4.199.867 1.494 1.742 2.985 2.677 4.438 1.784 2.77 3.793 5.38 5.739 8.035 1.96 2.677 3.717 5.49 5.658 8.182.944 1.308 1.906 2.603 2.848 3.912.67.932 2.293 2.428 1.873 3.658-.172.502-.61.952-.861 1.424-.356.67-.608 1.382-.896 2.083-.576 1.396-1.23 2.757-1.834 4.14-1.278 2.922-2.35 5.967-3.454 8.96-2.22 6.01-2.525 12.942-.396 18.994 1.122 3.187 1.754 6.51 2.915 9.689a70.595 70.595 0 0 0 4.133 9.18c1.442 2.684 3.767 5.041 4.232 8.116.373 2.466.832 4.925 1.805 7.238.4.947.888 1.868 1.543 2.664.334.406.703.78 1.123 1.098.451.34 1.16.48 1.553.83.25.222.32.689.47.973.245.464.566.853.913 1.243 1.05 1.182 2.215 2.445 3.492 3.382 2.351 1.723 4.726 3.534 7.222 5.047 2.558 1.55 5.13 3.274 7.802 4.611.732.365 1.488.69 2.268.935.318.1.73.275 1.07.272.235 0 .523-.162.736-.138.566.062.046.026.64.382.51.306.936.294 1.521.445 3.25.841 6.266 2.143 9.616 2.55 3.665.446 7.422 1.018 11.122.808 1.626-.092 5.228-1.754 6.025.453.865-1.323 2.294-.69 3.57-.64-.066-.31-.465-1.083-.292-1.375.224-.375 1.572-.322 1.904-.174.695.31 1.111 1.263 1.525 1.852.706 1.006 1.465 1.979 2.193 2.97 2.865 3.903 5.724 7.812 8.609 11.701 5.767 7.778 11.356 15.687 16.987 23.565 1.308 1.83 2.534 3.71 3.813 5.56 1.161 1.681 2.593 3.146 3.83 4.77 1.383 1.813 2.517 3.804 3.878 5.636 1.394 1.879 2.785 3.76 4.17 5.644 5.665 7.705 11.178 15.519 16.71 23.318 6.282 8.857 12.652 17.65 19.03 26.438-4.402 1.988-8.753 4.193-13.298 5.846-2.127.774-4.375 1.199-6.472 2.056-1.099.449-2.03.929-3.206 1.142-1.14.208-2.253.454-3.377.738-4.494 1.134-9.188 2.07-13.821 2.347-1.873.113-3.983-.004-5.498 1.298-1.325 1.14-1.454 2.769-1.389 4.412-3.14-.072-6.082-1.375-9.197-1.639-2.968-.251-6.186.17-8.764 1.743-2.592 1.582-5.333 3.646-7.347 5.927-2.08 2.353-3.26 5.31-4.218 8.263-1.063 3.276-1.92 6.615-2.954 9.9-1.068 3.389-2.134 6.748-2.913 10.22a104.694 104.694 0 0 0-2.514 21.287c-.038 2.698.232 5.549 2.423 7.42 2.262 1.935 5.148 1.346 7.53-.038 1.317-.766 2.437-1.775 3.58-2.769 1.1-.954 2.239-1.775 3.137-2.934 1.935-2.497 4.175-4.79 6.15-7.275 3.726-4.69 8.149-8.601 10.867-14.032 1.373-2.74 3.283-5.493 4.03-8.499.237-.95.13-2.77-1.313-2.497-.922.174-1.527 1.494-1.958 2.211a66.73 66.73 0 0 1-6.787 9.363c-1.194 1.374-2.53 2.609-3.82 3.89-1.292 1.283-2.368 2.698-3.574 4.052-1.19 1.334-2.523 2.476-3.65 3.875a45.855 45.855 0 0 1-3.615 4.008c-2.594 2.548-5.226 5.162-8.43 6.944-.497-2.339.392-4.557.686-6.836.309-2.39.493-4.68.995-7.057.538-2.551 1.078-5.101 1.687-7.636.575-2.387 1.456-4.684 2.026-7.071.517-2.17 1.561-4.094 1.959-6.253.205-1.115.734-2.154 1.07-3.232.37-1.193.687-2.402 1.072-3.591 1.501-4.63 4.205-8.073 7.982-11.117 2.044-1.646 4.432-2.871 6.986-3.49 2.931-.71 5.99-.473 8.935-1.099.302 1.878 1.002 3.995.797 5.907-.073.678-.38 1.082-.135 1.703.098.247.495.44.625.757.184.446.163 1.041.24 1.518.665 4.132 1.619 8.194 2.701 12.233.352 1.313.74 3.133 2.254 3.603.645.2.705.012 1.218-.303.736-.453 1.285-.374 2.125-.184.548.123 1.09.237 1.638.346.27.052.79.035.981.3.098.136.04.51.12.59.41.403.2.223.875.01.893-.281 1.49-.042 2.377.255 7.669 2.563 15.822 1.25 23.695.507 4.149-.392 8.272-.525 12.376-1.324 4.073-.794 8.168-1.621 12.127-2.872 1.75-.552 3.469-1.223 5.193-1.848.574-.208 2.735-1.653 2.36.03-.163.724-.981 1.325-1.392 1.907-.461.654-.715 1.443-1.262 2.039-.718.781-1.452 1.403-2.097 2.273-2.245 3.031-4.214 6.186-6.626 9.104-.988 1.194-2.176 2.443-2.66 3.952-.48 1.492-.124 3.225.35 4.674.531 1.62 1.532 2.9 2.502 4.273 1.206 1.707 2.2 3.57 3.289 5.353 1.03 1.687 2.089 3.359 3.221 4.98.728 1.043 1.497 2.537 2.603 3.24.497.317 1.143.547 1.68.161.526-.377.414-1.066.746-1.53.477-.668.924-.353 1.695-.365 1.07-.018 1.314-.574 2.138-1.072.58-.352 1.277-.218 1.856-.645.525-.386.783-1.041 1.268-1.468 1.297-1.139 3.617-1.56 5.207-2.2 7.851-3.159 15.269-7.289 22.891-10.952 3.81-1.83 7.682-3.542 11.453-5.451a141.174 141.174 0 0 0 5.23-2.798c.92-.515 1.884-1 2.755-1.597.815-.56 1.468-1.211 2.411-1.553 1.789-.649 3.238-1.723 4.96-2.531 1.859-.872 3.494-2.12 5.289-3.105 1.82-1 3.744-1.805 5.576-2.786 1.87-1.002 3.645-2.172 5.517-3.169 3.625-1.929 7.513-3.366 10.951-5.65.71-.471 1.364-1.038 2.15-1.383.957-.42 1.956-.608 2.894-1.1 1.888-.987 3.65-2.17 5.565-3.117 3.624-1.79 7.292-3.512 10.897-5.332 3.419-1.726 7.046-2.955 10.549-4.523 3.81-1.704 7.622-3.42 11.396-5.2 1.729-.815 3.405-1.68 5.201-2.341 1.873-.69 3.432-1.894 5.305-2.575 7.451-2.708 14.814-5.548 21.985-8.934a739.024 739.024 0 0 1 11.305-5.22c1.718-.777 3.662-1.403 5.227-2.455 1.646-1.108 3.396-1.653 5.123-2.596 3.619-1.976 7.526-3.326 11.238-5.117 3.637-1.755 7.45-3.24 11.01-5.137.662-.353 1.68-1.309 2.467-1.24.609.055.862.673 1.375.883 1.394.57 2.345-1.317 2.97-2.262.89-1.346 1.934-2 3.057-3.056 1.382-1.296 2.547-3.3 3.49-4.942 3.915-6.825 10.213-11.698 14.636-18.172 2.278-3.335 4.222-6.788 6.093-10.36.869-1.66 1.87-3.245 2.89-4.813.557-.858 1.125-1.71 1.683-2.566.346-.53.846-1.862 1.447-2.139.559-.257 1.313.144 1.93-.13.562-.249.9-.756 1.122-1.308.544-1.35.455-3.244-.647-4.302z"/>
            <path d="M378.353 206.952c-.055.005.015 0 .04-.002-.033-.024-.078.004-.04.002M305.44 306.554c-.036.005-.015.028-.007.012-.012.032.003-.003.006-.012M240.098 147.972c.422-.148.843-.295 1.265-.441-.754-.382-.828-.118-1.265.44M125.978 269.123l-.517.22c.374.36.314.158.517-.22M203.809 223.15a6.69 6.69 0 0 0-.957 1.72l1.778-.753c-1.762 5.689-2.425 11.638-2.982 17.545-3.201-1.942-6.312-4.018-9.403-6.132-1.006-.688-2.666-1.34-3.405-2.33-.336-.45-.32-.778-.811-1.087-.594-.373-1.65-.354-2.322-.486 5.671-3.55 12.012-5.782 18.102-8.478m-21.258 10.098c.67-.371 1.473-1.208 2.267-1.269.915-.069 1.218.903 1.843 1.45 2.066 1.808 4.633 3.233 6.924 4.738 2.31 1.516 4.574 3.143 6.972 4.52.61.35 1.763 1.313 2.36.651.646-.715.575-2.932.714-3.881.404-2.759.62-5.554 1.176-8.288.565-2.775 1.28-5.552 1.995-8.291.192-.732.652-1.805-.031-2.417-.806-.721-2.013.175-2.757.569-2.523 1.336-5.215 2.389-7.851 3.477-2.891 1.193-5.632 2.675-8.351 4.215-1.3.737-2.6 1.475-3.881 2.244-1.07.64-2.345 1.28-2.87 2.488.568.08.976.078 1.49-.206M217.549 214.23c3.547-2.058 7.246-3.922 11.153-5.194 1.971-.642 4.008-1.056 6.035-1.474 1.444-.298 3.497-.86 1.884-2.527-1.176-1.216-3.235-1.77-4.696-2.593-1.532-.863-2.687-2.125-3.837-3.431-1.327-1.51-2.707-2.973-4.008-4.506-.97-1.142-1.923-2.881-3.47-3.263 1.825 3.377 4.626 6.093 7.191 8.899 1.16 1.268 2.372 2.677 3.89 3.53 1.205.676 3.023.886 3.779 2.178-3.737.794-7.512 1.67-11.102 2.997-3.035 1.124-5.88 3.76-9.119 4.175.982-4.727 2.294-9.352 3.465-14.03.424-1.694.884-3.53.905-5.293.022-1.686-.717-.8-1.014.306a910.262 910.262 0 0 1-3.34 12.125 51.32 51.32 0 0 0-.839 3.354c-.225 1.068-.655 2.307-.457 3.412.32 1.793 2.146 2.166 3.58 1.335M168.104 269.146c3.437-1.755 6.646-3.942 10.19-5.489 3.232-1.41 7.178-1.875 10.058-3.972-1.502-1.786-3.79-1.776-5.738-2.954-2.115-1.28-4.038-3.023-5.943-4.589-1.982-1.629-3.7-3.49-5.6-5.203-1.04-.936-3.1-2.937-4.653-2.524-.813.215-1.172 1.223-.407 1.784.559.41 1.538.098 2.19.285 1.979.57 3.44 2.822 4.909 4.157 1.918 1.743 3.97 3.353 6.01 4.95 2.24 1.757 4.524 2.91 7.145 3.99-6.944 1.569-13.28 4.96-19.381 8.524.42-3.639.205-7.315-.046-10.957-.125-1.81-.264-3.617-.479-5.418-.188-1.587-.236-3.424-.948-4.884-.636 1.968-.182 4.16.017 6.163.242 2.427.498 4.866.568 7.305.066 2.318-.203 4.632-.153 6.941.031 1.436.643 2.717 2.261 1.89M291.758 255.337c1.243 2.955 1.811 6.132 3.1 9.075a150.334 150.334 0 0 0 1.961 4.271c.488 1.027 1.36 2.48 1.17 3.674-.327 2.062-4.592-1.07-5.468-1.497-2.979-1.45-5.929-2.96-8.884-4.46l8.12-11.063m-9.295 12.13c3.998 2.254 8.394 3.781 12.295 6.183 1.205.742 3.603 2.688 4.53.726.863-1.824-.575-4.502-1.32-6.125a60.782 60.782 0 0 1-2.573-6.579c-.373-1.145-.698-2.304-1.037-3.46-.332-1.128-.876-2.242-1.105-3.394-.07-.348-.146-.765-.014-1.111.122-.322.522-.483.62-.768.31-.897-.529-.81-1.153-.668-.851.193-1.042.362-1.415 1.131-.433.893-1.022 1.574-1.663 2.325-1.71 2.004-3.427 4.008-5.03 6.101-.843 1.103-4.228 4.459-2.135 5.64M268.367 220.381c.96 4.256 2.636 8.355 5.041 12-4.693.031-9.218-1.41-13.61-2.919l8.57-9.081m-8.573 11.019c2.286.737 4.586 1.666 6.939 2.165 2.037.431 4.127.292 6.18.581 1.141.161 3.65.798 2.599-1.235-.387-.747-1.037-1.363-1.523-2.046a20.065 20.065 0 0 1-1.848-3.21c-1.03-2.232-1.715-4.642-2.297-7.026-.443-1.82.72-3.251 2.381-4.08.546-.271 1.74-1.046.376-1.418-.738-.201-1.633.594-2.168 1.009-1.792 1.391-3.273 3.125-4.86 4.735-1.991 2.021-4.045 3.98-6.038 6.001-.626.634-1.497 1.362-1.548 2.322-.059 1.093.84 1.89 1.807 2.202M187.485 280.362c-3.506-.419-7.044-.295-10.563-.161 1.702-3.6 3.786-7.01 6.12-10.232 3.158 3.569 6.302 7.212 8.628 11.397-1.392-.345-2.755-.833-4.185-1.004m3.992-1.238c-1.23-1.786-2.4-3.617-3.735-5.328a25.968 25.968 0 0 0-1.808-2.104c-.384-.396-1.026-.84-1.214-1.378-.207-.594.084-.722-.224-1.293-.345-.642-.82-1.096-1.568-.8-1.384.547-2.697 2.835-3.502 3.997a60.873 60.873 0 0 0-3.397 5.5c-1.007 1.846-.824 3.532 1.422 4.162 1.833.515 3.938.066 5.801-.066 2.117-.15 4.27-.193 6.326.426.87.262 3.08 1.69 3.3.029.136-1.037-.846-2.34-1.4-3.145M206.608 248.535c-1.146 4.735-2.145 9.501-2.945 14.307-.362 2.178-.759 4.37-.966 6.568-.06.624-.008 3.984 1.19 2.443.39-.5.783-1.555.899-2.145.185-.943-.318-1.71-.192-2.667.299-2.265.735-4.53 1.084-6.79.353-2.284.713-4.567 1.08-6.848.306-1.904 1.405-4.25.477-6.12-.21.41-.516.795-.627 1.252M313.593 358.191c-.049-.014-.097-.03-.145-.039.048.009.096.025.145.04m57.49-40.439c-10.797 2.861-20.96 7.981-30.997 12.777-10.147 4.85-20.12 10.109-29.806 15.83-4.804 2.838-9.556 5.763-14.343 8.63-4.053 2.428-8.584 4.922-11.85 8.402-.93.99-2.326 3.084-.445 3.89 1.179.503 3.225.294 4.473.088 1.181-.196 2.3-.765 3.49-1.003 1.454-.29 2.915-.529 4.344-.94 2.656-.763 5.247-1.867 7.77-2.987 2.744-1.219 5.36-2.609 8.229-3.519 1.063-.337 1.82-.841 2.777-1.391 1.057-.607 2.364-.805 3.386-1.465.423-.274.648-.724 1.078-.978.526-.31 1.205-.258 1.778-.416 1.372-.378 2.718-1.143 4.02-1.714 1.4-.615 2.8-1.234 4.197-1.858 1.096-.49 2.206-.877 2.947-1.872-1.298-.662-1.923-.309-3.183.343-1.413.73-2.885 1.361-4.326 2.034-2.923 1.363-5.814 2.8-8.765 4.103-6.007 2.653-12.069 4.968-18.338 6.907-1.541.476-3.1.919-4.613 1.48-1.462.541-2.576.982-4.16.994-1.278.009-2.393.187-1.278-1.224.347-.438.787-.747 1.17-1.138.474-.487.425-.815.66-1.403.422-1.05 1.676-1.058 2.668-1.317 1.137-.295 1.942-1.218 3.008-1.793 1.17-.63 2.19-.939 3.171-1.86.427-.402.415-.323.936-.432.65-.136 1.107-.405 1.65-.825 1.05-.812 1.793-1.53 3.103-1.76.74-.13.952-.42 1.553-.911.644-.527 1.302-.821 2.08-1.091 1.633-.566 3.122-1.23 4.545-2.231.63-.443 1.144-1.01 1.759-1.46.088-.066 1.2-.483 1.215-.505.09-.136-.232-.653.218-.795.404-.127.664.298 1.101.124.187-.074.096-.332.234-.433.272-.2.424-.29.76-.365 1.358-.308 2.016-.712 3.143-1.575.501-.384.978-.64 1.54-.928.595-.305.725-.632 1.19-1.027.795-.675 1.167.316 2.07-.092.44-.199.719-.654 1.076-.96.481-.413.91-.519 1.504-.72 1.136-.388 2.041-1.154 3.146-1.595.461-.185.825-.475 1.271-.681.591-.274 1.261-.276 1.83-.621.94-.572 1.235-1.375 2.336-1.606 1.332-.278 2.385-.985 3.542-1.712 1.247-.784 2.436-1.7 3.834-2.2 1.301-.464 2.646-.722 3.902-1.318 1.26-.598 2.418-1.386 3.62-2.09 1.303-.765 2.653-1.248 4.044-1.816 1.184-.482 2.508-.82 3.65-1.368.506-.242.88-.657 1.376-.902.58-.286 1.137-.354 1.683-.753.484-.353.855-.88 1.441-1.082.714-.246 1.409-.224 2.127-.549.656-.296 1.184-.372 1.844-.551.533-.145.793-.531 1.36-.868 1.203-.714 2.716-.813 4.006-1.344 1.274-.527 2.67-1.115 3.64-2.13-1.68-.716-3.75.137-5.392.572"/>
            <path d="M348.61 336.933c-4.302.616-8.333 2.239-12.432 3.6-3.354 1.115-7.037 1.954-9.794 4.299 3.834-1.088 7.72-2.037 11.47-3.397 3.406-1.235 6.806-3.105 10.54-2.913-1.335 1.594-3.266 2.447-5.02 3.473-2.194 1.282-4.353 2.622-6.538 3.919 1.117.945 3.017-.79 4.012-1.325a55.468 55.468 0 0 0 4.625-2.767c1.293-.867 2.739-1.607 3.916-2.631 1.339-1.164 1.169-2.537-.779-2.258M262.319 308.727c-.796-1.078-2.55-1.498-3.593-2.37-1.5-1.255-2.994-2.496-4.54-3.696-1.44-1.119-2.793-2.313-3.991-3.695-1.298-1.496-2.304-3.228-3.665-4.67-.178.67-.39 1.486-.13 2.164.252.656.867.896 1.35 1.345 1.221 1.13 2.05 2.684 3.277 3.857 2.64 2.52 5.636 4.626 8.472 6.912l-15.864 5.634c.485-3.831 1.223-7.642 1.648-11.475.205-1.831.278-3.667.365-5.506.068-1.448.28-3.234-1.03-4.232-.168 2.312-.127 4.627-.446 6.93-.315 2.27-.791 4.52-1.187 6.776-.387 2.204-2.44 9.693 1.932 9.17 1.837-.22 3.738-1.165 5.45-1.816 2.159-.822 4.308-1.68 6.49-2.44.826-.289 6.686-1.228 5.462-2.888M229.652 329.431c-1.79-1.342-3.622-2.626-5.438-3.932-.77 1.237-.358 1.534.808 2.294 1.075.7 2.209 1.328 3.257 2.07 1.05.744 1.012 1.22.268 2.194-.821 1.076-1.747 2.078-2.593 3.135-1.74 2.173-3.468 4.357-5.254 6.493-1.45 1.735-3.051 4.321-5.085 5.41l-3.497-8.319c-.99.47-1.137.767-.725 1.828.513 1.325 1.225 2.576 1.782 3.886.473 1.114 1.232 2.302 1.293 3.536.026.527-.227 1.084-.128 1.602.116.606.585.87.951 1.329 3.615-3.634 6.92-7.567 10.125-11.563 1.52-1.895 2.973-3.853 4.547-5.703.485-.57 1.183-1.141 1.188-1.957.006-.873-.848-1.815-1.499-2.303M232.77 281.513c-4.917 2.06-9.967 3.775-14.992 5.547 1.492 1.654 3.24.747 4.975.116a133.259 133.259 0 0 1 7.755-2.559c1.183 4.63 2.619 9.22 3.588 13.901.24 1.163.511 2.732-.784 3.354-1.815.872-4.687.167-6.607.027.516.544.078 1.28.83 1.683.476.255 1.203.149 1.728.203 1.633.168 3.335.551 4.907-.156 2.32-1.043 1.373-3.79.917-5.691-.878-3.657-2.064-7.314-2.656-11.03-.234-1.47.238-2.167 1.145-3.249.342-.407.762-.812.66-1.399-.12-.691-.847-1.006-1.466-.747M32.65 192.91c-.105.084-.062.08-.058.222.078-.018.097-.092.058-.222M171.941 359.456c-1.076-.371-1.236.793-1.483 1.54-.489 1.475-.995 2.946-1.488 4.42-.765-1.028-1.153-2.248-1.556-3.447-.201-.596-.547-2.68-1.479-1.869-.796.693.22 2.091.502 2.815.449 1.153.843 2.363 1.478 3.434 1.38 2.329 2.558.442 3.181-1.26.482-1.314 1.04-2.6 1.499-3.922.32-.922.359-1.361-.654-1.71M189.308 377.093c-1.246 2.24-2.456 4.501-3.682 6.753 2.318-.607 2.775-2.026 3.88-3.91.367-.622.873-1.636 1.597-1.915.554-.213.368-.25.92.32.375.388.781.753 1.18 1.117.373.342 1.66 1.432 1.92.224.123-.564-1.283-1.478-1.662-1.83-1.162-1.079-2.977-2.873-4.153-.76M188.527 121.144c1.275 2.626 3.415.014 4.118-1.454 1.014-2.118 1.355-4.606 1.319-6.938-.016-.965-.122-2.157-.726-2.958-.7-.93-1.558-.508-2.013.388-.56 1.102-.546 2.594-.767 3.792-.249 1.344-.562 2.687-1.054 3.964-.728-.506-1.783-1.003-1.894.255-.085.974.61 2.113 1.017 2.951M182.999 116.293c1.228-.38 2.987-1.626 3.164-3.012.343-2.685-3.16-.714-4.258-.326-.136-.914-.054-3.897-1.395-4.081-1.008-.138-1.085 1.895-1.081 2.552.012 1.85.986 5.663 3.57 4.867M179.084 122.62c.16.873 2.583 4.75 3.625 2.787.479-.9-.387-1.31-.952-1.795-.902-.771-1.467-1.855-2.33-2.672-.117.474-.447 1.19-.343 1.68M245.273 150.138c-.355.631-.693 1.16-.192 1.794.229.29 1.02.907 1.44.687.393-.206.228-.797.069-1.099-.329-.623-1.025-.64-.846-1.506-.157.04-.314.082-.471.124M166.436 162.864c.039.09.096.164.173.225.448-.609-.185-.466-.173-.225M76.116 228.07l-.21-.22c-.14.194-.108.355.097.482l.113-.262"/>
        </g>
        <ellipse cx="387" cy="260.5" fill="#FFF" rx="129" ry="129.5" style="mix-blend-mode:overlay"/>
    </g>
</svg>
